<?xml version="1.0" encoding="UTF-8"?>
<svg id="Layer_2" data-name="Layer 2" xmlns="http://www.w3.org/2000/svg" viewBox="0 0 15.82 17.42">
  <defs>
    <style>
      .cls-1 {
        fill: #fff;
      }

      .cls-2 {
        fill: #B3B3B3;
      }
    </style>
  </defs>
  <g id="PATTERN">
    <g>
      <path class="cls-2" d="M6.58,5.3S9.36-.09,10.13,0c.78,.09,.51,6.26,1.02,6.39,.51,.13,4.77,1.26,4.66,2.12-.1,.86-4.2,1.84-4.42,2.11-.22,.27,.77,6.31,.34,6.76-.43,.45-4.28-4.88-4.86-4.85-.58,.03-4.5,3.59-5.3,3.14-.81-.44,2.17-6.24,1.71-6.36C2.82,9.2-.14,6.17,0,5.58c.14-.59,5.8-.37,6.58-.28Z"/>
      <g>
        <g>
          <path class="cls-1" d="M8.95,6.68c-.04,.25-.28,.42-.53,.37-.25-.04-.42-.28-.37-.53,.04-.25,.28-.42,.53-.38,.25,.04,.42,.28,.37,.53Z"/>
          <path class="cls-1" d="M9.44,4.41c-.03,.18-.19,.29-.37,.26-.17-.03-.29-.2-.26-.37,.03-.18,.2-.29,.37-.26,.17,.03,.29,.2,.26,.37Z"/>
          <path class="cls-1" d="M9.86,2.41c-.02,.12-.13,.2-.25,.18-.12-.02-.2-.13-.18-.25,.02-.12,.13-.2,.25-.18,.12,.02,.2,.13,.18,.25Z"/>
        </g>
        <g>
          <path class="cls-1" d="M9.83,9.15c-.25,.03-.48-.15-.51-.4-.03-.25,.15-.48,.41-.51,.25-.03,.48,.15,.51,.4,.03,.25-.15,.48-.4,.51Z"/>
          <path class="cls-1" d="M12.15,8.99c-.18,.02-.33-.11-.35-.28-.02-.17,.11-.33,.28-.35,.18-.02,.33,.11,.36,.28,.02,.17-.11,.33-.28,.35Z"/>
          <path class="cls-1" d="M14.18,8.84c-.12,.01-.23-.07-.24-.2-.01-.12,.07-.23,.19-.24,.12-.01,.23,.07,.24,.19,.01,.12-.07,.23-.19,.24Z"/>
        </g>
        <g>
          <path class="cls-1" d="M8.28,11.11c-.14-.22-.07-.5,.14-.63,.21-.14,.5-.07,.63,.14,.13,.21,.07,.5-.14,.63-.21,.14-.5,.07-.63-.14Z"/>
          <path class="cls-1" d="M9.44,13.12c-.1-.15-.05-.35,.1-.44,.15-.09,.35-.05,.44,.1,.09,.15,.05,.35-.1,.44-.15,.09-.35,.05-.44-.1Z"/>
          <path class="cls-1" d="M10.46,14.89c-.06-.1-.03-.24,.07-.3,.1-.06,.24-.03,.3,.07,.07,.1,.03,.24-.07,.3-.1,.06-.24,.03-.3-.07Z"/>
        </g>
        <g>
          <path class="cls-1" d="M5.55,9.94c.15-.21,.44-.25,.64-.11,.21,.15,.25,.44,.1,.64-.15,.21-.43,.25-.64,.1-.21-.15-.25-.43-.11-.64Z"/>
          <path class="cls-1" d="M4.12,11.76c.1-.14,.3-.18,.45-.08,.14,.1,.18,.3,.07,.45-.1,.14-.3,.18-.44,.08-.14-.1-.18-.3-.07-.45Z"/>
          <path class="cls-1" d="M2.87,13.37c.07-.1,.21-.12,.3-.05,.1,.07,.12,.21,.05,.31-.07,.1-.21,.12-.31,.05-.1-.07-.12-.21-.05-.31Z"/>
        </g>
        <g>
          <path class="cls-1" d="M6.2,7.26c.24,.07,.38,.33,.3,.57-.08,.24-.33,.38-.58,.31-.24-.08-.38-.33-.3-.57,.07-.24,.33-.38,.58-.31Z"/>
          <path class="cls-1" d="M4.01,6.48c.17,.05,.26,.23,.21,.4-.05,.17-.23,.27-.4,.21-.17-.05-.26-.23-.21-.4,.05-.17,.23-.26,.4-.21Z"/>
          <path class="cls-1" d="M2.09,5.8c.11,.03,.18,.16,.14,.27-.03,.12-.16,.18-.27,.14-.12-.04-.18-.16-.15-.27,.04-.12,.16-.18,.28-.14Z"/>
        </g>
      </g>
    </g>
  </g>
</svg>