<?xml version="1.0" encoding="UTF-8"?>
<svg id="Layer_2" data-name="Layer 2" xmlns="http://www.w3.org/2000/svg" viewBox="0 0 12.03 13.71">
  <defs>
    <style>
      .cls-1 {
        fill: #fff;
      }

      .cls-2 {
        fill: #B3B3B3;
      }
    </style>
  </defs>
  <g id="PATTERN">
    <g>
      <path class="cls-2" d="M4.48,4.85S4.63,.2,5.2,0c.57-.19,2.42,4.18,2.81,4.1,.4-.08,3.72-.69,3.94-.06,.21,.63-2.31,2.65-2.38,2.92-.07,.26,2.61,4.13,2.46,4.58-.15,.46-4.58-1.98-4.97-1.77-.39,.21-1.94,3.97-2.65,3.92-.71-.04-.54-5.05-.9-4.98C3.15,8.79,.1,7.67,0,7.21c-.09-.46,3.9-2.16,4.47-2.36Z"/>
      <g>
        <g>
          <path class="cls-1" d="M6.57,5.03c.05,.19-.06,.38-.25,.44-.19,.05-.38-.06-.43-.25-.05-.19,.06-.38,.25-.44,.19-.05,.38,.06,.44,.25Z"/>
          <path class="cls-1" d="M6.17,3.3c.04,.13-.04,.27-.17,.3-.13,.04-.27-.04-.3-.17-.04-.13,.04-.27,.17-.3,.13-.03,.27,.04,.3,.17Z"/>
          <path class="cls-1" d="M5.81,1.77c.03,.09-.03,.18-.12,.21-.09,.02-.18-.03-.21-.12-.03-.09,.03-.18,.12-.21,.09-.02,.18,.03,.21,.12Z"/>
        </g>
        <g>
          <path class="cls-1" d="M8,6.46c-.16,.1-.38,.05-.49-.11-.1-.17-.05-.38,.12-.49,.16-.1,.38-.05,.48,.11,.1,.16,.05,.38-.11,.49Z"/>
          <path class="cls-1" d="M9.55,5.59c-.12,.07-.27,.04-.34-.08-.07-.11-.04-.27,.08-.34,.12-.07,.27-.04,.34,.08,.07,.12,.04,.27-.08,.34Z"/>
          <path class="cls-1" d="M10.92,4.81c-.08,.05-.18,.03-.23-.05-.05-.08-.03-.18,.05-.23s.18-.02,.23,.05c.05,.08,.03,.18-.05,.23Z"/>
        </g>
        <g>
          <path class="cls-1" d="M7.57,8.33c-.17-.1-.21-.32-.11-.49,.1-.16,.32-.21,.49-.11,.16,.1,.21,.32,.11,.49-.1,.17-.32,.21-.49,.11Z"/>
          <path class="cls-1" d="M9.03,9.35c-.12-.07-.15-.22-.08-.34,.07-.11,.22-.15,.34-.08,.11,.07,.15,.23,.08,.34-.07,.11-.22,.15-.34,.07Z"/>
          <path class="cls-1" d="M10.32,10.24c-.08-.05-.1-.15-.05-.23,.05-.08,.15-.1,.23-.05,.08,.05,.1,.15,.05,.23-.05,.08-.15,.1-.23,.05Z"/>
        </g>
        <g>
          <path class="cls-1" d="M5.28,8.41c.04-.19,.22-.32,.41-.29,.19,.04,.32,.22,.28,.41-.03,.19-.22,.32-.41,.28-.19-.03-.32-.22-.29-.41Z"/>
          <path class="cls-1" d="M4.89,10.15c.02-.13,.15-.22,.29-.2,.13,.02,.22,.15,.2,.29-.02,.13-.15,.22-.28,.2-.13-.02-.22-.15-.2-.29Z"/>
          <path class="cls-1" d="M4.55,11.68c.02-.09,.1-.15,.2-.13,.09,.02,.15,.1,.14,.2-.02,.09-.11,.15-.2,.14-.09-.02-.15-.11-.13-.2Z"/>
        </g>
        <g>
          <path class="cls-1" d="M4.86,6.34c.19-.03,.37,.11,.4,.3,.03,.19-.11,.37-.3,.4-.19,.03-.37-.11-.4-.3-.03-.19,.11-.37,.3-.4Z"/>
          <path class="cls-1" d="M3.08,6.52c.13-.02,.26,.07,.28,.21,.02,.13-.07,.26-.21,.28-.13,.02-.26-.07-.28-.21-.02-.13,.07-.26,.21-.28Z"/>
          <path class="cls-1" d="M1.52,6.68c.09-.01,.18,.05,.19,.14,.01,.09-.05,.18-.14,.19-.09,.01-.18-.05-.19-.14-.01-.09,.05-.18,.14-.19Z"/>
        </g>
      </g>
    </g>
  </g>
</svg>