<?xml version="1.0" encoding="UTF-8"?>
<svg id="Layer_2" data-name="Layer 2" xmlns="http://www.w3.org/2000/svg" viewBox="0 0 43.1 54.75">
  <defs>
    <style>
      .cls-1 {
        fill: #fff;
      }

      .cls-2 {
        fill: #B3B3B3;
      }
    </style>
  </defs>
  <g id="PATTERN">
    <g>
      <path class="cls-2" d="M8.33,53.84s-2.11-4.08-1.17-6.36c.94-2.28,4.7-2.46,4.11-5.37-.59-2.91-1.59-4.76,1.04-7.12,2.63-2.37,2.95-3.66,2.52-5.88-.43-2.22-1.02-4.45,1.62-6.75,2.64-2.3,3.95-2.2,3.83-4.3-.13-2.09-.15-6.06,2.64-9.44C25.71,5.24,27.52-1.06,30.46,.15c2.95,1.22-1.48,6.44-1.03,8.6,.45,2.16,1.41,4.36-.83,6.28-2.24,1.92-3.33,3.85-2.29,6.83,1.04,2.99-.71,4.25-2.5,6.05-1.79,1.81-2.25,3.17-2.05,6.22,.19,3.05-.35,4.6-2.82,6.08-2.47,1.49-3.94,2.35-3.84,5.33,.1,2.98-.52,6.82-6.77,8.27Z"/>
      <path class="cls-2" d="M9.12,53.53s3.65-9.11,7.25-9.04c3.59,.08,5.5-.29,6.73-3.02,1.23-2.73,1.7-8.4,4.69-8.62,2.99-.22,3.44-1.31,3.59-2.94,.16-1.63,.68-7.88,4.99-10.08,4.31-2.2,7.57,.45,6.54,2.69-1.03,2.24-4.31,2.95-4.56,6.69-.26,3.74-.19,6.59-3.86,7.97-3.68,1.39-5.39,1.5-6.84,6.15-1.44,4.65-1.26,7.47-4.94,8.11-3.68,.64-5.01-1.42-6.89,1.39-1.88,2.81-5.2,2.04-6.7,.68Z"/>
      <path class="cls-2" d="M7.69,50.12s-3.14-2.33-1.1-5.64c2.04-3.31,4.06-4.56,2.81-7.63-1.24-3.08-2.85-5.72-1.25-8.59,1.6-2.87,3.77-3.82,2.6-6.42-1.16-2.6-.46-4.65,1.2-7.75,1.66-3.09-.87-6.5-4.08-6-3.21,.5-4.94,4.39-3.88,6.98,1.07,2.59,.94,4.86-1.06,6.34-1.99,1.48-3.27,4.2-1.42,7.44,1.85,3.23,1.47,4.36-.62,7.45-2.09,3.09-.07,6.72,1.4,9.18,1.47,2.46-.21,6.49,5.39,4.65Z"/>
      <path class="cls-1" d="M29.78,2.79s-.59,.5-1.47,1.6c-.43,.55-.94,1.26-1.37,2.15-.46,.9-.73,1.94-.79,3.13-.09,1.2-.19,2.52-.45,3.94-.26,1.41-.67,2.98-1.51,4.4-.18,.37-.44,.69-.66,1.04-.22,.32-.44,.65-.66,.97-.48,.65-.82,1.32-1.21,2-.74,1.41-1.33,2.95-1.82,4.5-.26,.78-.46,1.56-.66,2.34-.18,.8-.35,1.59-.52,2.38-.37,1.62-.84,3.2-1.43,4.69-.57,1.48-1.38,2.92-2.25,4.01-.22,.29-.35,.55-.5,.83-.14,.3-.29,.6-.41,.9-.26,.61-.47,1.22-.68,1.81-.8,2.36-1.53,4.35-2.21,5.66-.34,.66-.66,1.13-.9,1.43-.25,.29-.38,.44-.38,.44,0,0,.12-.16,.35-.47,.21-.32,.49-.82,.79-1.47,.62-1.32,1.18-3.31,1.92-5.7,.19-.6,.39-1.23,.64-1.87,.12-.32,.26-.65,.41-.98,.17-.33,.36-.71,.55-.98,.84-1.14,1.48-2.4,2.04-3.84,.55-1.42,.99-2.95,1.33-4.5,.17-.8,.33-1.6,.5-2.41,.2-.82,.41-1.64,.67-2.45,.53-1.62,1.16-3.22,1.96-4.71,.42-.73,.85-1.51,1.31-2.12,.23-.33,.45-.65,.68-.97,.2-.31,.44-.59,.6-.93,.75-1.27,1.19-2.69,1.48-4.03,.29-1.35,.44-2.65,.57-3.86,.06-.59,.15-1.23,.33-1.79,.18-.57,.41-1.08,.67-1.54,.51-.91,1.06-1.6,1.52-2.12,.47-.53,.87-.89,1.14-1.13,.27-.24,.42-.35,.42-.35Z"/>
      <path class="cls-1" d="M8.43,10.45s.08,.53,.09,1.52c0,.5-.02,1.1-.1,1.81-.08,.71-.2,1.52-.47,2.4-.09,.45-.31,.89-.49,1.35-.18,.48-.39,.89-.6,1.37-.38,.92-.75,1.88-.92,2.9-.17,1.01-.16,2.06-.13,3.14,.05,1.07,.13,2.18,.15,3.3,.02,2.28-.1,4.57-.47,6.78-.11,.55-.18,1.09-.34,1.63-.14,.53-.28,1.05-.5,1.55-.1,.24-.2,.53-.28,.71-.11,.24-.18,.45-.23,.64-.11,.41-.17,.83-.16,1.21,.02,.79,.17,1.5,.26,2.16,.09,.66,.13,1.25,.12,1.75,0,.5-.06,.9-.1,1.17-.04,.27-.07,.41-.07,.41,0,0,0-.14,.02-.41,.02-.26,.02-.65-.01-1.12-.03-.48-.11-1.03-.26-1.65-.14-.62-.36-1.29-.42-2.16-.03-.44,0-.92,.12-1.44,.07-.27,.15-.53,.24-.75,.11-.28,.16-.46,.25-.71,.17-.45,.28-.93,.39-1.44,.13-.49,.19-1.01,.28-1.54,.29-2.1,.4-4.36,.37-6.54-.01-1.11-.08-2.2-.12-3.3-.03-1.12,0-2.26,.22-3.4,.21-1.15,.68-2.21,1.13-3.15,.47-.92,.89-1.75,1.16-2.56,.28-.82,.46-1.59,.59-2.28,.12-.69,.19-1.3,.24-1.79,.08-.99,.07-1.55,.07-1.55Z"/>
      <path class="cls-1" d="M40.16,21.4s-.48,.24-1.25,.86c-.75,.6-1.81,1.69-2.53,3.33-.17,.4-.33,.84-.44,1.3-.13,.48-.26,.98-.39,1.49-.29,1.03-.72,2.16-1.24,3.22-.55,1.06-1.16,2.14-1.94,3.1-.73,.99-1.67,1.84-2.59,2.51-.91,.65-1.84,1.22-2.57,1.98-.75,.76-1.29,1.76-1.74,2.77-.4,1.01-.73,2.16-1.42,3.13-.65,.93-1.45,1.55-2.18,1.94-.73,.4-1.42,.59-2.01,.73-.59,.14-1.1,.22-1.52,.3-.84,.13-1.32,.22-1.32,.22,0,0,.48-.18,1.33-.41,.84-.25,2.06-.56,3.42-1.35,.67-.41,1.35-1,1.87-1.82,.52-.78,.79-1.85,1.21-2.99,.46-1.11,1.05-2.3,1.94-3.2,.88-.91,1.82-1.49,2.72-2.14,.87-.62,1.67-1.34,2.38-2.26,.37-.42,.67-.92,1-1.38,.3-.48,.59-.98,.86-1.46,.51-1.01,.94-1.98,1.27-2.98,.16-.51,.31-1,.46-1.47,.15-.5,.34-.98,.55-1.41,.42-.88,.95-1.58,1.46-2.11,.5-.54,.99-.91,1.39-1.19,.81-.55,1.3-.7,1.3-.7Z"/>
    </g>
  </g>
</svg>