<?xml version="1.0" encoding="UTF-8"?>
<svg id="Layer_2" data-name="Layer 2" xmlns="http://www.w3.org/2000/svg" viewBox="0 0 40.4 58.13">
  <defs>
    <style>
      .cls-1 {
        fill: #fff;
      }

      .cls-2 {
        fill: #B3B3B3;
      }
    </style>
  </defs>
  <g id="PATTERN">
    <g>
      <path class="cls-2" d="M17.31,58.13s-3.28-3.23-3.1-5.7c.18-2.47,3.7-3.82,2.23-6.41-1.47-2.59-3-4.04-1.24-7.12,1.76-3.08,1.67-4.41,.57-6.4-1.1-1.99-2.36-3.92-.57-6.95,1.79-3.03,3.07-3.34,2.29-5.3-.77-1.96-2.03-5.73-.44-9.82C18.65,6.35,18.4-.23,21.58,0c3.18,.23,.6,6.6,1.71,8.52,1.11,1.92,2.7,3.71,1.17,6.25-1.53,2.54-1.96,4.71-.04,7.24,1.92,2.52,.65,4.27-.48,6.56-1.13,2.28-1.15,3.73-.01,6.58,1.13,2.84,1.11,4.49-.78,6.69-1.89,2.19-3.01,3.48-1.98,6.29,1.03,2.81,1.64,6.67-3.85,10.01Z"/>
      <path class="cls-2" d="M17.96,57.59s.63-9.83,4.06-10.89c3.43-1.06,5.14-2,5.45-5,.32-2.99-1-8.54,1.77-9.69,2.77-1.14,2.86-2.32,2.5-3.93-.36-1.6-1.81-7.73,1.6-11.18,3.41-3.45,7.33-1.94,7.05,.52-.28,2.46-3.17,4.17-2.25,7.81,.92,3.65,1.88,6.34-1.18,8.82-3.06,2.47-4.66,3.13-4.58,8.01,.08,4.88,1.13,7.52-2.16,9.29-3.3,1.77-5.2,.22-6.11,3.49-.91,3.27-4.3,3.58-6.15,2.75Z"/>
      <path class="cls-2" d="M15.53,54.79s-3.71-1.24-2.81-5.03c.9-3.79,2.43-5.62,.29-8.16-2.14-2.54-4.49-4.56-3.86-7.8,.62-3.24,2.39-4.82,.47-6.94-1.92-2.11-1.89-4.29-1.28-7.76,.61-3.47-2.86-5.92-5.75-4.45-2.89,1.48-3.33,5.73-1.5,7.87,1.82,2.13,2.41,4.34,.97,6.38-1.43,2.03-1.8,5.03,.97,7.54,2.77,2.5,2.76,3.7,1.73,7.3-1.02,3.6,2.03,6.43,4.19,8.31,2.16,1.88,1.82,6.25,6.57,2.74Z"/>
      <path class="cls-1" d="M21.75,2.73s-.41,.67-.9,1.99c-.24,.66-.5,1.5-.63,2.48-.15,1-.09,2.08,.23,3.23,.29,1.17,.6,2.46,.8,3.9,.19,1.42,.29,3.05-.06,4.67-.06,.41-.2,.79-.3,1.19-.11,.38-.22,.76-.33,1.14-.25,.77-.37,1.51-.52,2.29-.26,1.58-.34,3.23-.33,4.86,0,.82,.05,1.63,.1,2.44,.08,.81,.16,1.63,.25,2.43,.15,1.66,.2,3.32,.1,4.93-.08,1.59-.4,3.22-.88,4.53-.12,.35-.16,.63-.22,.95-.04,.33-.09,.66-.11,.99-.05,.66-.07,1.31-.08,1.94-.02,2.5-.09,4.63-.33,6.09-.12,.73-.28,1.28-.4,1.65-.14,.35-.22,.54-.22,.54,0,0,.06-.2,.18-.56,.1-.37,.21-.93,.29-1.65,.17-1.45,.09-3.53,.04-6.04,0-.63-.01-1.29,.02-1.99,0-.35,.04-.7,.08-1.07,.05-.37,.12-.79,.22-1.11,.44-1.35,.66-2.75,.74-4.3,.08-1.53,.01-3.12-.15-4.71-.09-.81-.18-1.63-.28-2.46-.06-.84-.13-1.69-.13-2.54,0-1.71,.1-3.43,.4-5.1,.17-.83,.34-1.7,.58-2.43,.11-.38,.23-.76,.34-1.13,.09-.36,.23-.71,.29-1.07,.32-1.45,.29-2.94,.15-4.31-.15-1.38-.41-2.67-.66-3.86-.12-.58-.24-1.22-.25-1.81,0-.6,.05-1.16,.15-1.68,.2-1.03,.5-1.86,.78-2.5,.28-.65,.55-1.12,.73-1.43,.19-.31,.3-.47,.3-.47Z"/>
      <path class="cls-1" d="M3.86,16.74s.24,.48,.56,1.42c.15,.47,.32,1.06,.47,1.76,.14,.7,.29,1.51,.3,2.43,.05,.46-.02,.94-.04,1.45-.02,.52-.09,.97-.15,1.49-.08,.99-.12,2.03,.03,3.05,.15,1.02,.49,2.02,.85,3.03,.38,1,.8,2.04,1.17,3.1,.73,2.17,1.33,4.39,1.67,6.61,.07,.56,.18,1.09,.18,1.66,.04,.55,.06,1.09,.01,1.64-.02,.26-.03,.57-.05,.77-.03,.26-.03,.48-.02,.68,.02,.42,.1,.84,.23,1.21,.26,.74,.63,1.37,.92,1.97,.3,.6,.52,1.16,.66,1.63,.15,.48,.23,.88,.27,1.15,.04,.27,.07,.42,.07,.42,0,0-.04-.14-.11-.4-.06-.26-.18-.63-.36-1.07-.18-.44-.43-.95-.76-1.49-.32-.55-.74-1.12-1.07-1.93-.17-.41-.28-.88-.33-1.41-.02-.28-.03-.55,0-.79,.02-.3,0-.49,.01-.75,.03-.48-.02-.98-.08-1.49-.03-.51-.14-1.03-.22-1.55-.38-2.09-.98-4.29-1.7-6.36-.36-1.05-.76-2.07-1.15-3.11-.37-1.05-.7-2.15-.85-3.31-.16-1.16-.04-2.32,.09-3.36,.16-1.03,.31-1.95,.31-2.8,.01-.87-.06-1.66-.15-2.36-.1-.7-.22-1.29-.33-1.78-.24-.97-.42-1.5-.42-1.5Z"/>
      <path class="cls-1" d="M37.42,17.22s-.38,.38-.91,1.21c-.53,.81-1.19,2.18-1.36,3.97-.04,.44-.05,.91-.01,1.38,.03,.5,.06,1.02,.09,1.55,.05,1.07,0,2.28-.17,3.46-.19,1.18-.44,2.41-.88,3.56-.39,1.17-1.01,2.28-1.68,3.2-.66,.9-1.36,1.74-1.83,2.69-.47,.96-.67,2.08-.79,3.18-.07,1.09-.02,2.29-.37,3.43-.32,1.09-.89,1.93-1.46,2.53-.57,.61-1.16,1-1.68,1.33-.52,.32-.98,.56-1.36,.76-.76,.39-1.19,.62-1.19,.62,0,0,.4-.32,1.13-.81,.72-.5,1.79-1.18,2.83-2.35,.51-.6,.97-1.37,1.2-2.32,.25-.9,.17-2.01,.22-3.23,.1-1.2,.28-2.52,.84-3.66,.55-1.14,1.27-1.99,1.91-2.89,.64-.87,1.17-1.81,1.55-2.9,.22-.52,.35-1.09,.52-1.63,.14-.55,.25-1.12,.36-1.66,.16-1.13,.27-2.18,.27-3.24,0-.53-.02-1.05-.03-1.55-.02-.53,.01-1.04,.08-1.52,.13-.97,.41-1.81,.73-2.47,.31-.67,.66-1.18,.96-1.57,.6-.78,1.02-1.07,1.02-1.07Z"/>
    </g>
  </g>
</svg>