<?xml version="1.0" encoding="UTF-8"?>
<svg id="Layer_2" data-name="Layer 2" xmlns="http://www.w3.org/2000/svg" viewBox="0 0 38.26 37.84">
  <defs>
    <style>
      .cls-1 {
        fill: #B3B3B3;
      }
    </style>
  </defs>
  <g id="PATTERN">
    <path class="cls-1" d="M37.92,9.75c2.02,3.47-5.41,8.13-9.18,8.18-.27,2.96-.27,5.97,0,8.95,.02,.04,.03,.07,.05,.11,1.21-2.86,5.22-11.73,7.59-9.07,2.71,3.05-3.9,9.23-7.55,9.87,.31,2.97,.88,5.9,1.67,8.7,.23,.08,.25,.34,.13,.48,0,0,0,0,0,0,.11,.37-.46,.53-.57,.17-.02-.06-.04-.13-.05-.2-1.31-.39-2.57-.89-3.79-1.49-.02,.04-.04,.08-.07,.11,0,0-.04-.08-.12-.21-2.85,2.47-11.47,3.97-12.29,.05-.65-3.11,6.84-1.8,10.61-.96-2.62-1.56-4.99-3.57-7.12-5.84-3.39,1.82-11.78,1.72-11.9-2.2-.1-3.22,7.25-.52,10.76,.94-1.69-1.97-3.2-4.11-4.53-6.32,0,0,0,0,0,0,0,0,0-.01,0-.03-.04-.06-.07-.12-.11-.18-3.59,1.23-12.05-.48-11.4-4.4,.54-3.3,7.73,1.2,10.72,3.23-1.11-1.97-2.08-3.98-2.9-5.97C6.48,12.07,0,4.06,3.11,2.09,6.38,.02,9.31,8.86,8.32,13.28c.85,2.07,1.85,4.18,3.02,6.24-.44-3.57-1.18-12.07,2-11.05,3.81,1.22,1.43,9.61-1.33,12.2,1.48,2.47,3.2,4.84,5.13,6.99-1.05-3.12-3.76-12.04-.3-11.63,4.03,.47,3.24,9.41,.96,12.36,2.28,2.41,4.85,4.48,7.68,6.03-1.42-2.64-4.58-8.95-3.2-10.74-1.75-1.92-2.72-4.13-1.44-5.66,1.97-2.36,5.42,3.81,7.17,7.37-.15-2.58-.11-5.18,.14-7.75-3.49-1.54-8.56-8.4-5.47-10.88,2.49-1.99,4.73,5.35,5.68,9.08,.19-1.4,.44-2.78,.76-4.14C28.76,8.67,28,0,31.39,0c3.98,0,1.51,9.54-1.81,12.49-.32,1.45-.56,2.92-.73,4.41,1.91-2.77,7.33-10.15,9.08-7.16Zm-8.11,26.53c-.77-2.82-1.32-5.75-1.62-8.72-.43-.11-.9-.28-1.38-.5,.67,2.65,.53,6.02-.33,7.91,1.07,.52,2.18,.95,3.32,1.31Z"/>
  </g>
</svg>