<?xml version="1.0" encoding="UTF-8"?>
<svg id="Layer_2" data-name="Layer 2" xmlns="http://www.w3.org/2000/svg" viewBox="0 0 49.99 47.34">
  <defs>
    <style>
      .cls-1 {
        fill: #B3B3B3;
      }

      .cls-2 {
        fill: #fff;
      }
    </style>
  </defs>
  <g id="PATTERN">
    <g>
      <g>
        <path class="cls-1" d="M20.3,47.34s-.66-3.83-3.44-6.08c-2.78-2.25-3.7-4.21-1.59-8.38,2.12-4.18,4.36-5.9,3.17-9.86-1.19-3.97-7.67-9.92,1.85-23.01,0,0-.53,7.41,3.44,11.37,3.97,3.97,5.82,6.22,3.7,10.18-2.12,3.97-6.35,7.27-3.97,10.58,2.38,3.31,4.1,10.31-3.17,15.21Z"/>
        <path class="cls-2" d="M21.23,45.42s.08-.15,.19-.43c.1-.29,.21-.72,.27-1.27,.04-.55,.03-1.23-.16-1.97-.1-.37-.17-.77-.37-1.15-.18-.4-.31-.79-.57-1.23-.44-.84-1.08-1.58-1.75-2.59-.33-.51-.62-1.18-.69-1.87-.07-.69,.03-1.35,.14-1.99,.13-.63,.3-1.26,.5-1.88,.18-.59,.4-1.23,.63-1.83,.46-1.21,.95-2.42,1.38-3.62,.44-1.2,.82-2.4,.95-3.57,.12-1.17,.02-2.29-.48-3.27-.54-1.09-1.04-2.19-1.46-3.25-.43-1.06-.75-2.1-.99-3.07-.1-.49-.2-.96-.29-1.41-.04-.46-.08-.89-.12-1.29-.07-.81,.03-1.52,.03-2.09,.19-1.15,.32-1.78,.32-1.78,0,0,0,.65,0,1.79,.08,.56,.1,1.25,.26,2.01,.08,.38,.17,.79,.26,1.21,.13,.42,.27,.85,.41,1.31,.32,.9,.72,1.86,1.2,2.85,.47,.99,1.04,2.01,1.62,3.09,.66,1.19,.9,2.69,.75,4.06-.14,1.39-.55,2.69-.98,3.95-.46,1.25-.97,2.45-1.44,3.64-.23,.6-.45,1.15-.67,1.76-.21,.57-.39,1.15-.53,1.7-.13,.55-.22,1.1-.21,1.59,.01,.49,.16,.92,.4,1.37,.52,.89,1.17,1.85,1.55,2.8,.2,.43,.35,.94,.47,1.38,.16,.44,.19,.89,.24,1.3,.1,.82,0,1.55-.13,2.12-.14,.57-.35,.99-.5,1.25-.17,.27-.27,.39-.27,.39Z"/>
      </g>
      <g>
        <path class="cls-1" d="M22.28,45.1s5.04-3.26,5-7.83c-.04-4.57-2.32-8.66,2.49-10.95,4.81-2.29,8.18-2.65,9.75-7.34,1.56-4.69,4.09-7.58,10.47-8.78,0,0-3.97,2.53-3.61,7.22,.36,4.69,1.2,6.38-3.49,9.14-4.69,2.77-8.06,2.65-8.18,6.62-.12,3.97,1.13,10.37-12.43,11.92Z"/>
        <path class="cls-2" d="M26.28,43.28s.54-.3,1.34-.96c.4-.34,.85-.78,1.29-1.33,.43-.55,.84-1.24,1.05-2.04,.23-.82,.14-1.62-.01-2.7-.12-1.04-.27-2.14-.22-3.35,.03-.6,.1-1.23,.28-1.87,.19-.64,.5-1.27,.93-1.81,.44-.55,.99-.97,1.56-1.33,.29-.15,.6-.33,.87-.45l.83-.38c1.12-.48,2.23-.92,3.26-1.43,1.02-.51,2.01-1.03,2.76-1.73,.74-.69,1.29-1.49,1.51-2.4,.26-1,.48-1.93,.7-2.82,.42-1.76,.92-3.28,1.62-4.14,.33-.45,.72-.67,.96-.82,.27-.11,.41-.16,.41-.16,0,0-.12,.08-.36,.24-.21,.19-.51,.46-.74,.92-.5,.89-.75,2.36-.98,4.14-.12,.89-.24,1.89-.44,2.91-.18,1.13-.82,2.29-1.7,3.15-.88,.88-1.95,1.54-3.04,2.09-1.09,.55-2.22,1.02-3.3,1.5l-.82,.36c-.28,.12-.49,.25-.73,.37-.44,.28-.86,.58-1.17,.96-.3,.38-.54,.81-.71,1.28-.16,.48-.25,.99-.3,1.52-.08,1.05-.04,2.13,0,3.16,.02,.51,.07,1.01,.03,1.57-.04,.54-.16,1.05-.33,1.51-.35,.93-.92,1.63-1.46,2.16-.55,.53-1.1,.9-1.56,1.18-.93,.54-1.52,.71-1.52,.71Z"/>
      </g>
      <g>
        <path class="cls-1" d="M21.48,45.29s-5.94,1.03-5.95-5.23c-.02-6.26,2.46-9.24-.59-11.25-3.05-2.02-13.46-3.98-10.85-16.68,0,0-5.3,7.41-3.84,13.61,1.46,6.2,7.25,4.93,8.77,7.51,1.52,2.59-.23,16.43,12.46,12.04Z"/>
        <path class="cls-2" d="M2.44,18.18s-.06,.5-.04,1.36c.04,.85,.16,2.09,.7,3.34,.25,.63,.65,1.22,1.1,1.79,.24,.27,.49,.55,.78,.77,.27,.25,.59,.46,.9,.68,.28,.21,.7,.42,1.05,.63,.36,.19,.72,.39,1.09,.58,.74,.4,1.51,.76,2.32,1.17,.77,.43,1.69,.92,2.39,2,.31,.54,.54,1.17,.59,1.73,.09,.57,.09,1.1,.07,1.6-.02,.95-.13,1.85-.14,2.67-.02,.41-.03,.81-.02,1.2,0,.38-.01,.77,.03,1.11,.05,.71,.16,1.34,.32,1.89,.1,.26,.17,.53,.27,.76,.11,.22,.21,.43,.3,.61,.19,.38,.39,.63,.51,.83,.12,.19,.19,.29,.19,.29,0,0-.09-.07-.25-.22-.15-.16-.43-.32-.69-.66-.13-.17-.28-.35-.45-.56-.15-.21-.28-.48-.43-.76-.28-.56-.53-1.26-.67-2.04-.16-.77-.26-1.62-.3-2.5-.07-.9-.05-1.79-.07-2.7,0-.87-.16-1.68-.48-2.2-.34-.52-1.01-.94-1.77-1.32-.75-.41-1.54-.8-2.31-1.24-.38-.21-.77-.46-1.14-.69-.37-.26-.69-.44-1.08-.75-.74-.53-1.37-1.22-1.89-1.96-.5-.75-.88-1.55-1.08-2.34-.22-.78-.3-1.51-.3-2.15-.02-.64,.06-1.18,.12-1.62,.16-.87,.35-1.31,.35-1.31Z"/>
      </g>
    </g>
  </g>
</svg>