<svg width="36" height="36" viewBox="0 0 36 36" fill="none" xmlns="http://www.w3.org/2000/svg">
<g clip-path="url(#clip0_73_2)">
<path d="M11.49 19C12.3184 19 12.99 18.3284 12.99 17.5C12.99 16.6716 12.3184 16 11.49 16C10.6616 16 9.98999 16.6716 9.98999 17.5C9.98999 18.3284 10.6616 19 11.49 19Z" fill="black"/>
<path d="M33.4799 9.29006C33.3279 9.20229 33.1554 9.15608 32.9799 9.15608C32.8044 9.15608 32.6319 9.20229 32.4799 9.29006C29.1099 11.2901 26.5699 15.1001 25.5799 16.7401L24.8499 18.0001L23.8499 19.6201C22.0899 22.1101 18.7499 25.9801 15.0599 25.9801C10.4099 25.9801 6.30989 19.8301 5.21989 18.0401C6.30989 16.2501 10.3999 10.1001 15.0599 10.1001C18.5999 10.1001 21.8299 13.6801 23.6399 16.1701L23.9199 15.6901C23.9199 15.6901 24.2799 15.1801 24.8499 14.4401C22.7199 11.6401 19.1799 8.06006 14.9999 8.06006C8.40989 8.06006 3.32989 17.1301 3.11989 17.5201L2.88989 18.0001L3.15989 18.4801C3.36989 18.8701 8.44989 27.9401 15.0399 27.9401C20.0999 27.9401 24.2599 22.6001 26.0399 19.9401C25.9999 20.0001 27.1799 18.0001 27.1799 18.0001L27.2499 17.8901C27.7905 16.9174 28.4198 15.9968 29.1299 15.1401C29.9784 14.0451 30.9367 13.0399 31.9899 12.1401V23.8801C30.6192 22.7078 29.4059 21.3634 28.3799 19.8801L28.2199 20.1401L27.2199 21.7301C28.621 23.7007 30.3901 25.3816 32.4299 26.6801C32.5813 26.7699 32.7538 26.8182 32.9299 26.8201C33.1044 26.8159 33.2755 26.7714 33.4299 26.6901C33.5825 26.602 33.7091 26.4751 33.7969 26.3223C33.8847 26.1695 33.9306 25.9963 33.9299 25.8201V10.1601C33.9358 9.98862 33.8975 9.81855 33.8187 9.66619C33.7399 9.51383 33.6232 9.3843 33.4799 9.29006Z" fill="black"/>
</g>
<defs>
<clipPath id="clip0_73_2">
<rect width="36" height="36" fill="white"/>
</clipPath>
</defs>
</svg>
