<svg width="36" height="36" viewBox="0 0 36 36" fill="none" xmlns="http://www.w3.org/2000/svg">
<g clip-path="url(#clip0_73_6)">
<path d="M24.51 19C23.6816 19 23.01 18.3284 23.01 17.5C23.01 16.6716 23.6816 16 24.51 16C25.3384 16 26.01 16.6716 26.01 17.5C26.01 18.3284 25.3384 19 24.51 19Z" fill="white"/>
<path d="M2.52011 9.29006C2.67213 9.20229 2.84457 9.15608 3.02011 9.15608C3.19564 9.15608 3.36809 9.20229 3.52011 9.29006C6.89011 11.2901 9.43011 15.1001 10.4201 16.7401L11.1501 18.0001L12.1501 19.6201C13.9101 22.1101 17.2501 25.9801 20.9401 25.9801C25.5901 25.9801 29.6901 19.8301 30.7801 18.0401C29.6901 16.2501 25.6001 10.1001 20.9401 10.1001C17.4001 10.1001 14.1701 13.6801 12.3601 16.1701L12.0801 15.6901C12.0801 15.6901 11.7201 15.1801 11.1501 14.4401C13.2801 11.6401 16.8201 8.06006 21.0001 8.06006C27.5901 8.06006 32.6701 17.1301 32.8801 17.5201L33.1101 18.0001L32.8401 18.4801C32.6301 18.8701 27.5501 27.9401 20.9601 27.9401C15.9001 27.9401 11.7401 22.6001 9.96011 19.9401C10.0001 20.0001 8.82011 18.0001 8.82011 18.0001L8.75011 17.8901C8.2095 16.9174 7.58016 15.9968 6.87011 15.1401C6.02157 14.0451 5.06325 13.0399 4.01011 12.1401V23.8801C5.38076 22.7078 6.59414 21.3634 7.62011 19.8801L7.78011 20.1401L8.78011 21.7301C7.37904 23.7007 5.60985 25.3816 3.57011 26.6801C3.41867 26.7699 3.24619 26.8182 3.07011 26.8201C2.89564 26.8159 2.7245 26.7714 2.57011 26.6901C2.4175 26.602 2.29089 26.4751 2.20309 26.3223C2.11528 26.1695 2.06941 25.9963 2.07011 25.8201V10.1601C2.0642 9.98862 2.10249 9.81855 2.1813 9.66619C2.2601 9.51383 2.37678 9.3843 2.52011 9.29006Z" fill="white"/>
</g>
<defs>
<clipPath id="clip0_73_6">
<rect width="36" height="36" fill="white" transform="matrix(-1 0 0 1 36 0)"/>
</clipPath>
</defs>
</svg>
