<svg width="133" height="323" viewBox="0 0 133 323" fill="none" xmlns="http://www.w3.org/2000/svg">
<path d="M32.5269 59.7531C32.654 60.1664 32.8448 60.5479 33.0991 60.8658H35.1975C35.0703 60.6433 34.9431 60.3889 34.8159 60.1664L34.5616 59.7531H34.4662C34.3391 59.5941 34.2437 59.4034 34.1801 59.2126C33.9893 58.545 34.1801 57.6548 34.6252 56.6056C35.6108 54.4755 38.4085 53.2356 40.6658 52.25L40.8248 52.1864H40.8566C41.6196 51.8367 42.3508 51.5188 43.1138 51.1691C45.0532 50.3107 46.9925 49.4523 48.9319 48.5939C53.2239 46.6863 57.6749 44.747 62.3484 43.507L62.5391 43.4435C62.8253 43.3799 63.1114 43.3163 63.4293 43.2845C63.4929 43.2845 63.5565 43.2845 63.6201 43.2845H63.8108C64.4785 43.1255 65.1143 42.9984 65.782 42.8712C70.9324 41.8538 76.4325 40.8683 81.7101 41.5041C82.187 41.5677 82.6957 41.6313 83.2679 41.7267C85.7478 42.1718 88.6409 42.7122 91.3751 43.4435C91.693 43.5388 92.0109 43.6024 92.297 43.6978H92.4242L92.5196 43.7296C92.8693 43.7296 93.2508 43.825 93.6959 43.8886C95.6035 44.2383 97.6064 44.9377 98.3694 45.2238C99.0689 45.4782 99.8001 45.7643 100.5 46.0187L100.659 46.0822C103.87 47.2904 107.112 48.5939 110.323 49.9927C111.436 50.4696 112.454 50.9147 113.344 51.5188C113.693 51.7413 114.011 51.9957 114.266 52.25C114.457 52.409 114.615 52.5997 114.774 52.8223C115.251 53.4581 115.601 54.1894 115.728 54.8888V54.9524C115.824 55.5247 115.792 56.0651 115.569 56.4784L115.474 56.6692V56.7964C115.156 58.2906 114.584 59.6577 113.725 60.9294H115.792C116.459 59.7531 116.936 58.4814 117.191 57.1461C117.445 56.542 117.572 55.8744 117.509 55.1431L117.636 55.016L117.445 54.5709C117.254 53.6171 116.809 52.5997 116.173 51.7731C115.951 51.487 115.728 51.2327 115.474 50.9783C115.124 50.6604 114.711 50.3425 114.298 50.0563C113.28 49.3569 112.167 48.88 110.991 48.3713C107.685 46.9724 104.378 45.6054 101.104 44.3972H100.976C100.309 44.1111 99.6094 43.8568 98.9417 43.6024C98.1151 43.3163 96.0168 42.5533 93.9503 42.2035C93.4734 42.1082 93.0601 42.0446 92.6468 42.0128C92.3606 41.9174 92.0427 41.8538 91.7566 41.7584C88.9588 40.9954 86.0339 40.4549 83.5223 40.0099C82.9182 39.9145 82.3777 39.8191 81.8691 39.7555C76.3371 39.1197 70.7098 40.1052 65.4005 41.1544C64.7646 41.2816 64.1288 41.4087 63.4929 41.5359C63.3657 41.5359 63.2704 41.5359 63.175 41.5359C62.7299 41.5677 62.3166 41.6631 61.9351 41.7584H61.6807L61.5854 41.8538C56.88 43.1255 52.4291 45.0649 48.1371 46.9724C46.1977 47.8308 44.2584 48.6892 42.319 49.5476C41.556 49.8974 40.7612 50.2153 39.9981 50.565L39.871 50.6286C37.4865 51.6778 34.2119 53.1084 32.9402 55.8744C32.2725 57.3368 32.0818 58.6403 32.3997 59.7213V59.7849L32.5269 59.7531Z" fill="#5E93BF"/>
<path d="M116.618 54.7644C116.618 55.4639 116.523 56.1315 116.364 56.831C116.014 58.7067 115.22 60.4553 113.916 62.1403C113.153 63.1259 112.231 64.1115 110.991 64.3976C109.433 64.7791 107.875 65.1288 106.413 65.8601C104.792 66.6867 103.456 67.7358 101.93 68.6896C91.6294 75.2389 78.976 76.8603 66.7676 76.8603C59.7414 76.8603 52.7152 76.3516 45.7527 75.3661C45.0532 75.2707 44.0359 75.3025 43.4 75.0164C42.8913 74.7938 42.478 74.1897 42.0647 73.7764C41.1745 72.7909 40.3161 71.7735 39.5531 70.6926C37.9635 68.5307 36.6282 66.2098 35.5472 63.7936C35.0703 62.7444 34.657 61.6635 34.053 60.6779C34.053 60.6779 34.053 60.6779 34.053 60.6461C33.8304 60.2646 33.5761 59.9149 33.3535 59.5333C33.0992 58.7067 33.2264 57.6576 33.8622 56.2905C35.0067 53.8107 38.1224 52.4754 40.4433 51.4262C41.2063 51.0765 41.9693 50.7586 42.7641 50.4089C44.7035 49.5505 46.6429 48.6921 48.5822 47.8337C53.0014 45.8943 57.4524 43.9232 62.1259 42.715C62.5392 42.6515 62.9207 42.6197 63.334 42.5243C63.3976 42.5243 63.4294 42.5243 63.4929 42.5243C63.5565 42.5243 63.5883 42.5243 63.6519 42.4925C64.3196 42.3653 64.9872 42.2064 65.6548 42.0792C70.9324 41.03 76.4961 40.0762 81.8373 40.6803C82.3778 40.7439 82.9183 40.8075 83.4587 40.9029C86.1929 41.3797 88.9271 41.9202 91.6294 42.6197C91.9474 42.715 92.2653 42.7786 92.5832 42.874C93.0283 43.0012 93.4416 43.1283 93.8549 43.2555C95.222 43.7006 96.5573 44.3683 97.9562 44.7498C98.8782 45.0041 99.8637 45.1313 100.849 45.1949C104.156 46.4348 107.462 47.7701 110.705 49.1689C111.786 49.6458 112.899 50.1227 113.852 50.7904C114.234 51.0447 114.584 51.2991 114.902 51.617C115.124 51.8077 115.315 52.0303 115.506 52.2846C116.046 53.0159 116.491 53.906 116.618 54.7962V54.7644Z" fill="white"/>
<path d="M23.0527 132.086C18.5063 153.324 12.9744 174.402 7.98298 195.544C7.85581 196.053 7.72864 196.594 7.8876 197.102C8.07835 197.675 8.55524 198.088 9.06393 198.438C22.8937 208.802 41.8421 210.487 58.5333 211.155C70.3601 211.632 82.187 211.345 93.9821 210.392C105.3 209.47 116.173 207.562 127.174 205.273C127.396 202.475 126.951 199.678 126.538 196.88C123.454 177.073 121.673 157.139 118.208 137.269C116.046 124.933 113.852 112.598 112.199 100.167C110.673 88.7212 111.436 77.3077 110.037 65.8941C109.243 59.5038 106.127 52.6684 100.054 50.5383C97.9562 49.807 95.6671 49.7117 93.4416 49.5845C84.4443 49.203 75.4152 48.8215 66.4179 48.4082C59.2009 48.0902 51.5707 47.8677 45.2122 51.3331C39.6802 54.3534 35.8651 59.8535 33.6078 65.7351C31.3824 71.6168 30.5558 77.9117 29.7609 84.1749C28.7436 92.2502 27.0268 100.548 27.1221 108.655C27.2175 116.317 24.6741 124.52 23.0527 131.991V132.086Z" fill="#F985A6"/>
<path d="M80.1841 184.033C80.1523 186.481 80.2477 188.961 80.3431 191.441C81.2015 211.788 82.0599 232.135 82.9183 252.483C82.9818 253.85 83.0454 255.28 83.8085 256.425C85.716 259.254 92.774 257.538 95.5399 257.379C100.15 257.124 104.346 257.347 104.792 251.879C106.922 226.826 108.034 201.805 109.592 176.721C109.719 174.845 109.815 172.874 109.115 171.125C108.193 168.9 106.063 167.374 103.774 166.643C101.485 165.911 99.0371 165.911 96.6527 166.038C93.1873 166.197 89.6583 166.611 86.5426 168.105C79.8344 171.348 80.3113 177.579 80.1841 184.065V184.033Z" fill="#EAF4F4"/>
<path d="M81.7101 256.901C81.9963 261.86 82.346 266.82 82.7911 271.716C83.4587 278.838 84.19 285.959 84.953 293.049C85.6842 299.916 86.2247 306.91 87.2421 313.746C87.719 316.989 88.1323 317.052 90.5167 316.83C92.6786 316.639 96.6527 317.211 98.6238 316.321C100.976 315.24 100.436 311.711 100.595 309.422C101.072 302.3 101.581 295.179 102.185 288.057C103.361 274.037 104.887 260.08 107.271 246.218C99.9909 244.374 89.8491 246.504 82.5367 247.871C82.1234 247.935 81.6783 248.062 81.4876 248.38C81.3286 248.634 81.3286 248.952 81.3604 249.27C81.4876 251.814 81.6148 254.357 81.7737 256.901H81.7101Z" fill="#1B282D"/>
<path d="M90.7393 322.965C90.8029 322.488 90.7393 321.979 90.6757 321.47C91.6295 321.216 92.6786 321.47 93.6006 321.915C94.2365 322.233 94.8405 322.615 95.4446 322.965H109.37C111.436 322.965 113.407 323.092 115.315 322.043C116.809 321.216 117.763 320.421 116.714 318.8C116.46 318.418 116.046 318.196 115.665 318.005C113.376 316.892 110.864 316.288 108.448 315.462C106.032 314.635 103.615 313.554 101.867 311.71C100.659 310.438 100.023 308.976 98.4967 307.99C97.1614 307.132 95.54 306.655 93.9503 306.719C93.3463 306.719 92.7422 306.814 92.1382 306.973C88.6092 307.863 86.0976 310.343 84.8894 313.713C84.2854 315.366 83.9993 317.083 83.8403 318.832C83.7767 319.722 83.7449 320.612 83.7131 321.502C83.7131 321.884 83.6495 322.456 83.6177 322.996H90.7393V322.965Z" fill="#1B282D"/>
<path d="M47.4695 181.488C44.7671 204.919 43.1139 228.7 42.3826 252.29C42.3826 253.212 42.3826 254.23 42.9549 254.897C43.5908 255.628 44.6399 255.756 45.5619 255.851C48.3279 256.105 51.1256 256.36 53.8916 256.614C56.4032 256.837 58.9784 257.059 61.331 256.169C66.7358 254.071 65.8456 245.963 66.704 241.29C67.9121 234.677 69.6925 228.191 71.0914 221.61C73.5712 209.911 76.369 198.275 79.9297 186.829C81.1697 182.791 82.5367 178.499 81.265 174.462C80.1205 170.837 77.0366 168.167 73.6984 166.355C69.4382 164.066 64.4467 162.889 59.7096 163.811C55.9263 164.543 51.3164 167.118 49.5678 170.678C48.5504 172.777 48.2007 175.098 47.9145 177.419C47.7238 178.754 47.5648 180.121 47.4059 181.456L47.4695 181.488Z" fill="#EAF4F4"/>
<path d="M40.9202 255.725C40.6977 260.685 40.5069 265.644 40.4433 270.572C40.3479 277.726 40.3479 284.879 40.3797 292.032C40.3797 298.931 40.189 305.926 40.4751 312.825C40.6023 316.099 41.0156 316.227 43.4 316.258C45.5619 316.258 49.4724 317.276 51.5072 316.608C53.9552 315.781 53.7962 312.189 54.1777 309.932C55.3859 302.905 56.6576 295.879 57.9929 288.853C60.6316 275.055 63.6202 261.289 67.4353 247.777C60.3773 245.17 50.0765 246.251 42.6688 246.823C42.2555 246.823 41.8104 246.919 41.5561 247.237C41.3653 247.491 41.3335 247.809 41.3335 248.095C41.2063 250.638 41.0474 253.182 40.952 255.725H40.9202Z" fill="#1B282D"/>
<path d="M43.8451 322.965C43.9087 322.488 43.8451 321.979 43.7497 321.47C44.7035 321.216 45.7527 321.47 46.6747 321.915C47.3105 322.233 47.9146 322.615 48.5186 322.965H62.4756C64.5421 322.965 66.5133 323.092 68.4208 322.043C69.9151 321.216 70.8689 320.421 69.8197 318.8C69.5654 318.418 69.1521 318.196 68.7706 318.005C66.4815 316.892 63.9699 316.288 61.5536 315.462C59.1374 314.635 56.7211 313.554 54.9725 311.71C53.7644 310.438 53.1286 308.976 51.6025 307.99C50.2672 307.132 48.6458 306.655 47.0562 306.719C46.4521 306.719 45.8481 306.814 45.244 306.973C41.715 307.863 39.2034 310.343 37.9953 313.713C37.3912 315.366 37.1051 317.083 36.9461 318.832C36.8825 319.722 36.8507 320.612 36.8189 321.502C36.8189 321.884 36.7554 322.456 36.7236 322.996H43.8451V322.965Z" fill="#1B282D"/>
<path d="M51.221 131.511C47.5649 148.488 45.0214 165.72 43.6544 183.047C43.6544 183.079 43.6544 183.11 43.6544 183.174H110.832C110.832 183.174 110.832 183.142 110.832 183.11C110.133 172.047 109.179 161.014 107.971 150.014C107.367 144.546 106.985 138.919 105.968 133.514C105.11 128.777 106.413 124.548 107.399 119.907C108.511 114.756 109.465 109.574 110.228 104.328C111.754 93.9002 112.485 83.3451 111.977 72.8217C111.722 67.6395 111.881 60.9631 110.228 56.0034C109.02 52.379 103.933 51.2027 100.659 50.2171C90.9936 47.2922 80.9471 45.7662 70.8371 45.7344C68.6752 45.7344 66.4815 45.798 64.3832 46.3066C62.2213 46.8471 60.1865 47.8327 58.1836 48.8183C54.591 50.5986 48.4233 52.2519 45.8163 55.3675C43.0503 58.6422 45.3394 62.9024 45.6573 66.5268C46.1978 72.2176 46.7065 77.9403 47.2469 83.6312C48.2961 94.8222 49.3135 106.013 50.3626 117.204C50.7759 121.846 51.221 126.456 51.6343 131.098C51.4118 131.193 51.2528 131.352 51.221 131.575V131.511Z" fill="#9ADDED"/>
<path d="M90.6756 134.279C90.5484 118.733 90.008 103.154 88.6091 87.6711C87.8461 78.9599 86.7969 70.2805 85.4298 61.6329C85.3662 61.315 84.5078 61.3468 84.5396 61.6329C86.9877 77.0524 88.3865 92.6625 89.086 108.241C89.8172 123.788 89.8808 139.366 89.7218 154.944C89.6264 163.719 89.4675 172.462 89.3085 181.237C89.3085 181.555 90.1669 181.555 90.1987 181.237C90.4848 165.595 90.771 149.921 90.6438 134.279H90.6756Z" fill="#5E93BF"/>
<path d="M104.156 53.2727C103.87 53.9721 103.456 54.4808 103.075 54.8305C103.011 54.4808 102.82 54.1947 102.566 54.0357C102.312 53.8767 101.994 53.8132 101.644 53.845C101.771 53.4317 101.962 52.9866 102.153 52.4779L101.231 52.0964C100.945 52.764 100.722 53.4317 100.531 54.0675C99.8956 54.2901 99.2279 54.6716 98.4649 55.1802C97.7019 55.6889 97.0342 56.2612 96.5573 56.8335C96.1758 56.8335 95.7625 56.897 95.3174 56.9924C95.0949 57.056 94.8723 57.1196 94.6498 57.1832C94.4272 57.2468 94.1729 57.3421 93.9503 57.4375C93.4734 57.6283 93.0601 57.8508 92.6786 58.0734C92.2971 58.3277 91.9474 58.5503 91.693 58.8046C91.3115 58.7728 90.8982 58.8046 90.4531 58.8046C90.008 58.8364 89.5311 58.9636 89.0543 59.0589C88.5774 59.1861 88.1005 59.3451 87.6872 59.5358C87.2739 59.7266 86.9242 59.9173 86.6062 60.1399C86.2247 60.0445 85.8114 60.0127 85.3663 59.9809C84.9212 59.9809 84.4443 59.9809 83.9356 60.0445C83.427 60.1081 82.9501 60.2035 82.5368 60.3307C82.0917 60.4578 81.7102 60.6168 81.3922 60.7758C81.0425 60.6486 80.6292 60.5214 80.1841 60.4578C79.739 60.3942 79.2621 60.3307 78.7534 60.3307C78.2448 60.3307 77.7679 60.3307 77.3546 60.426C76.9095 60.4896 76.528 60.585 76.1782 60.7122C75.5106 60.3307 74.6522 60.0445 73.6666 59.8856C72.681 59.7266 71.7591 59.7266 71.0278 59.8538C70.7417 59.6312 70.392 59.4087 69.9787 59.1861C69.7879 59.0907 69.5654 58.9954 69.3428 58.9C69.1203 58.8046 68.8977 58.7092 68.6434 58.6456C68.1665 58.4867 67.6896 58.3595 67.2763 58.2959C66.8312 58.2323 66.4179 58.2005 66.0364 58.2005C65.782 57.9144 65.4641 57.6601 65.1144 57.4057C64.7647 57.1514 64.3514 56.897 63.9063 56.6745C63.4612 56.452 63.0161 56.2612 62.6028 56.1022C62.1895 55.9433 61.7762 55.8797 61.3947 55.8161C61.2039 55.4982 60.9178 55.1802 60.5998 54.8623C60.2819 54.5444 59.9322 54.2265 59.5189 53.9403C59.1374 53.6224 58.7241 53.3999 58.3426 53.1773C57.9611 52.9548 57.5795 52.7958 57.2298 52.7004C57.0709 52.3507 56.8801 52.001 56.6258 51.6513C56.3714 51.3015 56.0853 50.92 55.7356 50.5703L55.0043 51.238C55.4494 51.7149 55.7674 52.1599 56.0217 52.5733C55.672 52.605 55.3859 52.7322 55.1633 52.9548C54.9408 53.1773 54.8136 53.4952 54.8136 53.845C54.3685 53.6224 53.9234 53.2409 53.4465 52.7322L52.7153 53.3999C53.1286 53.8132 53.5101 54.1947 53.9234 54.4808C54.3367 54.7669 54.75 54.9577 55.1315 55.1167C55.3223 55.4982 55.5766 55.8479 55.8945 56.2294C56.2125 56.6109 56.6258 56.9606 57.0709 57.3104C57.516 57.6601 57.9928 57.9144 58.4379 58.137C58.883 58.3595 59.3281 58.4549 59.7414 58.5503C59.964 58.9 60.2819 59.2179 60.6634 59.5358C61.0449 59.8538 61.49 60.1399 61.9987 60.426C62.5074 60.7122 63.0161 60.8711 63.493 60.9983C63.9699 61.1255 64.415 61.1891 64.8283 61.1891C65.1144 61.4752 65.4641 61.7613 65.9092 62.0157C66.3225 62.27 66.8312 62.4926 67.3717 62.6833C67.626 62.7787 67.9122 62.8423 68.1665 62.9059C68.4208 62.9694 68.6752 63.0012 68.9295 63.033C69.4064 63.0966 69.8833 63.0966 70.2648 63.033C70.9325 63.5099 71.8544 63.9232 72.999 64.114C74.1117 64.3047 75.1291 64.2094 75.9239 63.9868C76.2736 64.1776 76.7187 64.3365 77.1956 64.4319C77.6725 64.5273 78.213 64.5909 78.7534 64.6227C79.3257 64.6227 79.8662 64.5909 80.3431 64.4955C80.82 64.4001 81.2651 64.2411 81.6148 64.0822C81.9963 64.2094 82.4414 64.3047 82.9183 64.3365C83.3952 64.4001 83.9356 64.3365 84.5079 64.3047C85.0802 64.2411 85.5889 64.114 86.034 63.955C86.5108 63.7961 86.8924 63.5735 87.2421 63.351C87.6554 63.4463 88.1005 63.4463 88.5774 63.4463C89.0543 63.4463 89.5947 63.351 90.1352 63.192C90.6757 63.0648 91.1844 62.8423 91.5977 62.6197C92.0428 62.3972 92.4243 62.1428 92.7104 61.8885C93.1237 61.8885 93.5688 61.8885 94.0457 61.7931C94.5226 61.6977 95.0313 61.5706 95.5717 61.348C95.8261 61.2526 96.0804 61.1255 96.303 60.9983C96.5255 60.8711 96.7481 60.744 96.9388 60.585C97.3521 60.2989 97.7019 60.0127 97.9562 59.6948C98.7828 59.6312 99.7684 59.3133 100.786 58.6456C101.803 57.978 102.534 57.056 102.884 56.2294C103.679 55.8479 104.569 54.9577 105.11 53.6542L104.188 53.2727H104.156ZM55.8627 54.2583C55.7992 54.0039 55.8627 53.845 55.9263 53.7496C56.0217 53.6542 56.1807 53.6224 56.435 53.6542C56.4668 53.9085 56.4668 54.0675 56.3714 54.1629C56.276 54.2583 56.1171 54.3218 55.8627 54.2901V54.2583ZM59.3599 56.452C59.1692 56.7063 59.1056 57.0242 59.1692 57.3739C58.7241 57.1832 58.1836 56.9288 57.6431 56.5155C57.1027 56.1022 56.6894 55.6889 56.4032 55.2756C56.7529 55.212 57.0391 55.0849 57.2298 54.8305C57.4206 54.5762 57.516 54.29 57.516 53.9403C57.9293 54.1629 58.4379 54.4172 58.9466 54.7987C59.4553 55.1802 59.8686 55.5618 60.1865 55.9115C59.8686 56.0069 59.5825 56.1658 59.4235 56.4202L59.3599 56.452ZM60.7906 57.3739C60.7906 57.3739 60.5681 57.5647 60.3137 57.5647C60.2183 57.3421 60.2183 57.1514 60.3137 57.056C60.3773 56.9606 60.5363 56.8653 60.7906 56.8653C60.886 57.0878 60.886 57.2786 60.7906 57.3739ZM64.1288 59.1543C64.0017 59.4405 63.9699 59.7584 64.097 60.1081C63.6201 60.0127 63.0479 59.8538 62.4438 59.5358C62.1577 59.3769 61.8715 59.2179 61.6172 59.0589C61.3947 58.8682 61.1721 58.7092 61.0132 58.5185C61.3629 58.4231 61.6172 58.2323 61.7444 57.9462C61.9033 57.6601 61.9351 57.3421 61.8715 57.0242C62.0941 57.0878 62.3484 57.1832 62.6028 57.2786C62.8571 57.3739 63.1433 57.5011 63.4294 57.6601C64.0017 57.978 64.4785 58.2641 64.8283 58.5821C64.5103 58.741 64.2878 58.9318 64.1606 59.2179L64.1288 59.1543ZM65.6867 59.8538C65.6867 59.8538 65.4959 60.0763 65.2416 60.1399C65.1144 59.9173 65.0826 59.7584 65.1144 59.6312C65.178 59.504 65.337 59.4087 65.5595 59.3451C65.6867 59.5676 65.7185 59.7266 65.6867 59.8538ZM69.2474 61.0937C69.1521 61.4116 69.2157 61.6977 69.3428 62.0157C69.0885 62.0157 68.8341 62.0157 68.548 61.9521C68.2619 61.8885 67.9439 61.8249 67.626 61.6977C66.9902 61.507 66.4497 61.1891 66.0364 60.9347C66.3543 60.7758 66.5769 60.5532 66.6722 60.2353C66.7676 59.9491 66.7676 59.6312 66.6722 59.3133C67.1491 59.3451 67.6896 59.504 68.2937 59.663C68.6116 59.7584 68.8659 59.8856 69.1203 59.9809C69.3746 60.0763 69.5972 60.2035 69.8197 60.3307C69.5336 60.5214 69.3428 60.7757 69.2474 61.0619V61.0937ZM70.9007 61.5388C70.9007 61.5388 70.7417 61.7931 70.5192 61.8885C70.3602 61.6977 70.2966 61.5388 70.3284 61.4116C70.3602 61.2844 70.4874 61.1573 70.7099 61.0619C70.8689 61.2526 70.9325 61.4116 70.9007 61.5388ZM74.8747 63.1284C74.3978 63.192 73.7938 63.192 73.1261 63.0966C72.4585 63.0012 71.8862 62.7787 71.4411 62.5879C71.7273 62.3654 71.918 62.111 71.9816 61.7931C72.0452 61.4752 71.9816 61.1573 71.8226 60.8711C72.2995 60.8393 72.84 60.8711 73.4759 60.9665C74.1117 61.0619 74.6522 61.2208 75.0973 61.4116C74.843 61.6342 74.684 61.9203 74.6522 62.2382C74.6204 62.5561 74.7158 62.8423 74.9065 63.1284H74.8747ZM75.9875 62.7787C75.7967 62.6197 75.7013 62.4608 75.7331 62.3336C75.7331 62.2064 75.8603 62.0792 76.0829 61.9521C76.2736 62.111 76.369 62.27 76.3372 62.3972C76.3372 62.5243 76.21 62.6515 75.9875 62.7787ZM78.7534 63.5735C78.0858 63.5735 77.5135 63.4463 77.0366 63.3192C77.291 63.0648 77.4182 62.7787 77.4499 62.4608C77.4499 62.1428 77.3546 61.8567 77.132 61.5706C77.5771 61.4752 78.1494 61.4116 78.7534 61.4434C79.3893 61.4434 79.9616 61.5388 80.4067 61.6342C80.1841 61.9203 80.0569 62.2064 80.0887 62.5243C80.0887 62.8423 80.2159 63.1284 80.4702 63.3827C79.9934 63.5417 79.4211 63.6053 78.7217 63.6053L78.7534 63.5735ZM81.5194 62.8741C81.3286 62.7469 81.2015 62.5879 81.2015 62.4608C81.2015 62.3336 81.2969 62.1746 81.4876 62.0157C81.6784 62.1428 81.8055 62.27 81.8055 62.429C81.8055 62.5561 81.7102 62.7151 81.5194 62.8741ZM84.349 63.2556C83.6813 63.3192 83.0772 63.3192 82.6004 63.2556C82.8229 62.9694 82.9183 62.6833 82.8865 62.3654C82.8865 62.0475 82.6957 61.7613 82.4732 61.5388C82.9183 61.3798 83.4588 61.2208 84.0946 61.1573C84.7305 61.0619 85.3027 61.0619 85.7796 61.1255C85.5889 61.4116 85.5253 61.7295 85.5889 62.0475C85.6524 62.3654 85.8114 62.6197 86.0975 62.8423C85.6524 63.033 85.0802 63.2238 84.4125 63.2874L84.349 63.2556ZM86.9877 62.1746C86.7652 62.0792 86.638 61.9521 86.6062 61.8249C86.5744 61.6977 86.6698 61.5388 86.8288 61.348C87.0513 61.4434 87.1785 61.5706 87.2103 61.6977C87.2103 61.8249 87.1467 61.9839 86.9877 62.1746ZM89.8491 62.1746C89.5311 62.27 89.2132 62.3336 88.9271 62.3654C88.641 62.3654 88.3548 62.3972 88.1323 62.3654C88.2912 62.0475 88.3548 61.7295 88.2912 61.4434C88.2277 61.1573 88.0369 60.8711 87.7508 60.6804C87.9733 60.585 88.1959 60.4578 88.4502 60.3624C88.7045 60.2671 88.9907 60.1717 89.3086 60.0763C89.9445 59.9173 90.4849 59.822 90.9618 59.822C90.8346 60.1399 90.8029 60.4578 90.8664 60.744C90.93 61.0301 91.1526 61.2844 91.4705 61.4752C91.0572 61.7295 90.5167 61.9839 89.8491 62.1428V62.1746ZM92.3289 60.744C92.1064 60.6804 91.9474 60.5532 91.9156 60.426C91.8838 60.2989 91.9156 60.1399 92.0746 59.9174C92.2971 59.9809 92.4561 60.1081 92.4879 60.2353C92.5197 60.3624 92.4879 60.5214 92.3289 60.744ZM96.0169 59.9809C95.7625 60.1399 95.4764 60.2671 95.1584 60.3942C94.5226 60.6486 93.9503 60.7757 93.4734 60.8393C93.6006 60.5214 93.6324 60.2035 93.5052 59.8856C93.3781 59.5676 93.1873 59.3451 92.8694 59.1861C93.2509 58.9 93.7596 58.6456 94.3318 58.3913C94.618 58.2641 94.9041 58.1688 95.1902 58.1052C95.4446 58.0098 95.6989 57.978 95.9533 57.9144C95.8579 58.2323 95.8579 58.5503 95.9851 58.8682C96.1122 59.1543 96.3348 59.3769 96.6845 59.504C96.4937 59.663 96.2712 59.822 96.0169 59.9809ZM97.4475 58.6774C97.1932 58.6456 97.0342 58.5503 97.0024 58.4231C96.9388 58.2959 97.0024 58.137 97.0978 57.9144C97.3203 57.9462 97.4793 58.0416 97.5429 58.1688C97.6065 58.2959 97.5747 58.4549 97.4475 58.6774ZM100.245 57.819C99.673 58.2005 99.1007 58.4549 98.6238 58.5821C98.7192 58.2323 98.6874 57.9144 98.5285 57.6283C98.3695 57.3421 98.1152 57.1514 97.7972 57.0242C98.1152 56.7063 98.5603 56.3566 99.0689 56.0069C99.5776 55.6571 100.023 55.4028 100.436 55.212C100.436 55.53 100.531 55.8479 100.754 56.1022C100.945 56.3566 101.231 56.4837 101.612 56.5155C101.326 56.9288 100.881 57.4057 100.277 57.7872L100.245 57.819ZM102.057 55.4346C101.803 55.4982 101.644 55.4346 101.549 55.371C101.453 55.2756 101.422 55.1167 101.453 54.8623C101.676 54.8305 101.867 54.8623 101.962 54.9259C102.057 55.0213 102.121 55.1802 102.089 55.4346H102.057Z" fill="white"/>
<path d="M131.402 154.625C131.37 153.989 131.307 153.321 131.275 152.686C131.275 152.495 131.275 152.113 131.275 151.7C131.338 149.856 131.338 148.489 130.766 147.789C129.749 146.518 127.682 147.026 126.57 147.313H126.442V147.344C126.315 147.376 126.156 147.408 126.029 147.472V149.284C126.315 149.188 126.601 149.125 126.887 149.061H127.015C128.731 148.616 129.272 148.711 129.431 148.87C129.653 149.252 129.59 150.937 129.558 151.636C129.558 152.081 129.558 152.463 129.558 152.749C129.59 153.417 129.622 154.053 129.685 154.72C129.812 156.819 129.94 158.79 129.781 160.824C129.781 161.047 129.749 161.27 129.685 161.429C129.622 161.556 129.367 161.651 128.954 161.746C128.89 161.746 128.827 161.778 128.731 161.81L126.093 162.605V164.449L129.24 163.527C129.24 163.527 129.367 163.495 129.431 163.463C130.003 163.304 130.862 163.05 131.275 162.16C131.466 161.746 131.497 161.365 131.529 160.983C131.72 158.822 131.593 156.691 131.466 154.625H131.402Z" fill="#5E93BF"/>
<path d="M117.954 168.773C117.954 169.027 117.89 169.313 117.89 169.568C117.795 170.458 117.636 171.348 117.731 172.238C117.827 173.001 118.113 173.733 118.335 174.464C118.78 175.863 119.035 177.357 119.066 178.819C119.066 179.487 119.066 180.186 119.384 180.791C119.639 181.267 120.084 181.649 120.656 181.554C121.355 181.458 121.928 181.267 122.691 181.331C124.535 181.458 126.379 181.331 128.191 180.981C129.018 180.822 129.685 180.568 130.321 180.027C130.83 179.582 131.02 178.883 131.179 178.215C131.434 177.262 131.72 176.276 132.038 175.354C132.324 174.559 132.833 173.733 132.96 172.906C133.087 171.984 132.896 171.03 132.61 170.14C132.197 168.932 131.529 167.819 130.989 166.643C130.639 165.88 130.321 165.117 130.067 164.322C129.844 163.622 129.749 162.828 129.494 162.16C128.986 160.888 128.35 159.648 127.555 158.536C127.078 157.868 126.506 157.2 125.711 156.914C125.107 156.692 124.471 156.723 123.835 156.787C122.786 156.914 121.737 157.2 120.751 157.645C119.829 158.059 118.939 158.599 118.431 159.489C117.89 160.443 117.922 161.62 117.985 162.732C118.081 164.735 118.144 166.77 117.985 168.773H117.954Z" fill="#FFA87D"/>
<path d="M122.278 103.533C122.278 103.533 122.373 103.278 122.405 103.151C123.136 101.244 124.026 99.5903 124.439 97.5238C125.361 93.0093 125.075 88.3675 124.249 83.853C123.072 77.3355 120.497 71.1995 118.176 65.0317C117.032 61.9479 116.459 58.9276 113.884 56.6703C112.167 55.1442 109.401 54.572 107.558 55.9391C106.19 56.9564 105.65 58.705 105.205 60.3582C100.341 77.6852 97.7654 95.1076 99.514 113.166C99.8637 116.727 100.5 120.224 101.135 123.721C101.771 127.186 103.583 130.079 105.173 133.195C106.699 136.215 107.812 139.427 108.925 142.606C111.086 148.805 113.248 154.973 115.442 161.173C115.76 162.126 116.078 164.193 117 164.606C117.922 165.02 120.561 164.098 121.578 163.939C123.072 163.716 130.257 163.43 129.844 161.491C126.856 147.406 124.026 133.291 120.561 119.334C119.798 116.218 120.02 113.134 120.751 110.018C121.228 107.952 121.578 105.536 122.309 103.501L122.278 103.533Z" fill="#9ADDED"/>
<path d="M126.697 148.234C127.587 148.012 129.463 147.503 130.13 148.361C130.671 149.061 130.385 151.827 130.416 152.749C130.544 155.515 130.83 158.185 130.607 160.951C130.607 161.269 130.544 161.555 130.416 161.842C130.162 162.414 129.494 162.541 128.922 162.7C128.255 162.891 127.587 163.081 126.919 163.304C123.931 164.194 120.942 165.053 117.954 165.943C117.699 166.006 117.445 166.102 117.191 166.07C116.618 166.006 116.269 165.434 116.046 164.925C115.76 164.29 115.474 163.686 115.156 163.081C114.425 161.746 113.694 160.443 112.899 159.171C112.167 157.963 111.436 156.787 110.673 155.642C109.878 154.434 109.878 154.021 111.118 153.321C112.422 152.59 113.916 152.081 115.315 151.604C117 151.032 118.717 150.555 120.434 150.046L123.708 149.124C124.408 148.934 125.552 148.52 126.697 148.234Z" fill="white"/>
<path d="M124.439 170.327C124.439 170.327 124.249 170.2 124.121 170.2C124.121 170.168 124.121 170.105 124.185 170.073C124.28 169.787 123.549 169.723 123.454 169.978C122.723 171.917 122.786 173.984 122.627 175.987C122.564 176.972 122.405 177.958 122.087 178.911C121.769 179.77 121.324 180.692 120.529 181.2C120.179 181.423 120.847 181.614 121.069 181.487C121.769 181.01 122.277 180.342 122.627 179.579C122.627 179.579 122.627 179.579 122.659 179.579C124.28 178.816 126.029 177.958 127.015 176.368C127.11 176.336 127.174 176.273 127.174 176.209C127.396 173.888 125.679 172.14 124.471 170.359L124.439 170.327ZM126.315 176.177C125.52 177.481 124.217 178.276 122.85 178.911C123.136 178.085 123.263 177.226 123.327 176.4C123.517 174.524 123.422 172.585 123.931 170.741C125.075 172.33 126.569 173.984 126.379 176.082C126.347 176.082 126.283 176.114 126.283 176.177H126.315Z" fill="#E26E61"/>
<path d="M130.353 175.48C129.876 176.465 129.367 177.419 128.827 178.341C128.35 179.2 127.841 180.058 127.046 180.662C126.919 180.757 127.078 180.885 127.174 180.916C127.333 180.98 127.555 180.948 127.682 180.853C128.477 180.249 128.986 179.359 129.495 178.532C130.067 177.578 130.575 176.593 131.084 175.575C131.211 175.321 130.48 175.257 130.353 175.48Z" fill="#E26E61"/>
<path d="M118.24 75.9663C117.445 72.4691 116.491 69.0673 114.902 65.6973C114.584 79.2727 114.361 92.7528 114.965 106.36C115.029 107.441 115.092 108.586 115.665 109.476C118.049 105.502 118.59 100.733 119.543 96.2818C120.052 93.9291 120.561 91.5129 120.592 89.0967C120.592 86.5214 120.02 84.0098 119.48 81.4982C119.066 79.6224 118.685 77.7785 118.272 75.9663H118.24Z" fill="#5E93BF"/>
<path d="M71.6636 136.63C66.3542 136.63 61.0449 136.503 55.7355 136.28C54.4002 136.217 53.0649 136.153 51.6978 136.089C51.1256 136.058 50.4261 135.899 49.8539 135.994C49.6313 136.026 49.1226 136.375 48.9001 136.344C48.1053 136.153 49.218 131.225 49.2498 130.271C49.2498 129.89 49.2816 129.476 49.4724 129.127C50.0764 127.95 52.4927 128.586 53.51 128.65C55.195 128.745 56.9118 128.809 58.5968 128.872C61.9351 129 65.2415 129.063 68.5797 129.095C75.3198 129.159 82.028 129.031 88.7681 128.682C93.0283 128.459 97.2885 128.173 101.549 127.823C102.598 127.728 103.647 127.569 104.696 127.537C105.618 127.537 105.745 127.537 105.872 128.491C106.159 130.589 106.254 132.846 106.222 134.945C103.742 135.581 100.659 135.453 98.0515 135.644C95.0948 135.867 92.1381 136.058 89.1814 136.185C83.3315 136.471 77.4499 136.63 71.6 136.63H71.6636Z" fill="#B25E4D"/>
<path d="M84.0628 137.872C82.6639 137.872 81.5194 136.791 81.424 135.392L81.1378 130.655C81.0425 129.192 82.1552 127.952 83.6177 127.857L95.3809 127.189C96.8434 127.094 98.0833 128.207 98.1787 129.669L98.4648 134.406C98.5602 135.869 97.4475 137.109 95.985 137.204L84.2217 137.872C84.2217 137.872 84.1264 137.872 84.0628 137.872ZM95.5399 129.16C95.5399 129.16 95.5399 129.16 95.5081 129.16L83.7448 129.828C83.3951 129.828 83.1408 130.146 83.1408 130.496L83.4269 135.233C83.4269 135.583 83.7448 135.837 84.0946 135.837L95.8578 135.169C96.2076 135.169 96.4619 134.851 96.4619 134.502L96.1758 129.765C96.1758 129.415 95.8896 129.16 95.5399 129.16Z" fill="#FAE25A"/>
<path d="M86.3836 131.959L83.3951 132.182C83.3951 132.182 82.9818 132.372 83.0136 133.04C83.0772 133.708 83.3951 133.835 83.5223 133.835L86.5108 133.612C86.5108 133.612 86.9241 133.421 86.8923 132.754C86.8287 132.086 86.5108 131.959 86.3836 131.959Z" fill="#FAE25A"/>
<path d="M102.852 131.831C102.852 131.831 102.852 131.831 102.852 131.799C102.852 131.703 102.852 131.576 102.757 131.481C102.661 131.322 102.471 131.227 102.28 131.227C102.057 131.227 101.867 131.227 101.676 131.354C101.676 131.354 101.549 131.417 101.517 131.481C101.453 131.544 101.422 131.608 101.39 131.703C101.39 131.703 101.39 131.703 101.39 131.735C101.39 131.799 101.358 131.894 101.39 131.958C101.39 132.053 101.422 132.18 101.485 132.276C101.58 132.403 101.708 132.498 101.867 132.53C102.057 132.594 102.312 132.594 102.502 132.53C102.661 132.466 102.789 132.403 102.852 132.244C102.884 132.117 102.916 132.021 102.884 131.894L102.852 131.831Z" fill="#FAE25A"/>
<path d="M80.3749 26.0562C79.4211 26.7557 78.4355 27.3915 77.4181 27.9638C74.0163 29.9031 70.1376 31.1748 66.2271 31.0477C64.9872 31.0477 63.7155 30.8251 62.6981 30.1575C61.3311 29.2355 60.727 27.9002 60.1865 26.3741C59.8368 25.4204 59.5189 24.4348 59.201 23.481C58.279 20.7151 57.5159 17.8537 57.8975 14.9606C58.2472 12.3536 59.5825 9.90556 61.5854 8.18876C64.7965 5.45459 69.2792 4.02392 73.4123 3.57882C75.606 3.35627 77.8314 3.32448 80.0569 3.29269C83.9038 3.2291 89.0224 2.17995 91.6294 5.8361C92.8058 7.52111 93.1873 9.65122 93.0601 11.7177C92.9965 12.7669 92.774 13.8161 92.2653 14.738C91.693 15.8508 90.7393 16.4548 89.9444 17.3768C89.3722 18.0445 89.0224 18.9029 88.4184 19.6023C87.7507 20.3653 87.0831 20.4925 86.2565 21.0648C85.4617 21.6053 84.8576 22.4001 84.1582 23.0359C82.9501 24.0851 81.7419 25.1024 80.4384 26.0244L80.3749 26.0562Z" fill="#1B282D"/>
<path d="M87.8143 51.6143C87.8143 51.6143 87.7189 51.9005 87.6553 52.0276C86.1293 55.5884 81.2332 56.0971 77.895 55.9381C74.4296 55.7474 70.8688 55.2387 67.9439 53.4265C67.1173 52.9178 66.3225 52.282 65.8456 51.3918C64.8918 49.6432 65.5277 47.5131 66.0363 45.6055C66.9265 42.2355 67.4034 38.7701 67.4988 35.2729C67.5306 33.8422 68.0393 33.5879 69.3746 33.5879C70.7734 33.5879 72.1405 33.7469 73.5076 34.0012C73.7302 34.033 73.9209 34.0966 74.1435 34.1284C75.2244 34.3827 76.3054 34.7324 77.3863 34.8596C78.7216 35.0186 80.0251 34.955 81.3604 35.1457C82.4731 35.3047 83.5541 35.3047 84.5714 35.877C85.2391 36.2585 86.7333 36.3856 87.1784 37.0215C87.4646 37.3712 87.4328 37.8799 87.3692 38.325C87.0195 40.6777 86.4472 42.7442 86.9241 45.1286C86.9241 45.1286 86.9241 45.1922 86.9241 45.224C87.3374 47.3223 88.4501 49.516 87.7825 51.6779L87.8143 51.6143Z" fill="#FFA87D"/>
<path d="M87.401 38.2923C87.0513 40.645 86.479 42.7115 86.9559 45.096C86.9559 45.096 86.9559 45.1595 86.9559 45.1913C85.9703 45.6364 84.8576 45.859 83.8402 46.0497C82.5685 46.3041 81.265 46.2087 79.9933 45.9862C76.6233 45.4457 73.603 44.1104 72.6174 40.5496C72.1088 38.7056 72.3631 36.6709 73.3805 35.0495C73.603 34.6998 73.8574 34.3818 74.1435 34.0957C75.2244 34.35 76.3054 34.6998 77.3863 34.8269C78.7216 34.9859 80.0251 34.9223 81.3604 35.1131C82.4732 35.272 83.5541 35.272 84.5715 35.8443C85.2391 36.2258 86.7334 36.353 87.1785 36.9888C87.4646 37.3386 87.4328 37.8472 87.3692 38.2923H87.401Z" fill="#E26E61"/>
<path d="M65.4005 55.466C66.2271 55.6886 67.0855 55.8475 67.9439 56.0701C69.2474 56.4198 70.5191 56.8967 71.7908 57.2782C75.2562 58.2956 78.7852 58.6453 82.3778 57.8505C85.3981 57.1828 88.2912 55.6568 90.3578 53.3359C90.93 52.6683 91.5341 51.9688 91.4705 51.015C91.4705 50.5382 91.2797 50.0931 91.1208 49.648C90.8346 48.8214 90.4849 46.6913 89.6901 46.2144C88.7681 45.6739 87.5282 46.7548 87.1149 47.4861C86.2883 48.8849 85.1438 50.0295 84.7622 51.6509C84.5715 52.4457 84.5079 53.2723 84.3172 54.0671C84.2536 54.2897 83.4587 55.9747 83.4587 56.0065C82.8547 54.7666 82.2506 53.4949 81.6466 52.255C81.5194 51.9688 81.3604 51.6827 81.1379 51.4601C80.6292 50.9833 79.8662 51.0151 79.1667 51.0786C76.5597 51.3012 73.8574 51.4284 71.3458 50.6335C69.1839 49.9659 67.3399 48.6306 65.5277 47.2635C65.1144 46.9456 64.6375 46.6277 64.1288 46.5959C63.7155 46.5959 63.334 46.7866 63.0161 46.9774C60.9814 48.2491 60.4727 50.8243 61.6808 52.9544C62.2848 54.0036 63.3658 54.703 64.5103 55.1163C64.8283 55.2435 65.1462 55.3389 65.4641 55.4024L65.4005 55.466Z" fill="#9ADDED"/>
<path d="M88.9589 15.9765C90.0081 18.8697 90.1988 22.2397 90.7393 25.26C91.089 27.1357 91.4069 28.9479 91.4705 30.8555C91.5341 32.6995 91.3433 34.5434 90.8665 36.292C90.2942 38.3903 89.3086 40.4886 87.8462 42.1101C87.1149 42.9367 86.2565 43.5407 85.2392 43.8905C84.1582 44.272 82.9819 44.3356 81.8373 44.3356C81.424 44.3356 81.0425 44.3356 80.6292 44.3356C79.3893 44.3991 78.054 43.954 76.8777 43.6361C73.5077 42.7141 70.4556 39.98 68.5798 37.055C67.944 36.0695 67.4035 35.0203 66.7358 34.0347C65.5595 32.3497 64.0017 31.0144 62.6664 29.4566C61.6808 28.3439 61.045 27.2947 60.7588 25.8004C59.964 21.4767 59.1692 16.9303 60.5999 12.7655C60.886 11.9389 61.2675 11.1122 61.8398 10.4128C62.5074 9.61799 63.3976 9.04573 64.3196 8.60063C66.0364 7.74223 67.8804 7.23355 69.7561 6.85204C71.2504 6.53411 72.7764 6.31156 74.2707 6.43873C77.3864 6.69307 80.1841 8.37808 82.8547 10.0631C85.112 11.4938 88.0369 13.2424 88.9907 15.9129L88.9589 15.9765Z" fill="#FFA87D"/>
<path d="M85.5889 17.8828C86.2565 17.8828 86.9241 17.9464 87.6236 18.2007C88.0369 18.3597 90.1034 19.1545 89.1496 19.8222C88.7045 20.1083 87.2739 19.695 86.7334 19.6632C85.8432 19.6632 84.953 19.6632 84.0946 19.8857C83.7449 19.9811 83.0772 20.1083 82.7593 19.8857C81.9963 19.3453 83.0136 18.3597 83.5541 18.2325C84.2536 18.0418 84.9212 17.9146 85.5571 17.9146L85.5889 17.8828Z" fill="#1B282D"/>
<path d="M72.4585 20.7149C71.6955 21.0011 70.9643 21.3826 70.3284 21.923C70.1059 22.1138 68.2619 24.2439 68.9295 24.4665C68.9613 24.4665 68.9931 24.4665 69.0567 24.4665C70.0105 24.1167 70.8371 23.4173 71.7909 23.004C72.8082 22.5271 73.8892 22.2092 75.0019 21.9866C75.2563 21.9548 75.5106 21.8912 75.765 21.7641C76.4008 21.3508 76.1783 20.1427 75.3834 20.1744C74.3979 20.2062 73.4123 20.397 72.4903 20.7467L72.4585 20.7149Z" fill="#1B282D"/>
<path d="M84.4443 23.2251C84.4443 22.621 84.5397 21.858 85.1756 21.6037C85.4935 21.4765 85.8432 21.5083 86.0976 21.7308C86.1611 21.7944 86.2247 21.858 86.2883 21.9216C86.3201 21.9852 86.3837 22.017 86.4155 22.0806C86.6698 22.4303 86.797 22.8754 86.7652 23.3205C86.797 23.6702 86.7652 24.0199 86.4791 24.3061C86.1929 24.624 85.6207 24.6876 85.2392 24.5604C84.6987 24.3696 84.4761 23.7656 84.4761 23.2251H84.4443Z" fill="#1B282D"/>
<path d="M71.918 26.2798C71.918 25.6757 72.0134 24.9127 72.6493 24.6584C72.9672 24.5312 73.3169 24.563 73.5712 24.7855C73.6348 24.8491 73.6984 24.9127 73.762 24.9763C73.7938 25.0399 73.8574 25.0717 73.8892 25.1353C74.1435 25.485 74.2707 25.9301 74.2389 26.3752C74.2707 26.7249 74.2389 27.0746 73.9528 27.3607C73.6666 27.6787 73.0944 27.7422 72.7128 27.6151C72.1724 27.4243 71.9498 26.8203 71.9498 26.2798H71.918Z" fill="#1B282D"/>
<path d="M65.8456 32.6701C65.8456 33.147 66.0999 33.8464 65.3051 33.8464C64.8918 33.8464 64.5421 33.5603 64.2878 33.2424C63.5565 32.4476 63.0161 31.462 62.5392 30.5082C61.4264 28.2827 60.5044 26.089 59.9004 23.7046C59.3917 21.6381 58.883 19.5397 59.0102 17.4414C59.1056 16.1061 59.4553 14.8026 59.9322 13.5627C60.9177 11.0193 62.4756 8.66666 64.6057 6.98165C65.7502 6.05967 66.6404 5.70995 68.0711 5.55098C69.6607 5.36023 71.2503 5.36023 72.8082 5.10589C74.525 4.81975 76.2418 4.24748 77.9268 4.629C80.3748 5.20126 82.8229 6.15504 83.5541 8.76204C84.031 10.447 83.7766 12.3228 82.8547 13.8171C81.9327 15.3113 80.3748 16.3923 78.658 16.7102C77.5135 16.9327 76.3372 16.8374 75.1926 16.8692C73.0625 16.9327 70.8688 17.4732 69.1838 18.8085C66.7676 20.7479 66.6086 23.7682 66.7358 26.6295C66.7994 28.092 66.0046 29.459 65.9092 30.9215C66.0681 31.2394 65.8138 32.2568 65.8456 32.6383V32.6701Z" fill="#1B282D"/>
<path d="M63.6519 26.5952C62.7617 26.8495 62.0305 27.5172 61.8397 28.5346C61.649 29.5519 61.9669 30.5693 62.412 31.4913C63.6837 34.1301 66.2271 35.974 69.2474 35.6243C69.5971 35.5925 69.9151 35.5289 70.2012 35.3064C71.9498 34.0983 69.1838 30.4421 68.4526 29.234C67.8485 28.2484 67.1173 27.2629 66.0682 26.7542C65.3051 26.4045 64.4149 26.3409 63.6519 26.5634V26.5952Z" fill="#FFA87D"/>
<path d="M86.5426 33.4629C86.3201 33.4629 86.0976 33.5583 85.875 33.6219C83.9674 34.1941 81.9963 34.6392 79.9934 34.8936C79.8026 34.8936 79.6118 34.9571 79.4529 35.0525C78.9124 35.4022 79.8026 35.8473 80.1205 36.0063C80.6292 36.2924 81.2015 36.4832 81.7737 36.6104C82.6004 36.8011 83.4588 36.8647 84.2854 36.7057C85.5253 36.4514 86.638 35.593 87.1785 34.4485C87.3693 34.0352 87.4646 33.6219 86.9242 33.4947C86.797 33.4947 86.6698 33.4629 86.5426 33.4947V33.4629Z" fill="white"/>
<path d="M85.5252 28.9481C85.3663 28.4712 85.0165 28.0579 84.7622 27.6128C83.5223 25.6416 82.8864 23.3526 82.2506 21.1271C82.1552 20.8092 81.3286 20.9045 81.424 21.1589C81.9962 23.1936 82.6003 25.2601 83.6177 27.1041C83.872 27.5492 84.1581 27.9625 84.4125 28.4076C84.6986 28.8527 84.9212 29.3614 84.6668 29.8701C84.4443 30.3152 83.9992 30.6967 83.6177 30.9828C83.2044 31.3007 82.7593 31.5551 82.2506 31.7776C81.7419 32.0002 82.4095 32.2545 82.6957 32.1273C83.6495 31.7458 84.6032 31.1418 85.2709 30.2834C85.5888 29.8701 85.7478 29.425 85.5888 28.9163L85.5252 28.9481Z" fill="#E26E61"/>
<path d="M57.5795 19.9191C57.9292 18.1705 59.1692 16.7398 60.3773 15.4363C62.2213 13.4652 64.2878 11.6848 66.0046 9.61825C66.6404 8.85523 67.1173 8.02862 67.7214 7.2656C68.4526 6.28003 69.5336 5.42163 70.392 4.53143C70.8371 4.08633 71.3139 3.60945 71.9498 3.48227C72.6174 3.3551 73.4123 3.67303 73.9845 3.29152C74.2071 3.13256 74.366 2.91001 74.525 2.68746C74.9065 2.0834 75.288 1.51113 75.7013 0.90707C75.8921 0.620937 76.0828 0.334803 76.4008 0.144047C76.8141 -0.0785015 77.3545 -0.0149162 77.7996 0.144047C78.2447 0.334803 78.6263 0.620937 79.0714 0.811692C79.9615 1.225 81.0425 1.28858 81.9645 0.938863C82.2506 0.843485 82.505 0.716315 82.8229 0.652729C83.8085 0.525559 86.0975 2.65567 84.5397 2.97359C80.4702 3.86379 76.21 5.04011 72.5539 7.10664C69.9469 8.5691 67.6896 10.6992 65.4959 12.7339C63.1432 14.8958 60.9178 17.1531 58.8194 19.5376C58.5015 19.8873 58.0564 20.3006 57.6113 20.1416C57.6113 20.0462 57.6113 19.9827 57.6431 19.8873L57.5795 19.9191Z" fill="#F7C32F"/>
<path d="M82.9818 58.0091C80.2794 57.882 77.6088 57.6276 74.9701 57.2143C73.6348 56.9918 72.2995 56.7692 70.996 56.4513C69.8832 56.197 68.7387 55.9426 67.6577 55.5611C66.545 55.1478 65.4641 54.5437 64.701 53.59C64.5739 53.431 64.3513 53.3992 64.1606 53.431C64.0652 53.431 63.7155 53.5582 63.8426 53.7171C65.3051 55.5293 67.6577 56.1652 69.8514 56.6739C72.6174 57.3097 75.3834 57.7866 78.2129 58.1045C79.8025 58.2635 81.424 58.3907 83.0136 58.4542C83.1408 58.4542 83.4587 58.4224 83.4587 58.2317C83.4587 58.0409 83.1408 58.0091 83.0136 58.0091H82.9818Z" fill="#5E93BF"/>
<path d="M91.248 53.0181C91.0572 53.0181 90.8347 53.0181 90.7075 53.1771C89.3722 54.9893 87.5918 56.4835 85.5571 57.4373C85.3981 57.5327 85.3981 57.6598 85.5571 57.7552C85.7161 57.8506 86.0022 57.8506 86.1929 57.7552C88.3231 56.7379 90.167 55.18 91.5659 53.2725C91.6931 53.1135 91.3434 53.0181 91.248 52.9863V53.0181Z" fill="#5E93BF"/>
<path d="M73.7937 135.989L11.9571 232.925C11.512 233.624 10.9079 234.197 10.1767 234.61L1.59265 239.506C1.24293 239.729 0.829629 239.665 0.511703 239.506C0.193776 239.315 -0.0287721 238.934 0.00302055 238.521L0.829629 228.665C0.893214 227.838 1.17935 227.043 1.62445 226.344L63.4611 129.408L69.0884 133.001L73.7937 135.989Z" fill="#934538"/>
<path d="M85.4934 111.415L84.2217 110.589L82.8864 109.73L81.6147 108.936L65.8774 131.095L68.2936 132.621L69.5971 133.479L72.0134 135.006L85.4934 111.415Z" fill="#1B282D"/>
<path d="M83.9897 140.305L56.3334 122.652L53.7676 126.672L81.4239 144.325L83.9897 140.305Z" fill="#1B282D"/>
<path d="M55.9263 130.239L54.2095 129.126C53.4146 128.617 53.1921 127.568 53.7008 126.773C54.2095 125.979 55.2586 125.756 56.0534 126.265L57.7702 127.377C58.5651 127.886 58.7876 128.935 58.2789 129.73C57.7702 130.525 56.7211 130.747 55.9263 130.239Z" fill="#1B282D"/>
<path d="M78.976 144.956L77.2591 143.843C76.4643 143.334 76.2418 142.285 76.7505 141.49C77.2591 140.695 78.3083 140.473 79.1031 140.981L80.8199 142.094C81.6147 142.603 81.8373 143.652 81.3286 144.447C80.8199 145.242 79.7708 145.464 78.976 144.956Z" fill="#1B282D"/>
<path d="M83.6813 112.528L81.3922 111.065C80.4384 110.461 80.1523 109.19 80.7564 108.236C81.3604 107.282 82.6321 106.996 83.5859 107.6L85.875 109.062C86.8288 109.666 87.1149 110.938 86.5108 111.892C85.9068 112.846 84.6351 113.132 83.6813 112.528Z" fill="#EAF4F4"/>
<path d="M24.3243 103.406C24.3243 103.406 24.4833 103.597 24.5469 103.692C26.6452 106.109 29.9834 106.903 33.0991 107.539C35.7697 108.111 39.4894 108.62 41.7785 106.713C44.2901 104.614 46.0069 100.195 47.7237 97.4291C49.5041 94.5678 51.2845 91.7064 52.4926 88.559C53.9869 84.6803 53.6053 81.0241 53.9233 77.0182C54.273 72.5991 53.9233 68.0209 53.3828 63.6335C52.9695 60.3907 52.2065 58.9918 49.0908 58.1334C46.5474 57.4022 43.8768 57.434 41.238 57.5612C39.2351 57.6565 37.1368 57.8155 35.3882 58.8329C33.4488 59.9456 32.1771 61.9167 31.0008 63.8243C28.2984 68.2117 25.5642 72.5991 22.8619 76.9865C18.9514 83.2814 20.4774 89.6399 21.8445 96.6025C22.3214 98.987 22.8301 101.499 24.3243 103.406Z" fill="#9ADDED"/>
<path d="M25.5325 123.151C27.2175 125.122 29.2204 126.839 31.2233 128.46C36.3102 132.561 41.7467 136.218 47.4694 139.365C48.296 139.81 49.1862 140.287 50.1082 140.128C51.062 139.969 51.7932 139.174 52.429 138.443C53.5736 137.108 54.5591 135.995 55.9898 135.041C56.9754 134.374 58.724 132.53 58.3107 131.194C58.1199 130.59 57.6748 130.082 57.2297 129.636C52.6834 124.804 48.5503 119.59 44.8942 114.058C43.0502 111.292 41.3652 108.431 39.7756 105.538C38.5357 103.28 36.4055 101.659 34.339 100.101C32.5904 98.7658 30.5239 97.6849 28.3302 97.6531C22.0989 97.5577 21.8127 106.937 21.2405 111.324C20.7954 114.758 22.0035 118.255 23.9428 121.148C24.4197 121.879 24.9602 122.547 25.5325 123.214V123.151Z" fill="#9ADDED"/>
<path d="M48.1688 138.567C48.1052 140.633 50.0446 142.668 51.2845 144.194C53.8279 147.278 57.7384 150.584 61.7443 151.443C62.5073 151.602 63.3339 151.665 64.0651 151.347C64.7964 151.03 65.3051 150.203 65.0825 149.44C65.1779 149.726 66.2906 148.74 66.3542 148.645C66.7039 148.136 66.8311 147.437 66.6086 146.833C67.1172 147.278 67.9121 146.96 68.3889 146.451C69.152 145.657 69.5017 144.448 69.2791 143.368C69.4063 143.972 72.2358 142.668 71.4092 141.142C71.1549 140.697 70.7416 140.347 70.3283 140.029C68.8976 138.917 67.4988 137.836 66.0681 136.723C65.0189 135.896 63.779 135.292 63.1114 134.084C62.6663 133.289 62.4755 132.304 61.7443 131.763C60.8223 131.096 59.646 131.477 58.5968 131.445C57.1026 131.382 55.6083 131.445 54.1776 131.827C52.5244 132.272 50.9666 133.194 49.8856 134.529C49.0908 135.515 48.6139 136.755 48.2642 137.963C48.2006 138.154 48.1688 138.344 48.1688 138.535V138.567Z" fill="#FFA87D"/>
<path d="M48.0416 122.006C48.2005 121.847 48.3595 121.688 48.5185 121.529C49.2497 120.798 50.2353 120.003 51.2208 120.353C53.351 121.116 53.8278 123.309 54.8452 125.026C55.7672 126.552 56.8163 128.015 57.6747 129.573C58.5967 131.258 58.6921 132.021 57.4204 133.61C54.9406 136.726 52.3654 139.746 49.7902 142.766C47.4057 141.336 44.9577 140.001 42.4461 138.761C41.2062 138.157 39.9345 137.552 38.6627 136.98C37.1049 136.281 37.0413 136.09 37.8997 134.628C40.6657 130.049 44.29 125.821 48.0416 122.006Z" fill="white"/>
<path d="M39.4894 64.6859C39.4894 64.6859 39.2351 64.9084 39.1079 65.0356C36.5963 67.3565 34.4344 69.5819 32.3996 72.3161C30.4921 74.8913 28.8389 77.4665 28.1712 80.6458C26.6134 88.0853 26.6452 95.6519 26.7088 103.219C26.7088 102.869 27.7261 101.788 27.9169 101.406C28.2666 100.707 28.5845 99.9121 28.8707 99.1809C29.5383 97.5913 29.8244 95.9062 30.2059 94.1894C31.1279 90.2154 32.1771 86.2413 33.5124 82.3944C34.5933 79.2469 35.8968 76.1948 37.4229 73.2381C38.9171 70.3132 40.0935 67.5154 40.5703 64.209C40.157 64.209 39.7755 64.3997 39.4258 64.6859H39.4894Z" fill="#5E93BF"/>
<path d="M49.822 63.793C49.3133 64.4924 49.1861 65.4144 49.0272 66.2728C48.5185 69.3249 47.7872 72.3452 47.1196 75.3337C46.293 78.9581 45.0531 82.4235 43.5588 85.8571C40.6657 92.3428 37.5818 98.5105 37.1049 105.696C40.8882 99.6551 45.7525 94.2185 49.059 87.86C49.5994 86.8108 50.1717 85.7299 50.5214 84.5854C50.9983 83.0275 51.1255 81.4061 51.1573 79.7847C51.2844 75.3973 50.5214 71.2324 50.1717 66.9086C50.1399 66.4 49.5358 64.1427 49.822 63.793Z" fill="#5E93BF"/>
<path d="M54.5273 75.0472C54.5273 72.8217 54.4002 70.628 54.3048 68.4025C54.3048 68.0846 53.4146 68.0846 53.4146 68.4025C53.6053 72.2812 53.7643 76.1917 53.5735 80.1022C53.4782 82.0416 53.2874 83.9809 52.9059 85.8885C52.5562 87.6371 51.8885 89.1949 51.0301 90.7209C50.1081 92.3742 49.0908 93.9956 48.6139 95.8396C48.5185 96.1893 49.3769 96.2211 49.4723 95.9667C49.9174 94.3453 50.744 92.8828 51.5706 91.4204C52.429 89.9261 53.192 88.4001 53.6371 86.7151C54.114 84.8393 54.3048 82.8999 54.4319 80.9924C54.5591 79.0212 54.5909 77.0501 54.5591 75.079L54.5273 75.0472Z" fill="#5E93BF"/>
<path d="M40.2524 107.382C37.3275 107.064 34.4662 106.238 31.8274 104.966C31.6366 104.871 31.3823 104.871 31.1915 104.966C31.0326 105.061 31.0326 105.189 31.1915 105.284C33.9575 106.619 36.946 107.478 40.0299 107.827C40.1889 107.827 40.5068 107.827 40.5704 107.668C40.634 107.478 40.3796 107.414 40.2524 107.382Z" fill="#5E93BF"/>
<path d="M38.9171 108.777C38.8535 108.619 38.5038 108.587 38.3766 108.618C36.7234 108.905 35.0702 109.35 33.4806 109.89C33.3534 109.954 33.1944 110.049 33.3216 110.208C33.4488 110.335 33.7667 110.335 33.9257 110.304C35.4517 109.763 37.0095 109.35 38.5992 109.064C38.7263 109.064 38.9807 108.968 38.9171 108.777Z" fill="#5E93BF"/>
<path d="M68.9294 143.243C68.1664 142.83 67.4352 142.353 66.7357 141.813C66.5768 141.686 66.3224 141.654 66.1317 141.717C66.0045 141.749 65.8137 141.908 65.9727 142.035C66.7039 142.576 67.4988 143.084 68.2936 143.53C68.4525 143.625 68.7387 143.625 68.9294 143.53C69.0884 143.434 69.0884 143.307 68.9294 143.212V143.243Z" fill="#E26E61"/>
<path d="M66.5449 146.615C65.7501 146.297 64.9553 145.883 64.2559 145.375C64.0969 145.248 63.8426 145.248 63.6518 145.279C63.5246 145.311 63.3339 145.47 63.4928 145.597C64.2877 146.17 65.1779 146.646 66.0998 146.996C66.2588 147.06 66.5449 147.06 66.7039 146.901C66.8629 146.774 66.6721 146.646 66.5449 146.583V146.615Z" fill="#E26E61"/>
<path d="M64.3194 149.345C63.3974 149.218 62.5072 148.964 61.6806 148.519C61.4899 148.423 61.2355 148.423 61.0448 148.519C60.8858 148.614 60.8858 148.741 61.0448 148.837C61.9985 149.314 63.0159 149.663 64.0651 149.79C64.224 149.79 64.5102 149.79 64.6055 149.632C64.7009 149.473 64.4148 149.377 64.2876 149.345H64.3194Z" fill="#E26E61"/>
<path d="M63.1114 134.529L62.3483 134.148C62.3483 134.148 62.1258 134.084 62.0304 134.084C61.935 134.084 61.8079 134.084 61.7125 134.148C61.6489 134.179 61.5853 134.243 61.5853 134.307C61.5853 134.37 61.6489 134.434 61.7125 134.465C61.9668 134.593 62.2212 134.72 62.4755 134.847C62.5709 134.879 62.6981 134.911 62.7934 134.911C62.8888 134.911 63.016 134.911 63.1114 134.847C63.175 134.815 63.2385 134.752 63.2385 134.688C63.2385 134.624 63.175 134.561 63.1114 134.529Z" fill="#E26E61"/>
<path d="M112.04 71.1076C112.04 70.7897 111.15 70.7897 111.15 71.1076C111.563 78.4517 111.182 85.8276 110.355 93.1399C109.529 100.484 108.193 107.765 106.731 115.013C105.904 119.083 105.014 123.12 104.156 127.158C104.092 127.412 104.951 127.476 105.046 127.158C106.636 119.941 108.193 112.692 109.465 105.412C110.737 98.1631 111.722 90.819 112.072 83.4431C112.263 79.3419 112.295 75.2088 112.072 71.0758L112.04 71.1076Z" fill="#5E93BF"/>
<path d="M116.396 56.8297C116.205 57.2112 115.951 57.5291 115.601 57.8153C114.234 58.9598 112.072 58.9598 110.292 58.8326C110.069 58.8326 109.815 58.8008 109.624 58.769C109.115 58.7055 108.607 58.6737 108.098 58.6101C105.205 58.2922 102.248 57.8153 99.5458 56.7979C98.0516 56.2574 96.5891 55.5262 95.2538 54.5724C94.5226 54.0637 93.855 53.4597 93.2827 52.792C91.5977 50.8209 90.4531 48.3411 89.5312 45.893C88.6728 43.604 89.8173 42.8409 91.5977 42.7773C91.9156 42.7773 92.2335 42.7773 92.5515 42.7773C92.9648 42.8091 93.4099 42.8727 93.855 42.9363C95.7943 43.286 97.7972 43.9855 98.6874 44.3034C99.4187 44.5577 100.118 44.8439 100.818 45.0982C104.124 46.3381 107.43 47.6734 110.673 49.0723C111.754 49.5492 112.867 50.0261 113.821 50.6937C114.202 50.9481 114.552 51.2024 114.87 51.5203C115.092 51.7111 115.283 51.9336 115.474 52.188C116.014 52.9192 116.46 53.8094 116.587 54.6996C116.714 55.399 116.65 56.1303 116.332 56.7661L116.396 56.8297Z" fill="white"/>
<path d="M63.8108 52.9843C62.2212 54.7965 60.0275 55.9092 57.8974 56.9902C55.4176 58.2619 52.906 59.5018 50.2672 60.4556C49.9174 60.5827 49.5677 60.7099 49.1862 60.8053C49.1226 60.8053 49.0908 60.8371 49.0272 60.8689C48.7411 60.9643 48.3914 61.0596 47.9463 61.155C46.3885 61.5365 43.9722 61.9498 41.556 62.1088C39.2669 62.236 36.946 62.1088 35.3564 61.4411C34.8477 61.2186 34.4344 60.9643 34.0847 60.6463C33.735 60.3284 33.5124 59.9469 33.3853 59.5018C33.1309 58.6752 33.2581 57.626 33.8939 56.2589C35.0385 53.7791 38.1542 52.4438 40.475 51.3947C41.238 51.045 42.0011 50.727 42.7959 50.3773C44.7352 49.5189 46.6746 48.6605 48.6139 47.8021C53.0331 45.8628 57.4841 43.8916 62.1576 42.6835C62.5391 42.5881 62.9524 42.4927 63.3657 42.4609C63.4611 42.4609 63.5565 42.4609 63.6837 42.4609C63.9698 42.4609 64.2559 42.4609 64.5103 42.5563C64.9554 42.6835 65.3051 42.906 65.5912 43.224C67.6577 45.4177 65.2733 51.3629 63.8426 53.0479L63.8108 52.9843Z" fill="white"/>
<path d="M65.623 42.0117C65.623 42.425 65.5595 42.8065 65.5595 43.0609C65.5595 43.0927 65.5595 43.1563 65.5595 43.188C65.4641 43.506 65.019 43.9829 64.7329 43.9193C64.5421 43.9193 64.4149 43.7603 64.2242 43.7603C64.0016 43.7603 63.7473 43.8557 63.5883 43.6967C63.3658 43.506 63.3022 43.0291 63.3022 42.4886C63.3022 42.4886 63.3022 42.4886 63.3022 42.4568C63.3976 42.4568 63.4929 42.4568 63.6201 42.4568C64.2878 42.3296 64.9554 42.1707 65.623 42.0435V42.0117Z" fill="#1B282D"/>
<path d="M93.855 42.9953C93.855 42.9953 93.855 43.1543 93.855 43.2179V43.2815C93.855 43.5994 93.3463 44.2035 92.9966 44.1399C92.8376 44.1399 92.6787 43.9809 92.4879 43.9809C92.2654 43.9809 92.011 44.0763 91.8521 43.9173C91.6295 43.7266 91.5659 43.3133 91.5659 42.8046C91.5659 42.741 91.5659 42.6456 91.5659 42.582C91.8838 42.6774 92.2018 42.741 92.5197 42.8364C92.933 42.8682 93.3781 42.9318 93.8232 42.9953H93.855Z" fill="#1B282D"/>
<path d="M42.7641 50.3398C42.7641 50.8485 42.7005 51.389 42.7005 51.6751C42.7005 51.9931 42.1918 52.5971 41.8739 52.5335C41.7149 52.5335 41.556 52.3746 41.3652 52.3746C41.1427 52.3746 40.8883 52.4699 40.7294 52.311C40.5386 52.152 40.475 51.7705 40.4432 51.3572C41.2063 51.0075 41.9693 50.6896 42.7641 50.3398Z" fill="#1B282D"/>
<path d="M55.5766 51.9347C55.5766 51.267 55.9263 49.2641 55.0997 49.1687C54.6546 49.1051 53.5736 48.9462 53.51 49.6138C53.4465 50.1861 53.1285 52.1572 53.6372 52.5705C53.7962 52.6977 54.0505 52.6023 54.2731 52.6341C54.4638 52.6341 54.591 52.7613 54.7817 52.7931C55.1315 52.8567 55.6401 52.2526 55.6084 51.9347H55.5766Z" fill="#1B282D"/>
<path d="M98.7191 51.4562C98.7191 50.7885 99.0688 48.7856 98.2422 48.6902C97.7971 48.6266 96.7161 48.4676 96.6526 49.1353C96.589 49.7076 96.271 51.6787 96.7797 52.092C96.9387 52.2192 97.193 52.1238 97.4156 52.1556C97.6063 52.1556 97.7335 52.2828 97.9243 52.3146C98.274 52.3781 98.7827 51.7741 98.7509 51.4562H98.7191Z" fill="#1B282D"/>
<path d="M108.734 56.4483C108.734 55.7807 109.084 53.7778 108.257 53.6824C107.812 53.6188 106.731 53.4598 106.667 54.1275C106.604 54.6997 106.286 56.6709 106.794 57.0842C106.953 57.2114 107.208 57.0842 107.43 57.1478C107.621 57.1478 107.748 57.275 107.939 57.3067C108.289 57.3703 108.797 56.7663 108.797 56.4483H108.734Z" fill="#1B282D"/>
<path d="M115.506 52.2501C115.506 52.2501 115.347 52.3137 115.251 52.3137C115.061 52.3137 114.933 52.1547 114.743 52.1547C114.52 52.1547 114.266 52.2501 114.107 52.0911C113.884 51.9004 113.821 51.3599 113.821 50.7559C114.202 51.0102 114.552 51.2645 114.87 51.5825C115.092 51.7732 115.283 51.9958 115.474 52.2501H115.506Z" fill="#1B282D"/>
<path d="M35.3564 61.4399C34.339 61.0266 33.6396 60.3907 33.3535 59.4687C33.6714 59.1508 34.4662 59.278 34.8159 59.3098C35.4518 59.4051 35.3882 60.5815 35.3564 61.4399Z" fill="#1B282D"/>
<path d="M50.2672 60.4539C49.9174 60.581 49.5677 60.7082 49.1862 60.8036C49.1226 60.8036 49.0908 60.8354 49.0272 60.8672C48.7411 60.9625 48.3914 61.0579 47.9463 61.1533C47.9463 60.581 48.0735 60.0088 48.0735 59.7544C48.137 59.0868 49.2498 59.2457 49.6631 59.3093C50.0764 59.3729 50.2036 59.8816 50.2036 60.4539H50.2672Z" fill="#1B282D"/>
</svg>
