<svg width="206" height="318" viewBox="0 0 206 318" fill="none" xmlns="http://www.w3.org/2000/svg">
<path d="M195.609 309.016C190.747 311.671 185.532 313.686 180.126 314.966C171.458 317.013 162.501 317.333 153.64 317.589C135.023 318.133 116.406 317.909 97.8203 316.533C88.5437 315.829 79.267 314.998 69.9584 314.742C65.3521 314.614 60.7458 314.582 56.1394 314.806C49.7737 315.094 43.6959 315.382 37.3942 313.974C38.2579 308.216 39.0256 302.426 39.7294 296.636C40.3692 291.39 40.913 286.112 41.4248 280.866C41.8726 276.068 42.2885 271.238 42.6723 266.407C44.0478 249.581 45.0714 232.66 46.8308 215.866C48.5262 199.839 47.6625 183.653 47.5985 167.499C47.5665 157.487 47.9824 147.442 49.7417 137.59C51.3092 128.889 51.821 120.252 56.9391 112.639C58.7945 109.888 61.3215 106.273 64.2645 104.61C67.4313 102.851 71.9417 102.659 75.4604 102.467C83.2976 101.987 94.6534 101.091 101.339 105.986C108.472 111.2 114.838 116.734 120.66 123.451C127.25 131.064 133.519 138.998 139.437 147.155C142.188 150.961 144.875 154.832 148.17 158.191C151.465 161.581 155.207 164.108 157.479 168.395C159.686 172.521 160.326 178.439 161.669 182.95C164.612 192.834 167.779 202.686 171.138 212.443C177.855 231.988 185.309 251.277 193.018 270.438C195.033 275.428 197.08 280.418 199.128 285.408C200.919 289.791 202.742 294.173 204.566 298.556C204.885 299.355 205.077 300.059 205.109 300.699C205.461 305.273 199.639 306.841 195.673 309.016H195.609Z" fill="#F985A6"/>
<path d="M91.0069 56.8185C91.0069 56.8185 90.751 56.5306 90.6231 56.4347C90.1432 56.0188 89.2795 55.8909 88.7038 55.6669C87.936 55.3471 87.2003 54.9632 86.4646 54.5474C85.0251 53.7157 83.6816 52.66 82.466 51.5085C81.2824 50.3889 80.1948 49.4612 79.4271 47.9577C78.6914 46.5183 78.2116 44.9508 77.7317 43.4154C77.06 41.1762 76.3562 38.873 76.6121 36.5699C76.7721 35.0984 77.2839 33.6909 77.4438 32.2514C77.6038 30.812 77.2519 29.1486 76.0683 28.2529C75.3326 27.7091 74.373 27.5492 73.5413 27.1973C71.0782 26.1417 69.7026 23.3907 69.5747 20.7356C69.4467 17.8887 70.2145 15.9694 72.0378 13.7941C74.213 11.2031 76.5482 8.73998 79.0113 6.40483C80.8346 4.67745 82.7859 2.98207 85.121 2.02242C86.7844 1.35066 88.5758 1.06277 90.3671 0.966801C95.1334 0.774871 100.092 2.15037 103.706 5.28523C106.841 8.03623 108.824 11.9708 109.4 16.0653C110.36 22.8469 107.353 29.5004 108.888 36.25C109.528 39.065 110.872 41.656 112.279 44.1831C113.431 46.2624 114.646 48.3416 115.894 50.3569C117.781 53.4278 119.924 56.6266 120.148 60.3372C120.276 62.7684 119.924 65.2954 118.677 67.3747C116.342 71.2453 111.352 72.8767 106.873 72.3649C102.171 71.8211 97.7245 69.166 95.1654 65.1675C94.3017 63.824 93.6619 62.3525 93.0222 60.8811C92.5104 59.6975 91.9346 57.8741 91.0389 56.7865L91.0069 56.8185Z" fill="#E86319"/>
<path d="M117.877 58.9307C117.877 59.5704 117.653 59.5384 117.461 60.0503C116.757 61.7776 116.437 62.8652 114.998 64.1128C113.591 65.3283 112.119 66.4799 110.52 67.4076C104.122 71.1502 96.3168 71.2462 88.8955 71.3102C84.8329 71.3422 80.7064 71.4061 76.7079 70.7344C72.6774 70.0626 68.7108 68.6551 65.5759 66.0321C62.4411 63.409 60.2659 59.5065 60.3298 55.4439C60.3618 52.9808 61.1935 51.3494 63.4967 50.4857C67.9431 48.7584 72.9973 48.0226 76.7399 45.2076C77.2197 44.8558 77.6676 44.4719 78.0834 44.0241C79.0111 43.0964 79.7788 42.0088 80.3866 40.8572C81.2183 39.2578 81.7941 37.4984 82.2099 35.7391C82.5298 34.3316 82.8177 32.8281 83.5854 31.5806C83.6814 31.4207 83.8413 31.1967 84.0012 31.0048C84.2891 30.6529 84.641 30.333 85.0249 30.333C85.6646 30.3011 86.4963 31.0368 87.2001 31.1328C88.4156 31.2607 89.8231 31.5166 91.0067 31.5166C91.9344 31.5166 92.7981 31.1328 93.6937 30.9728C94.3335 30.8768 95.709 30.6209 96.3168 30.9408C97.0525 31.3247 96.7966 32.1244 96.7006 32.7322C96.5407 33.6598 96.5087 34.4915 96.6686 35.4192C96.9565 37.4345 97.7563 39.3858 98.7479 41.1771C101.787 46.6791 106.873 50.9975 112.791 53.1408C114.102 53.6206 115.478 54.0045 116.469 54.9961C117.493 56.0197 117.909 57.5232 117.941 58.9626L117.877 58.9307Z" fill="#FFA87D"/>
<path d="M117.877 58.9298C117.877 59.6016 117.653 59.5376 117.461 60.0494C116.757 61.7768 116.438 62.8644 114.998 64.112C113.591 65.3275 112.119 66.4791 110.52 67.4068C109.72 67.8866 108.888 68.3024 108.025 68.6543C102.139 71.1494 95.3572 71.2454 88.8956 71.3093C84.833 71.3413 80.7065 71.4053 76.708 70.7335C74.2129 70.3177 71.7178 69.614 69.4146 68.4944C68.0391 67.8226 66.7276 67.0229 65.544 66.0313C62.953 63.888 61.0017 60.8171 60.4579 57.5543C60.3299 56.8506 60.266 56.1468 60.2979 55.4431C60.3299 52.98 61.1616 51.3486 63.4648 50.4849C63.6247 50.4209 63.7847 50.3569 63.9446 50.293C66.3118 52.6281 68.455 55.2832 70.5342 57.8422C72.7734 60.5932 75.1086 63.4722 77.6996 65.9993C78.0515 66.3511 78.4673 66.735 79.0111 66.9589C79.7469 67.2468 80.5146 67.1828 81.1864 67.0869C83.2016 66.767 85.1209 66.0313 86.6884 65.3595C87.3601 65.0716 87.9999 64.7837 88.6716 64.4958L88.9915 64.3679C94.3656 62.0007 99.8676 59.8255 105.37 57.9062C108.121 56.9466 110.936 56.0189 113.719 55.1872C114.294 55.0272 114.87 54.8033 115.414 54.6114C115.542 54.5794 115.638 54.5154 115.766 54.4834C115.99 54.6434 116.214 54.8033 116.406 55.0272C117.429 56.0509 117.845 57.5543 117.877 58.9938V58.9298Z" fill="#FFA87D"/>
<path d="M91.1988 37.7546C90.5591 38.8422 89.5994 39.7379 88.5118 40.3457C86.0807 41.7212 82.9778 41.7212 80.3548 40.8575C81.1865 39.2581 81.7623 37.4987 82.1781 35.7393C82.498 34.3319 82.7859 32.8284 83.5536 31.5809C83.6496 31.4209 83.8095 31.197 83.9694 31.0051C86.1127 30.9411 88.2559 31.4849 90.0792 32.5405C91.0709 33.1163 91.8386 33.5641 91.9346 34.7477C92.0305 35.7713 91.6786 36.8589 91.1668 37.7546H91.1988Z" fill="#E26E61"/>
<path d="M73.9569 27.712C73.8929 30.1111 74.3087 32.1584 75.2044 34.3976C76.1641 36.7327 77.3476 38.4601 79.9707 38.9079C83.1375 39.4837 86.4643 38.8759 89.3433 37.4045C92.4142 35.8051 94.4614 33.182 96.6686 30.6229C97.4683 29.6953 98.0121 28.3837 98.492 27.2322C99.0358 25.9846 99.4516 24.6731 99.8035 23.3616C101.243 17.6676 102.427 10.2463 96.8605 6.31176C94.8453 4.90427 92.4142 4.36046 89.9831 4.2645C87.9678 4.20052 84.9609 4.00859 83.2335 5.12819C78.4033 8.29504 76.9318 13.861 75.4923 19.1711C74.7246 21.9861 74.0848 24.865 73.9889 27.744L73.9569 27.712Z" fill="#FFA87D"/>
<path d="M92.7659 18.016C93.2138 18.3039 93.7256 18.6558 94.0775 19.0716C94.3973 19.4235 94.5253 19.9353 94.6853 20.4152C94.7812 20.703 94.8772 21.0229 94.7172 21.2788C94.9092 20.959 93.6296 20.0633 93.4377 19.9353C92.7019 19.3915 91.8703 19.0716 91.0386 18.7837C90.1429 18.4639 89.2472 18.176 88.3515 17.8881C88.0956 17.8241 88.1276 17.3763 88.1916 17.1523C88.2556 16.8644 88.5115 16.6725 88.7994 16.6085C89.0553 16.5446 89.3432 16.6085 89.5991 16.6725C90.6867 16.9284 91.7423 17.3763 92.702 18.016H92.7659Z" fill="#E86319"/>
<path d="M76.6758 15.8407C77.0277 15.8407 77.3796 15.7767 77.7314 15.7447C78.2113 15.7447 78.7231 15.7447 79.2029 15.7447C79.6507 15.7767 80.0986 15.8727 80.5464 15.9686C80.8983 16.0646 81.4741 16.4165 81.826 16.1925C81.9539 16.0966 82.0499 15.9366 82.0819 15.7447C82.2418 14.7531 81.2502 14.6891 80.6424 14.5292C79.6827 14.3372 78.6591 14.4012 77.6994 14.817C77.2196 15.009 76.7718 15.2969 76.4519 15.7447C76.5479 15.7447 76.6119 15.7767 76.7078 15.7767L76.6758 15.8407Z" fill="#E86319"/>
<path d="M77.2195 18.8786C77.4434 18.3668 77.8593 17.759 78.531 17.823C78.9789 17.855 79.3627 18.1749 79.4587 18.6227C79.4907 18.8466 79.4587 19.0706 79.4587 19.2625C79.3627 19.7743 79.1388 20.4141 78.595 20.638C78.2751 20.7659 77.8593 20.734 77.6034 20.51C77.0915 20.0302 76.9316 19.5504 77.2515 18.8786H77.2195Z" fill="#1B282D"/>
<path d="M88.7993 21.9216C89.0232 21.4098 89.4391 20.802 90.1108 20.866C90.5587 20.898 90.9425 21.2179 91.0385 21.6657C91.0705 21.8896 91.0385 22.1135 91.0385 22.3055C90.9425 22.8173 90.7186 23.457 90.1748 23.681C89.8549 23.8089 89.4391 23.7769 89.1832 23.553C88.6713 23.0732 88.5114 22.5934 88.8313 21.9216H88.7993Z" fill="#1B282D"/>
<path d="M84.7051 31.422C84.7051 31.422 84.3852 31.6779 84.2253 31.8058C83.3296 32.4136 82.146 32.7975 80.9305 32.6055C79.6829 32.4136 78.6273 31.5179 78.0515 30.4943C77.9236 30.2704 77.8276 30.0145 77.8596 29.7905C77.9236 29.2787 78.4674 29.4067 78.9152 29.4707C79.555 29.5666 80.1628 29.6626 80.8025 29.7586C82.0501 29.9505 83.2976 30.1424 84.5772 30.3344C84.7691 30.3344 84.961 30.3983 85.089 30.5263C85.4089 30.7822 84.961 31.262 84.7691 31.422H84.7051Z" fill="white"/>
<path d="M81.8899 27.2271C81.474 27.0352 81.0901 26.8433 80.6743 26.6193C80.3864 26.4594 80.0345 26.2995 79.8746 26.0116C79.3947 25.2438 80.3864 24.3162 80.8022 23.7724C81.8898 22.3329 82.8815 20.7975 83.7772 19.198C83.9051 19.0061 83.1694 18.7502 83.0414 19.0061C82.0498 20.8294 80.8662 22.4928 79.6187 24.1562C79.1388 24.764 78.723 25.5637 79.3308 26.2355C79.5867 26.5234 79.9386 26.7153 80.2584 26.8753C80.7063 27.0992 81.1541 27.3231 81.6019 27.547C81.7299 27.611 81.9858 27.643 82.0818 27.547C82.1777 27.4191 81.9858 27.2911 81.8899 27.2591V27.2271Z" fill="#E26E61"/>
<path d="M18.1053 60.4632C18.2013 60.975 18.3292 61.4868 18.3932 61.9986C18.6811 63.4701 19.3848 65.6453 19.0969 67.1488C18.6491 69.4839 15.5782 69.132 13.8189 69.164C13.499 69.164 12.5393 69.292 12.3154 69.132C11.7076 68.7162 11.1318 68.3003 10.5241 67.8845C8.92464 66.7649 7.32523 65.6133 6.23762 64.0139C5.7578 63.3102 5.40592 62.5424 5.05405 61.7747C3.8065 59.1197 2.55896 56.4646 1.31141 53.8096C1.02351 53.2338 0.76761 52.594 0.863575 51.9543C0.95954 51.3145 1.6313 50.7707 2.23908 51.0586C2.7189 51.2825 3.19872 52.2102 3.45463 52.626C4.3503 54.0655 5.24599 55.473 6.14166 56.9125C4.51026 54.1935 2.87883 51.4744 1.82321 48.4995C1.69526 48.1477 1.56731 47.7638 1.63129 47.3479C1.69527 46.9641 1.98317 46.5802 2.36703 46.5482C2.68692 46.5482 3.00679 46.7402 3.23071 46.9641C4.19036 47.8278 4.92609 48.9154 5.62984 50.003C6.26961 50.9626 6.94136 51.9543 7.58113 52.9139C6.23762 50.2909 4.9261 47.6678 3.58258 45.0448C3.39065 44.6929 3.23071 44.341 3.23071 43.9252C3.23071 43.5413 3.45464 43.0935 3.8385 43.0295C4.0944 42.9655 4.3503 43.0295 4.57421 43.1575C5.94972 43.7972 6.5895 45.0448 7.38921 46.2923C8.31687 47.6998 9.21254 49.1393 10.0762 50.5468C10.1722 48.5635 8.76471 46.9641 8.18892 45.1407C7.90102 44.2771 7.67709 42.4857 9.14856 42.8696C9.91628 43.0615 10.684 44.1491 11.1958 44.7249C11.8676 45.5246 12.4754 46.3883 13.0831 47.284C14.0108 48.6595 15.0344 50.067 15.6742 51.6024C16.3459 53.2338 16.7938 55.0252 17.2736 56.7205C17.5935 57.9681 17.9134 59.2156 18.1693 60.4632H18.1053Z" fill="#FFA87D"/>
<path d="M14.8106 28.7956C14.8106 28.1878 14.6827 27.58 14.4907 26.9722C14.4587 26.8443 14.3628 26.6523 14.2348 26.6523C14.1069 26.6523 13.9789 26.7163 13.883 26.8123C12.8913 27.8039 11.9317 28.9555 11.6118 30.331C11.4199 31.1307 11.4199 31.9624 11.4518 32.7941C11.4518 33.4019 11.6758 34.1376 11.6438 34.7454C11.1959 34.4575 11.164 33.8497 10.94 33.4019C10.7161 32.986 10.4922 32.6022 10.2363 32.2503C9.6925 31.5146 8.98874 30.8748 8.12505 30.4909C7.48529 30.2031 6.78155 30.1071 6.10979 30.0431C4.06254 29.8512 1.98328 30.0431 0 30.7149C0.287895 31.3866 0.799717 31.8984 1.4075 32.2823C2.01528 32.6662 2.68703 32.9221 3.35879 33.178C4.22248 33.4979 5.05417 33.8177 5.94984 33.9777C6.3337 34.0417 6.78156 34.0097 7.16542 34.1376C7.51729 34.2336 7.83715 34.3935 8.22101 34.4255C9.11669 34.5215 10.3003 34.4255 10.8441 35.2892C10.0124 35.1932 9.18068 35.2252 8.38097 35.1932C7.51728 35.1613 6.62161 35.0653 5.78991 35.3212C4.95822 35.5771 4.28645 36.1529 3.67867 36.7927C3.16686 37.3045 2.71902 37.8803 2.30317 38.4561C2.65504 38.8079 3.19885 38.9039 3.71066 38.9359C5.24611 39.0319 6.78154 38.7759 8.25301 38.2641C8.63687 38.1362 9.05271 37.9762 9.3726 37.7523C9.98038 37.3365 10.4282 36.5368 11.132 36.2808C11.3239 36.2169 11.3239 36.1209 11.4838 36.2169C11.5798 36.3128 11.6438 36.7927 11.6758 36.9206C11.7717 37.4004 11.8357 37.8803 11.8677 38.3281C11.9637 39.7996 11.8677 41.303 11.8677 42.7745C11.8677 43.0304 12.5395 43.0304 12.5395 42.7745C12.5395 41.399 12.6354 40.0235 12.5395 38.68C12.5075 37.7523 12.3475 36.7927 12.0276 35.929C12.1876 35.5771 12.3155 35.1932 12.4755 34.8094C14.0109 33.242 14.8106 31.0667 14.7147 28.8915L14.8106 28.7956Z" fill="#3C7252"/>
<path d="M20.4407 39.6704C21.0165 39.4145 21.5923 39.2226 22.2001 39.1266C22.36 39.1266 22.5199 39.0946 22.6159 39.2226C22.6799 39.3185 22.6479 39.4785 22.6159 39.6064C22.2001 40.9499 21.5923 42.2935 20.5047 43.2211C19.9609 43.7009 19.3211 44.0528 18.6494 44.3407C18.2015 44.5646 17.1139 44.7885 16.89 45.2684C17.2099 45.1404 17.7217 45.2044 18.0416 45.2044C18.4894 45.2044 18.9372 45.2044 19.4171 45.3004C20.3447 45.4603 21.2404 45.7802 21.9442 46.388C22.488 46.8358 22.9038 47.3796 23.2557 47.9874C24.3753 49.7148 25.111 51.698 25.4309 53.7133C24.7272 53.7773 24.0234 53.5214 23.3837 53.1695C22.7759 52.8176 22.2321 52.3058 21.7202 51.826C21.0485 51.2182 20.3767 50.5784 19.8329 49.8747C19.577 49.5548 19.4171 49.171 19.1612 48.8511C18.9053 48.5632 18.6494 48.3712 18.4254 48.0194C17.9136 47.2517 17.4978 46.1641 16.4741 46.0681C16.4741 46.0681 16.4741 46.0681 16.4422 46.0681C16.89 46.7718 17.2419 47.5076 17.6577 48.2433C18.0736 49.011 18.5854 49.7468 18.7134 50.6104C18.8413 51.4741 18.6494 52.3378 18.3615 53.1375C18.1376 53.8093 17.8496 54.481 17.4978 55.1208C17.018 54.9609 16.6661 54.513 16.4102 54.0652C15.6105 52.7537 15.1626 51.2502 14.9387 49.7148C14.8747 49.2989 14.8427 48.8831 14.9067 48.4672C15.0027 47.7315 15.4825 46.9638 15.4185 46.228C15.4185 46.0361 15.4825 46.0041 15.3226 45.9081C15.1946 45.8442 14.7468 46.0041 14.6188 46.0361C14.139 46.164 13.6912 46.324 13.2753 46.5159C11.9318 47.0917 10.6203 47.8594 9.30876 48.5312C9.08484 48.6591 8.76496 48.0194 8.98888 47.9234C10.2044 47.2836 11.388 46.6119 12.6356 46.0361C13.4992 45.6522 14.3949 45.3324 15.3226 45.2364C15.5785 44.9485 15.8344 44.6286 16.1223 44.3407C16.826 42.2615 18.3935 40.5341 20.4087 39.6704H20.4407Z" fill="#3C7252"/>
<path d="M23.7673 27.3522C23.7673 27.3522 23.5114 27.1922 23.3515 27.1602C22.3918 26.7764 21.4002 26.9683 20.4725 27.2882C19.4489 27.6401 18.4252 27.9599 17.5296 28.5357C17.2737 28.6957 17.6255 28.9196 17.7535 28.9836C18.4892 29.2395 19.257 29.0156 19.9607 28.7596C20.1526 28.6957 20.3445 28.5997 20.5685 28.5357C20.5365 28.6317 20.4725 28.6957 20.4405 28.7916C20.2486 29.2395 20.0247 29.6873 19.8967 30.1352C19.8007 30.455 19.7688 30.7749 19.8967 31.0948C17.6895 34.0697 15.5783 37.0766 13.563 40.1795C10.1403 45.3936 7.00538 50.7996 4.12643 56.3016C2.49502 59.4045 0.92759 62.6034 0.12788 66.0261C0.0319152 66.41 1.27946 66.5059 1.37543 66.0261C2.11116 62.9552 3.48666 60.0763 4.92614 57.2933C6.33363 54.5423 7.80511 51.8553 9.34055 49.1682C12.4434 43.7942 15.8022 38.5801 19.4169 33.5579C19.8967 32.8862 20.3765 32.2464 20.8564 31.5746C21.752 31.4467 22.5198 31.1268 23.2555 30.679C23.2555 31.3187 23.2555 31.9905 23.2555 32.6302C23.2555 33.0461 24.3751 33.0781 24.503 32.7262C24.695 32.1504 24.8229 31.5746 24.9189 30.9668C24.9829 30.487 24.8229 30.1032 24.8869 29.6553C24.9829 28.7596 24.535 27.832 23.7673 27.3202V27.3522Z" fill="#3C7252"/>
<path d="M27.7021 31.6403C27.894 31.6723 28.086 31.7363 28.3099 31.7683C29.4295 31.9922 30.613 32.2161 31.7006 31.8962C32.4044 31.6723 33.0441 31.2564 33.6199 30.7766C33.8758 30.5527 34.1318 30.3288 34.2917 30.0409C34.5796 29.593 34.8355 28.5694 34.1957 28.2815C33.9398 28.1856 33.6199 28.2175 33.364 28.2815C33.1081 28.3455 32.8202 28.4415 32.5323 28.4415C32.8522 28.0256 33.3001 27.7377 33.7159 27.4178C34.1317 27.098 34.5476 26.6821 34.6116 26.1703C34.7075 25.4026 34.1318 24.8588 33.7479 24.283C33.6519 24.123 33.588 23.9631 33.524 23.7712C33.524 23.3873 33.2361 22.8115 33.1401 22.4596C33.0122 21.9798 32.8522 21.5 32.5963 21.0841C31.9565 20.0605 30.9009 19.9326 29.8133 19.6766C29.0776 19.4847 28.3419 19.3248 27.7021 18.9089C27.1903 18.589 26.8064 18.1092 26.3586 17.6934C25.9107 17.2775 25.4309 16.8617 24.8551 16.7337C23.7035 16.4458 22.552 17.5654 21.8802 18.3651C21.4004 18.0132 20.9206 17.6294 20.3767 17.4375C19.801 17.2455 19.1292 17.2775 18.6814 17.6614C18.2335 18.0452 18.1056 18.685 18.1056 19.2928C18.1056 19.9006 18.1696 20.4764 18.0096 21.0521C17.5618 20.9242 17.1779 20.7643 16.7301 20.6043C16.2502 20.4124 15.7064 20.3164 15.1946 20.4124C14.6828 20.5083 14.203 20.7962 13.9471 21.2441C13.5632 21.8838 13.7232 22.7475 14.139 23.3873C14.5549 24.0271 15.1946 24.4749 15.8024 24.8908C16.858 25.6265 18.3615 25.8184 19.1612 26.97C19.5451 27.5138 19.673 28.2495 20.0888 28.8253C20.4727 29.3691 20.9845 29.849 21.6243 30.1049C22.328 30.3608 22.9998 30.2648 23.7035 30.2648C24.4073 30.2648 24.9191 30.6487 25.5269 30.9366C26.2306 31.2884 26.9983 31.4804 27.7661 31.6403H27.7021Z" fill="#F985A6"/>
<path d="M31.6366 28.3468C30.9648 28.5707 30.0692 28.7946 29.3654 28.5387C29.0135 28.4108 28.7256 28.1549 28.4697 27.899C30.3251 27.4511 33.7798 25.6278 32.3084 23.2926C32.0205 22.8128 31.6046 22.269 31.1248 21.9491C30.6769 21.6292 30.1651 21.5972 29.6853 21.4693C29.6533 21.4693 29.6213 21.4693 29.5574 21.4373C29.4934 21.4373 29.4614 21.4053 29.3974 21.3733C28.8216 21.1174 28.3418 20.6696 27.83 20.3177C27.2862 19.9338 26.6784 19.582 26.0706 19.3261C25.4628 19.0702 24.7271 18.8782 24.1193 19.1981C23.7994 19.3581 23.5435 19.7099 23.5435 20.0618C23.0637 19.646 22.6798 19.1022 22.328 18.5903C22.168 18.3664 21.4323 18.4624 21.5922 18.6863C22.0721 19.39 22.5839 20.1258 23.3196 20.5736C23.6715 20.7975 24.0553 20.9255 24.4392 21.0215C24.7911 21.1174 25.2069 21.2134 25.4628 21.5013C25.7827 21.8532 25.7507 22.365 25.8467 22.8128C25.9427 23.2606 26.1666 23.6445 26.3905 24.0284C26.6464 24.4442 26.8383 24.8281 26.8703 25.3399C26.9023 25.8197 26.8064 26.2995 26.7104 26.7794C25.8467 26.3635 24.951 26.0756 24.1513 25.5638C23.0317 24.8281 22.168 23.7405 21.1764 22.8448C20.6966 22.397 20.1528 21.9171 19.513 21.6932C18.9692 21.5333 18.2335 21.5333 17.7856 22.0131C17.3378 22.4929 17.4338 23.2287 17.5617 23.8044C17.7536 24.6361 18.0095 25.4678 18.3614 26.2356C18.4574 26.4595 19.2251 26.3955 19.0971 26.1396C18.7773 25.4359 18.5533 24.7321 18.3614 23.9644C18.2335 23.4526 18.0735 22.7808 18.3614 22.269C18.8093 21.5972 19.609 22.269 20.0248 22.6209C20.5366 23.0367 20.9845 23.5165 21.4323 23.9644C22.328 24.8601 23.2236 25.7237 24.3752 26.2676C24.951 26.5554 25.5908 26.7794 26.1666 27.0673C26.7743 27.3552 27.2862 27.707 27.766 28.1869C28.3098 28.6987 28.8216 29.0186 29.5893 29.0825C30.389 29.1465 31.1888 29.0186 31.9565 28.7626C32.0844 28.7307 32.2124 28.6347 32.0844 28.5067C31.9885 28.3788 31.7006 28.3788 31.5726 28.4428L31.6366 28.3468ZM24.2793 20.5096C24.2793 20.5096 24.2793 20.5096 24.2473 20.5096C24.3432 20.4777 24.4072 20.4137 24.3432 20.3177C24.1193 19.9338 24.4712 19.422 24.919 19.422C25.4308 19.422 26.0386 19.8059 26.4864 20.0618C27.3821 20.5736 28.1179 21.3733 29.0775 21.7252C29.0775 21.7252 29.1415 21.7252 29.1735 21.7252C29.5893 22.1091 30.1331 22.5249 30.3571 23.0687C30.517 23.4846 30.357 24.1883 29.8132 24.0923C29.5253 24.0284 29.2694 23.8364 29.0135 23.6445C28.7576 23.4526 28.4697 23.2287 28.2138 23.0047C27.67 22.5569 27.1582 22.0771 26.6784 21.5972C26.6144 21.5333 26.4865 21.5013 26.3585 21.5333C26.3585 21.5333 26.3585 21.5013 26.3265 21.4693C25.8787 20.8295 25.015 20.7655 24.3113 20.5096H24.2793ZM27.766 27.3232C27.766 27.3232 27.4781 27.1312 27.3182 27.0353C27.3821 27.0353 27.4461 26.9393 27.4781 26.8753C27.5741 26.3635 27.702 25.8197 27.67 25.2759C27.638 24.7961 27.4461 24.3802 27.2222 23.9644C26.9983 23.5805 26.7424 23.1967 26.6464 22.7808C26.6144 22.6209 26.5824 22.4929 26.5824 22.333C27.0303 22.7488 27.4781 23.1327 27.9579 23.5165C28.5657 23.9964 29.1735 24.5082 29.9732 24.4762C30.6769 24.4762 31.2847 23.9964 31.1568 23.2287C31.0928 22.8128 30.8049 22.4609 30.485 22.141C30.485 22.141 30.517 22.141 30.549 22.173C30.9328 22.4929 31.2527 22.9088 31.5406 23.3246C31.8285 23.7725 32.0204 24.2843 31.8605 24.7961C31.7325 25.2439 31.4127 25.6278 31.0608 25.9477C30.2291 26.7154 29.2055 27.2592 28.0859 27.5471C27.9899 27.4511 27.862 27.3552 27.766 27.2912V27.3232Z" fill="#C14F6B"/>
<path d="M10.908 56.6845C11.1639 55.8848 11.6117 55.117 11.7077 54.2853C11.8676 52.8459 10.9399 51.5023 10.3002 50.1908C9.75636 49.0073 9.37249 47.7597 9.24454 46.4482C9.21255 46.0323 9.21256 45.5525 9.53245 45.2646C9.82034 45.0087 10.3322 45.0087 10.684 45.1686C11.0679 45.3606 11.3238 45.6805 11.5797 45.9684C12.5713 47.2159 13.3711 48.6234 14.1388 49.9989C15.2584 51.9822 16.0261 54.0934 16.6339 56.3006C16.8578 57.0683 17.0177 57.868 17.0497 58.6677C17.0817 59.7234 16.8898 60.779 16.41 61.7386C15.9301 62.7303 14.6186 63.7219 13.403 63.466C10.4281 62.8582 10.1402 58.8277 10.844 56.6525L10.908 56.6845Z" fill="#FFA87D"/>
<path d="M14.1069 49.3008C13.4671 48.2452 12.7954 47.2216 12.0916 46.2299C11.5158 45.4622 10.8121 44.4066 9.69249 44.7904C8.70085 45.1103 9.05274 46.5178 9.21269 47.2535C9.4366 48.3092 9.82046 49.3008 10.2043 50.2924C10.6522 51.476 11.1 52.6916 11.2599 53.9391C11.2599 54.163 11.9317 54.163 11.8997 53.9391C11.6758 52.0518 10.8121 50.3564 10.2043 48.5651C9.91642 47.7014 9.6605 46.7417 9.69249 45.8141C9.69249 45.3023 9.9804 44.7585 10.5562 45.1743C10.972 45.4622 11.2599 45.942 11.5478 46.3579C12.2516 47.3175 12.9233 48.3412 13.5311 49.3648C13.6271 49.5567 14.2669 49.4927 14.1389 49.2688L14.1069 49.3008Z" fill="#E26E61"/>
<path d="M13.0513 63.4373C11.228 61.55 10.5242 58.639 11.292 56.1119C11.3559 55.856 10.7482 55.824 10.6842 56.016C9.88449 58.639 10.5882 61.5819 12.5075 63.5652C12.6355 63.7252 13.2433 63.5972 13.0513 63.4053V63.4373Z" fill="#E26E61"/>
<path d="M54.3803 96.8005C57.1633 92.5141 59.9143 88.2596 62.6973 83.9732C65.3843 79.8147 68.4552 75.3683 69.191 70.4421C69.6388 67.4672 69.8307 64.3643 69.127 61.3894C68.8391 60.2058 68.4552 58.3505 67.1757 57.8707C66.4079 57.5828 65.0005 57.8067 64.1688 57.7427C61.4498 57.5828 58.6348 57.2949 55.9797 58.0626C53.4207 58.7983 52.6529 61.0695 51.9812 63.4367C50.2538 69.3545 47.8547 75.0804 44.8478 80.4865C43.9841 82.0539 43.5682 84.0692 42.6086 85.5726C41.9368 86.6282 40.8492 87.364 40.1775 88.5156C38.706 91.1066 38.2902 94.2415 38.3222 97.1844C38.3222 99.4876 38.674 101.919 40.1135 103.71C44.7198 109.404 51.7253 100.831 54.1244 97.1204C54.1884 97.0245 54.2524 96.8965 54.3163 96.8005H54.3803Z" fill="#F985A6"/>
<path d="M69.4148 68.5267C69.3508 69.1665 69.2549 69.8062 69.1589 70.446C68.935 71.9815 68.4871 73.4529 67.9113 74.8604C66.216 73.5809 64.5206 72.2693 62.8572 70.9258C62.2494 70.414 61.6416 69.9022 61.0018 69.3264C59.7543 68.2388 58.5068 67.0872 57.0993 66.2235C55.3079 65.104 53.7085 63.5685 52.365 62.161C53.0048 60.3057 53.8684 58.6423 55.9797 58.0665C57.4511 57.6507 58.9546 57.5547 60.458 57.5547C61.7056 57.5547 62.9532 57.6826 64.1687 57.7466C65.0004 57.8106 66.4079 57.5867 67.1756 57.8746C68.4551 58.3544 68.807 60.2097 69.1269 61.3933C69.7027 63.7284 69.7027 66.1276 69.4468 68.4947L69.4148 68.5267Z" fill="#F985A6"/>
<path d="M49.742 96.6079C49.742 98.8471 49.0702 101.278 47.5348 102.942C46.3192 104.253 43.7921 105.565 42.0008 105.181C40.9132 104.925 39.9855 104.189 39.1218 103.485C37.2985 101.95 35.5711 100.255 33.8757 98.5272C31.1247 95.7122 28.5657 92.6733 26.1345 89.6984C22.4879 85.22 19.0971 80.5178 15.8663 75.7515C15.2905 74.9198 14.7467 74.0881 14.1709 73.2564C13.691 72.5527 13.1472 71.8809 12.6994 71.1452C12.4435 70.7293 11.5478 69.6417 11.8037 69.1299C11.9317 68.874 12.2196 68.714 12.4755 68.5861C14.4588 67.4025 16.1222 65.7711 17.9135 64.2677C18.2974 63.9478 18.9052 63.6279 19.257 63.9798C20.8884 65.5472 22.2 67.3705 23.6714 69.0659C23.9593 69.3858 24.2472 69.7057 24.5671 70.0256C27.1262 72.6486 29.7812 75.1757 32.5642 77.5748C37.0106 81.4134 42.3207 84.3884 46.5751 88.3549C48.7823 90.4342 49.774 93.601 49.742 96.6399V96.6079Z" fill="#F985A6"/>
<path d="M23.6714 69.0659C21.1443 71.3691 18.4893 73.5443 15.8342 75.7515C15.2584 74.9198 14.7146 74.0881 14.1389 73.2564C13.659 72.5527 13.1152 71.8809 12.6674 71.1452C12.4115 70.7293 11.5158 69.6417 11.7717 69.1299C11.8996 68.874 12.1875 68.714 12.4434 68.5861C14.4267 67.4025 16.0901 65.7711 17.8815 64.2677C18.2653 63.9478 18.8731 63.6279 19.225 63.9798C20.8564 65.5472 22.1679 67.3705 23.6394 69.0659H23.6714Z" fill="#FDCBD6"/>
<path d="M98.9721 107.103C100.795 105.439 101.723 103.392 102.043 100.129C102.619 94.2754 104.41 88.5494 107.225 83.3993C109.336 79.5607 112.023 75.978 113.559 71.8515C114.071 70.476 116.086 63.5665 113.335 63.6945C108.121 63.9504 103.355 66.4135 98.4923 68.3008C90.8471 71.2437 82.69 72.8112 74.501 72.8751C73.4774 72.8751 72.4218 72.8751 71.5581 72.3633C70.6944 71.8515 70.1506 70.9878 69.5748 70.1561C68.1993 68.1089 66.6319 66.1896 64.8725 64.4622C64.1688 63.7584 63.4011 63.0867 62.4094 62.8628C58.8267 62.0631 59.4025 70.348 59.3065 72.4913C59.0826 76.9696 59.2426 81.48 59.8184 85.9264C60.3622 90.2768 61.5777 94.3073 62.6333 98.4978C63.1771 100.577 63.0172 102.624 63.2091 104.704C63.4011 106.719 64.2967 108.222 65.3204 110.014C67.8155 114.364 70.6304 118.746 74.1172 122.329C74.2131 122.425 74.3411 122.553 74.501 122.585C74.6929 122.617 74.8849 122.521 75.0448 122.457C77.412 121.21 79.5872 119.674 81.7304 118.107C82.818 117.307 83.9376 116.507 85.0572 115.74C86.0488 115.068 87.1684 114.684 88.1601 113.98C89.2477 113.244 90.1433 112.317 91.2629 111.677C92.5105 110.973 93.758 110.27 95.0376 109.63C96.637 108.798 97.9165 107.998 98.9401 107.103H98.9721Z" fill="#F985A6"/>
<path d="M158.79 163.27C158.79 163.27 158.822 163.494 158.854 163.622L159.206 165.797C159.302 166.405 159.622 167.269 159.462 167.845C159.206 168.996 157.831 168.293 157.255 167.813C155.751 166.533 154.472 165.03 153.448 163.334C152.521 161.863 150.633 161.031 149.002 160.551C146.379 159.784 143.564 159.976 141.005 159.016C138.702 158.12 138.382 155.561 137.806 153.386C137.422 151.915 136.59 150.315 138.254 149.323C138.702 149.036 139.245 148.94 139.757 148.812C140.589 148.62 141.389 148.46 142.22 148.3C143.212 148.108 144.236 147.916 145.227 148.14C146.347 148.396 147.243 149.196 148.106 149.931C150.121 151.691 152.137 153.45 154.152 155.241C155.464 156.393 156.807 157.576 157.607 159.112C158.279 160.391 158.534 161.831 158.79 163.27Z" fill="#FFA87D"/>
<path d="M148.65 150.539C147.339 151.371 145.707 151.531 144.14 151.658C142.54 151.786 140.909 151.85 139.31 151.882C138.478 151.882 137.582 151.882 136.846 151.467C136.143 151.051 135.695 150.283 135.279 149.547C134.383 147.98 133.488 146.412 132.592 144.877C131.6 143.214 130.609 141.55 129.617 139.887C126.994 135.568 124.275 131.314 121.364 127.155C118.485 123.029 115.734 118.774 113.463 114.264C112.247 111.833 111.544 109.178 110.936 106.555C108.793 97.1503 107.545 87.5537 107.257 77.9252C107.161 74.9503 107.161 71.9434 107.897 69.0325C109.368 63.1466 114.455 58.6043 120.66 58.5723C121.524 58.5723 122.388 58.6682 123.155 59.0521C125.203 60.1077 125.235 62.3149 125.171 64.2662C125.043 67.3051 125.491 70.44 125.619 73.4789C125.842 79.7166 125.97 85.9863 126.002 92.224C126.002 97.758 125.715 104.188 128.402 109.21C129.585 111.449 131.121 113.624 132.24 115.736C133.52 118.167 134.767 120.598 135.951 123.061C138.222 127.699 140.397 132.401 142.54 137.104C142.732 137.552 143.756 139.631 144.876 142.03C146.667 145.837 148.842 150.411 148.682 150.507L148.65 150.539Z" fill="#F985A6"/>
<path d="M111.992 72.4218L107.289 73.3494C107.385 71.9099 107.545 70.4705 107.897 69.063C107.929 68.935 107.961 68.8071 107.993 68.6791C109.336 63.8809 113.079 60.0423 117.877 58.9547C118.773 58.7627 119.701 58.6348 120.66 58.6348C121.524 58.6348 122.388 58.7307 123.155 59.1146C125.203 60.1702 125.235 62.3774 125.171 64.3287C125.107 65.5762 125.171 66.8878 125.235 68.1673C124.307 68.7431 123.315 69.3509 122.26 69.7667C118.997 71.1422 115.414 71.814 111.992 72.4857V72.4218Z" fill="#F985A6"/>
<path d="M141.805 159.913C142.381 160.233 143.02 160.457 143.66 160.585C145.707 161.033 147.979 160.745 149.866 161.769C150.953 162.344 151.849 163.336 153.065 163.624C153.449 163.72 153.864 163.72 154.184 163.496C154.632 163.144 154.6 162.44 154.344 161.929C154.088 161.417 153.608 161.065 153.289 160.617C152.553 159.657 152.329 158.474 151.817 157.418C151.209 156.075 150.41 155.659 149.034 155.243C146.699 154.539 144.364 153.196 141.837 153.388C139.598 153.548 137.87 155.147 139.086 157.322C139.726 158.442 140.653 159.338 141.773 159.945L141.805 159.913Z" fill="#FFA87D"/>
<path d="M158.151 167.395C157.575 166.404 157.095 165.348 156.68 164.293C156.488 163.845 156.328 163.397 155.976 163.045C155.624 162.661 155.144 162.469 154.664 162.277C154.632 162.277 154.6 162.277 154.536 162.277C154.152 161.158 153.001 159.654 152.777 159.27C152.361 158.471 152.297 157.543 151.817 156.775C151.305 155.944 150.346 155.72 149.45 155.432C148.299 155.08 147.019 154.824 146.027 154.12C145.899 154.024 145.74 154.024 145.612 154.056C145.516 154.056 145.388 154.184 145.484 154.28C146.187 154.824 147.051 155.08 147.883 155.336C148.363 155.496 148.874 155.624 149.354 155.784C149.802 155.912 150.282 156.04 150.666 156.295C151.401 156.775 151.561 157.671 151.785 158.439C152.041 159.238 152.489 159.91 152.969 160.614C153.225 160.998 153.513 161.382 153.705 161.829C153.801 162.053 153.897 162.277 153.961 162.533C153.993 162.725 154.088 163.269 153.769 163.301C153.673 163.301 153.513 163.365 153.545 163.493C153.577 163.621 153.833 163.621 153.929 163.621C154.536 163.557 154.664 163.205 154.6 162.725C154.952 162.885 155.272 163.077 155.496 163.397C155.784 163.781 155.912 164.229 156.104 164.644C156.488 165.636 156.967 166.596 157.479 167.523C157.575 167.715 158.215 167.651 158.087 167.427L158.151 167.395Z" fill="#E26E61"/>
<path d="M148.65 150.538C147.339 151.37 145.707 151.53 144.14 151.658C142.541 151.786 140.909 151.85 139.31 151.882C138.478 151.882 137.582 151.882 136.847 151.466C136.143 151.05 135.695 150.282 135.279 149.547C134.384 147.979 133.488 146.412 132.592 144.876C133.008 144.748 133.424 144.62 133.808 144.524C137.039 143.821 141.133 142.413 144.844 142.029C146.635 145.836 148.81 150.41 148.65 150.506V150.538Z" fill="#FDCBD6"/>
<path d="M127.538 57.1367C127.218 56.465 126.962 55.9212 126.61 55.3774C126.354 54.9615 126.098 54.6416 125.81 54.3537C125.459 53.9699 125.075 53.65 124.595 53.3941C124.147 53.1382 123.731 52.9143 123.347 52.7223C122.164 52.1785 121.012 51.8586 119.925 51.7947C118.101 51.6667 116.406 52.3065 114.774 52.8823C114.327 53.0422 113.879 53.2022 113.431 53.3621C114.231 53.65 115.03 53.9699 115.734 54.4177C117.142 53.9059 118.453 53.4901 119.797 53.554C120.66 53.618 121.588 53.8739 122.58 54.3218C122.931 54.4817 123.283 54.6736 123.667 54.8975C123.987 55.0895 124.243 55.2814 124.499 55.5693C124.691 55.7612 124.883 56.0171 125.075 56.305C125.363 56.7529 125.586 57.2647 125.906 57.8725C126.834 59.8238 127.858 62.7987 127.282 65.9015V66.0615C127.282 66.0615 127.218 66.2534 127.186 66.3494C127.058 66.9252 126.802 67.0851 126.098 67.501C125.97 67.5649 125.842 67.6609 125.714 67.7249C125.65 67.7569 125.618 67.7889 125.523 67.8528C125.395 67.9168 125.299 68.0128 125.171 68.0768C125.203 68.7485 125.267 69.3883 125.299 70.06C125.682 69.8361 126.066 69.5802 126.45 69.3563C126.514 69.3243 126.578 69.2603 126.642 69.2283C126.77 69.1644 126.866 69.1004 126.994 69.0044C127.73 68.5566 128.593 68.0448 128.881 66.7013C128.881 66.6053 128.913 66.5413 128.945 66.4454L129.169 66.2214L129.041 65.9015C129.457 63.1505 128.913 60.1116 127.474 57.0408L127.538 57.1367ZM64.8405 48.6918C64.1688 48.02 63.4011 47.3483 62.4414 46.9644C60.5221 46.1967 58.4429 46.9004 57.0354 47.4762C55.4999 48.116 54.1884 48.8837 53.1008 49.7794C52.4291 50.3232 51.7893 50.931 51.2455 51.5708C50.7657 52.1465 50.2858 52.7863 49.87 53.4901C48.9423 54.9935 48.0466 56.7849 48.3345 58.7362C48.5904 60.4635 49.71 61.871 50.7657 63.0226C51.0855 63.3745 51.4374 63.7263 51.7893 64.1102C51.8533 63.8863 51.9172 63.6624 51.9812 63.4704C52.1092 63.0546 52.2371 62.6067 52.3651 62.1909C52.2691 62.0629 52.1412 61.967 52.0452 61.839C51.1815 60.9114 50.2538 59.7598 50.0939 58.5122C49.902 57.1047 50.6377 55.6653 51.4054 54.4177C51.7893 53.7779 52.2051 53.2342 52.621 52.7223C53.1008 52.1465 53.6446 51.6347 54.2204 51.1549C55.212 50.3552 56.3636 49.6834 57.7391 49.1076C58.8587 48.6278 59.8184 48.4039 60.6181 48.4039C61.0659 48.4039 61.4498 48.4679 61.8016 48.6278C62.4734 48.8837 63.0492 49.4275 63.625 50.0033C63.7529 50.1313 63.8489 50.2272 63.9768 50.3552C64.5846 50.1313 65.1924 49.9074 65.8322 49.7154C65.5123 49.3955 65.1924 49.0757 64.8725 48.7558L64.8405 48.6918Z" fill="#5E93BF"/>
<path d="M128.21 66.0923C128.21 66.2522 128.146 66.4122 128.114 66.5721C127.858 67.6917 127.154 67.9796 126.258 68.5234C126.194 68.5554 126.13 68.6194 126.066 68.6514C124.947 69.3551 123.859 70.0269 122.612 70.5387C118.997 72.0421 115.126 72.7139 111.32 73.4496L109.017 73.8975L106.682 74.3453L98.5884 75.9127C93.9821 76.8084 89.3438 77.7041 84.7375 78.5998C82.4343 79.0476 80.1311 79.4954 77.796 79.9433C76.4205 80.1992 75.2049 80.9989 73.9574 80.2312C72.5819 79.3675 71.2384 78.3758 69.9269 77.4162C67.3038 75.5289 64.7767 73.5776 62.2816 71.5623C60.4263 70.0589 58.635 68.2035 56.6197 66.956C54.6684 65.7404 52.941 64.077 51.3736 62.3816C50.35 61.294 49.3903 60.0465 49.1664 58.575C48.9425 56.9436 49.7102 55.3122 50.5739 53.9047C50.9897 53.233 51.4056 52.6572 51.8854 52.1134C52.4292 51.4736 53.005 50.9298 53.6128 50.418C54.7004 49.5543 55.9479 48.8506 57.3554 48.2428C58.8589 47.603 60.5863 47.1232 62.0897 47.731C62.9214 48.0509 63.5612 48.6586 64.2009 49.2664C69.2871 54.2566 73.1897 60.3344 78.3078 65.3246C78.6277 65.6125 78.9476 65.9324 79.3314 66.0923C79.8752 66.3162 80.451 66.2522 81.0268 66.1563C82.8502 65.8364 84.6095 65.1966 86.3369 64.4609C87.0407 64.173 87.7444 63.8531 88.4481 63.5332C88.5121 63.5332 88.5441 63.5012 88.6081 63.4693C94.0141 61.1021 99.4841 58.9269 105.05 56.9756C107.833 56.016 110.616 55.0883 113.431 54.2566C115.51 53.6168 117.654 52.4972 119.893 52.6572C120.98 52.7212 122.004 53.041 122.996 53.4889C123.411 53.6808 123.795 53.9047 124.179 54.1286C124.563 54.3526 124.915 54.6405 125.171 54.9284C125.427 55.2163 125.651 55.5041 125.875 55.824C126.194 56.3358 126.45 56.8797 126.738 57.4874C128.018 60.1425 128.722 63.1494 128.21 66.0603V66.0923Z" fill="white"/>
<path d="M53.6444 50.4492C53.6444 50.8331 53.5804 51.2169 53.5804 51.4409C53.5804 51.7607 53.0686 52.3685 52.7488 52.3045C52.5888 52.3045 52.4289 52.1446 52.2369 52.1446C52.141 52.1446 52.013 52.1446 51.9171 52.1446C52.4609 51.5048 53.0366 50.961 53.6444 50.4492Z" fill="#1B282D"/>
<path d="M62.7612 53.2021C62.7612 52.5303 63.113 50.5151 62.2813 50.4191C61.8335 50.3551 60.7459 50.1952 60.6819 50.8669C60.6179 51.4427 60.298 53.426 60.8099 53.8419C60.9698 53.9698 61.2257 53.8738 61.4496 53.9058C61.6415 53.9058 61.7695 54.0338 61.9614 54.0658C62.3133 54.1298 62.8251 53.522 62.7931 53.2021H62.7612Z" fill="#1B282D"/>
<path d="M125.202 54.9622C125.202 54.9622 125.202 55.1541 125.202 55.2181C125.202 55.538 124.691 56.1457 124.371 56.0818C124.179 56.0818 124.051 55.9218 123.859 55.9218C123.635 55.9218 123.379 56.0178 123.219 55.8579C122.835 55.538 122.931 54.3544 123.027 53.5547C123.443 53.7466 123.827 53.9705 124.211 54.1945C124.595 54.4184 124.946 54.7063 125.202 54.9942V54.9622Z" fill="#1B282D"/>
<path d="M56.8434 62.124C56.8434 61.4522 57.1952 59.4369 56.3635 59.341C55.9157 59.277 54.8281 59.1171 54.7641 59.7888C54.7001 60.3646 54.3803 62.3479 54.8921 62.7637C55.052 62.8917 55.3079 62.7637 55.5318 62.8277C55.7238 62.8277 55.8517 62.9557 56.0437 62.9876C56.3955 63.0516 56.9073 62.4438 56.8753 62.124H56.8434Z" fill="#1B282D"/>
<path d="M72.5814 63.8857C72.5814 63.2139 72.9333 61.1987 72.1016 61.1027C71.6537 61.0387 70.5661 60.8788 70.5022 61.5505C70.4382 62.1263 70.1183 64.1096 70.6301 64.5254C70.7901 64.6534 71.0459 64.5254 71.2699 64.5894C71.4618 64.5894 71.5898 64.7174 71.7817 64.7494C72.1336 64.8133 72.6454 64.2056 72.6134 63.8857H72.5814Z" fill="#1B282D"/>
<path d="M88.6078 63.5C88.6078 63.8519 88.5438 64.1718 88.5438 64.3957C88.5438 64.7156 88.032 65.3233 87.7121 65.2594C87.5201 65.2594 87.3922 65.0994 87.2003 65.0994C86.9763 65.0994 86.7204 65.1954 86.5605 65.0354C86.4325 64.9395 86.3686 64.7475 86.3366 64.5236C87.0403 64.2357 87.7441 63.9159 88.4478 63.596C88.5118 63.596 88.5438 63.564 88.6078 63.532V63.5Z" fill="#1B282D"/>
<path d="M102.523 62.124C102.523 61.4522 102.875 59.4369 102.043 59.341C101.595 59.277 100.508 59.1171 100.444 59.7888C100.38 60.3646 100.06 62.3479 100.572 62.7637C100.732 62.8917 100.987 62.7637 101.211 62.8277C101.403 62.8277 101.531 62.9557 101.723 62.9876C102.075 63.0516 102.587 62.4438 102.555 62.124H102.523Z" fill="#1B282D"/>
<path d="M117.493 62.124C117.493 61.4522 117.845 59.4369 117.013 59.341C116.566 59.277 115.478 59.1171 115.414 59.7888C115.35 60.3646 115.03 62.3479 115.542 62.7637C115.702 62.8917 115.958 62.7637 116.182 62.8277C116.374 62.8277 116.502 62.9557 116.694 62.9876C117.045 63.0516 117.557 62.4438 117.525 62.124H117.493Z" fill="#1B282D"/>
<path d="M128.21 66.0909C128.21 66.2508 128.146 66.4107 128.114 66.5707C127.858 67.6903 127.154 67.9782 126.258 68.522C126.194 68.554 126.13 68.6179 126.066 68.6499C125.746 68.0102 126.034 66.3787 126.066 65.8669C126.13 65.1952 127.25 65.3551 127.666 65.4191C127.954 65.4511 128.114 65.739 128.178 66.0909H128.21Z" fill="#1B282D"/>
<path d="M66.536 71.3388C66.536 70.6671 66.8878 68.6518 66.0561 68.5558C65.6083 68.4918 64.5207 68.3319 64.4567 69.0037C64.3927 69.5794 64.0729 71.5627 64.5847 71.9786C64.7446 72.1065 65.0005 71.9786 65.2244 72.0425C65.4164 72.0425 65.5443 72.1705 65.7363 72.2025C66.0881 72.2665 66.5999 71.6587 66.568 71.3388H66.536Z" fill="#1B282D"/>
<path d="M78.7554 76.1376C78.7554 75.4659 79.1072 73.4506 78.2755 73.3546C77.8277 73.2907 76.7401 73.1307 76.6761 73.8025C76.6121 74.3783 76.2922 76.3616 76.8041 76.7774C76.964 76.9054 77.2199 76.8094 77.4438 76.8414C77.6357 76.8414 77.7637 76.9693 77.9556 77.0013C78.3075 77.0653 78.8193 76.4575 78.7873 76.1376H78.7554Z" fill="#1B282D"/>
<path d="M93.9819 74.3759C93.9819 73.7042 94.3337 71.6889 93.502 71.5929C93.0542 71.5289 91.9666 71.369 91.9026 72.0408C91.8386 72.6166 91.5187 74.5998 92.0306 75.0157C92.1905 75.1436 92.4464 75.0157 92.6703 75.0797C92.8622 75.0797 92.9902 75.2076 93.1821 75.2396C93.534 75.3036 94.0458 74.6958 94.0138 74.3759H93.9819Z" fill="#1B282D"/>
<path d="M109.017 73.9279L106.682 74.3758C106.682 73.736 106.809 73.0962 106.841 72.8083C106.905 72.1366 108.025 72.2965 108.441 72.3605C108.953 72.4245 109.017 73.1922 109.017 73.9279Z" fill="#1B282D"/>
<path d="M195.609 309.015C190.747 311.67 185.532 313.685 180.126 314.965C171.458 317.012 162.501 317.332 153.64 317.588C135.023 318.132 116.406 317.908 97.8203 316.532C88.5437 315.828 79.267 314.997 69.9584 314.741C65.3521 314.613 60.7458 314.581 56.1394 314.805C49.7737 315.093 43.6959 315.381 37.3942 313.973C38.2579 308.215 39.0256 302.425 39.7294 296.635C45.0395 295.58 50.5095 295.228 55.9155 295.228C75.4604 295.228 94.7494 299.418 114.166 301.658C133.583 303.897 153.928 304.025 171.905 296.348C178.751 293.405 185.117 289.406 192.186 287.039C194.425 286.303 196.76 285.727 199.128 285.439C200.919 289.822 202.742 294.204 204.566 298.587C204.885 299.386 205.077 300.09 205.109 300.73C205.461 305.304 199.639 306.872 195.673 309.047L195.609 309.015Z" fill="#FDCBD6"/>
<path d="M105.05 17.2806C105.337 19.4558 105.401 21.695 105.337 23.9022C105.178 28.8923 106.297 34.5543 108.44 39.0966C111.223 45.0145 115.862 49.8128 119.22 55.4107C121.875 59.8251 122.067 66.4787 121.364 71.4689C121.076 73.5161 120.596 75.6274 121.044 77.6426C121.492 79.562 122.739 81.1614 123.379 83.0167C124.243 85.4478 124.019 88.1988 123.155 90.6299C122.419 92.6772 121.14 95.1723 119.508 96.6438C118.005 98.0193 116.597 98.627 116.054 100.834C115.67 102.338 115.766 103.905 116.054 105.441C116.437 107.808 117.237 110.111 118.389 112.254C118.389 112.222 115.894 111.87 115.574 111.806C111.927 110.975 109.912 108.671 107.96 105.728C106.937 103.457 106.681 100.866 105.305 98.755C104.57 97.6034 103.514 96.6757 102.586 95.6841C98.8118 91.6216 96.9565 85.4798 98.9718 80.3297C99.3236 79.434 99.7715 78.5703 100.059 77.6426C100.443 76.2671 100.411 74.7957 99.9314 73.4522C99.3876 71.9807 98.364 70.7332 97.5643 69.3896C95.0692 65.2951 94.4614 60.3049 95.7409 55.7306C96.5406 52.8516 97.5963 49.9087 97.1484 46.9658C96.9245 45.5583 96.3487 44.2148 95.8689 42.8713C93.6297 36.4416 93.5977 29.2762 95.8049 22.8465C92.798 19.2319 91.9343 14.8175 90.6548 10.4031C90.3349 9.31545 90.015 8.16387 89.3113 7.23621C88.1597 5.66878 85.9845 4.93304 84.0972 5.44486C82.4018 5.92468 81.0263 7.30018 79.2669 7.42814C79.2669 7.04428 79.3949 6.62843 79.6508 6.34053C79.8107 6.1486 80.1946 6.30854 80.4505 6.18059C80.8983 6.02065 81.2822 5.66878 81.698 5.44486C82.4338 4.99702 83.1375 4.54918 83.9692 4.26129C86.8482 3.23766 90.143 3.01374 93.0539 3.97339C94.7173 4.51719 96.2208 5.44486 97.6922 6.40451C98.8118 7.14024 100.091 7.78001 100.987 8.77165C102.011 9.89124 103.034 11.2028 103.898 12.4503C104.794 13.7618 104.954 15.7451 105.178 17.2806H105.05Z" fill="#E86319"/>
<path d="M104.634 24.9233C100.54 22.1403 97.3087 18.1418 95.4214 13.5994C94.8776 12.2879 94.4298 10.9764 94.1099 9.60088C94.0459 9.31298 93.3102 9.37696 93.3421 9.60088C94.4617 14.4951 97.0528 18.9735 100.667 22.4602C101.691 23.4519 102.811 24.3475 103.994 25.1472C104.154 25.2432 104.346 25.2752 104.506 25.2112C104.602 25.2112 104.794 25.0513 104.634 24.9553V24.9233Z" fill="#D1A169"/>
<path d="M106.233 23.5174C105.689 23.1016 105.146 22.6537 104.634 22.2379C104.506 22.1419 104.282 22.1099 104.122 22.1739C104.026 22.2059 103.834 22.3339 103.994 22.4298C104.538 22.8457 105.082 23.2935 105.593 23.7094C105.721 23.8053 105.945 23.8373 106.105 23.7733C106.201 23.7413 106.393 23.6134 106.233 23.5174Z" fill="#D1A169"/>
<path d="M105.913 30.5533C102.075 29.2417 99.2597 26.1069 96.6366 23.1959C96.4767 23.004 95.7409 23.1319 95.9969 23.3879C98.7159 26.3948 101.595 29.5296 105.561 30.9051C105.689 30.9371 105.977 30.9691 106.073 30.8411C106.169 30.7132 106.073 30.6172 105.945 30.5852L105.913 30.5533Z" fill="#D1A169"/>
<path d="M107.225 12.0335C106.425 9.05853 104.57 6.4035 102.011 4.64414C101.851 4.54817 101.659 4.51618 101.499 4.58016C101.403 4.58016 101.211 4.7401 101.371 4.83607C103.866 6.59543 105.69 9.18649 106.489 12.1294C106.553 12.3533 107.289 12.3213 107.225 12.0335Z" fill="#D1A169"/>
<path d="M72.8054 23.6135C71.4299 21.8541 71.334 19.5829 71.5899 17.4717C71.5899 17.2158 70.8541 17.1838 70.8221 17.4717C70.5662 19.6149 70.6622 21.9501 72.0697 23.7094C72.1656 23.8374 72.3896 23.8694 72.5495 23.8374C72.6135 23.8374 72.9334 23.7414 72.8054 23.6135Z" fill="#D1A169"/>
<path d="M113.015 65.9039C112.247 63.7287 111.128 61.6495 109.688 59.8261C107.993 57.7149 105.85 56.0195 103.93 54.1002C101.723 51.893 99.7397 49.4619 98.0123 46.9028C97.8524 46.6789 97.1487 46.7749 97.2766 46.9988C98.8121 49.238 100.507 51.3812 102.363 53.3645C103.29 54.3561 104.282 55.2838 105.274 56.2115C106.297 57.1391 107.321 58.0668 108.217 59.0904C111.32 62.5452 113.111 67.1195 113.399 71.7578C113.559 74.3489 113.239 77.0039 112.407 79.467C112.311 79.7549 113.047 79.8189 113.143 79.563C114.614 75.1486 114.518 70.2863 112.983 65.872L113.015 65.9039Z" fill="#D1A169"/>
<path d="M110.04 74.2505C110.104 76.9056 109.592 79.5286 108.505 81.9277C108.377 82.1836 109.144 82.2796 109.24 82.0237C110.328 79.5606 110.872 76.9056 110.808 74.2505C110.808 73.9946 110.04 73.9946 110.04 74.2505Z" fill="#D1A169"/>
<path d="M105.146 93.1545C102.523 91.0752 100.987 87.7804 100.987 84.4536C100.987 84.1977 100.219 84.1977 100.219 84.4536C100.219 87.8764 101.819 91.2032 104.474 93.3464C104.602 93.4424 104.826 93.4744 104.986 93.4104C105.082 93.3784 105.274 93.2505 105.114 93.1545H105.146Z" fill="#D1A169"/>
<path d="M118.485 56.5588C118.037 55.6312 117.493 54.7355 116.885 53.9038C116.725 53.6799 115.99 53.8078 116.15 53.9998C118.261 56.9107 119.508 60.4614 119.668 64.0761C119.7 65.0997 119.668 66.1554 119.54 67.179C119.54 67.4349 120.276 67.4669 120.308 67.179C120.756 63.5643 120.116 59.8217 118.485 56.5588Z" fill="#D1A169"/>
<path d="M113.975 108.351C111.959 107.935 110.328 106.271 109.784 104.352C109.72 104.128 108.984 104.16 109.048 104.448C109.688 106.623 111.575 108.255 113.783 108.734C113.911 108.734 114.198 108.734 114.262 108.606C114.326 108.447 114.102 108.383 114.007 108.383L113.975 108.351Z" fill="#D1A169"/>
<path d="M109.624 19.2938C109.72 19.0059 109.368 18.5901 109.176 18.3662C108.472 17.5345 107.609 16.8627 106.777 16.159C105.337 15.0074 103.674 13.9198 102.363 12.6402C101.115 11.4247 99.8355 10.1451 98.6519 8.83361C97.8842 8.00192 97.1804 7.10624 96.4127 6.27454C96.0289 5.82671 95.645 5.37887 95.2292 4.96302C94.9093 4.61115 94.5894 4.16331 94.1096 4.16331C93.7897 4.16331 93.5018 4.29126 93.2139 4.38723C92.894 4.51518 92.5741 4.61115 92.2862 4.7391L90.5908 5.34688C90.5908 3.61951 90.5269 1.89213 90.3349 0.196749C90.3349 -0.0271692 89.9191 -0.0271691 89.7592 0.0368077C88.2557 0.484645 86.9761 1.57225 85.8246 2.59588C85.0888 3.23565 84.3851 3.87541 83.6814 4.54717C83.3615 4.32325 83.0416 4.06734 82.6897 3.84343C82.3059 3.58752 81.6341 3.0757 81.1863 3.3636C79.7148 4.35524 78.3713 5.53881 77.1877 6.88232C77.0598 7.04226 76.9318 7.20221 76.8678 7.39414C76.8358 7.58607 76.8998 7.84197 77.0918 7.90595C77.2837 7.96993 77.4756 7.84197 77.6355 7.71402C78.3073 7.2342 79.075 7.01028 79.9067 6.91431C81.2502 6.78636 82.6257 6.56244 83.9692 6.59443C85.2808 6.59443 86.5603 7.01028 87.8079 7.39414C88.8955 7.71402 89.9831 8.06589 91.0707 8.44975C95.4211 10.0172 99.6116 12.0964 103.354 14.7835C105.274 16.159 106.873 17.9183 108.696 19.3898C108.952 19.5817 109.432 19.8056 109.56 19.3898L109.624 19.2938Z" fill="#F7C32F"/>
<path d="M89.1515 1.63672C88.9596 1.63672 88.7677 1.76467 88.6077 1.89263C87.2322 2.94824 86.7524 4.09982 86.6884 5.8272C87.2322 5.95515 88.2238 5.05948 88.5757 4.7076C89.0875 4.22778 89.1835 3.46006 89.2795 2.75631C89.3115 2.40444 89.3754 2.02058 89.2795 1.66871C89.2475 1.66871 89.1835 1.66871 89.1515 1.66871V1.63672Z" fill="white"/>
<path d="M81.8581 4.45239C81.8581 4.45239 81.8261 4.26046 81.7301 4.19648C81.5702 4.03654 81.2503 4.03654 81.0584 4.10052C80.8344 4.16449 80.7385 4.38841 80.6745 4.58034C80.5465 4.9642 80.5465 5.34806 80.6745 5.73192C80.6745 5.7959 80.6745 5.89187 80.7385 5.92386C80.8344 6.0838 81.0264 6.14777 81.1863 6.14777C81.3782 6.14777 81.6341 6.14777 81.7301 5.92386C81.7941 5.82789 81.7941 5.69994 81.8261 5.60397C81.922 5.22011 81.922 4.80426 81.8261 4.38841L81.8581 4.45239Z" fill="white"/>
<path d="M94.3335 6.08309C94.3335 6.08309 94.2375 5.95513 94.1415 5.89116C93.9496 5.7632 93.6617 5.7632 93.4378 5.82718C93.1499 5.89116 92.926 6.0511 92.7341 6.24303C92.6701 6.30701 92.6061 6.37098 92.5421 6.40297C92.4462 6.49894 92.3502 6.62689 92.2542 6.75484C92.2542 6.75484 92.2542 6.81882 92.2542 6.85081C92.2542 6.91479 92.2222 6.94677 92.1902 7.01075C92.1583 7.10671 92.1263 7.26666 92.1263 7.36262C92.1263 7.49058 92.1903 7.61853 92.3182 7.7145C92.5421 7.84245 92.83 7.84245 93.0539 7.77847C93.2139 7.74648 93.3418 7.65052 93.4698 7.55455C93.6617 7.39461 93.8537 7.23467 93.9816 7.01075C94.0136 6.94677 94.0456 6.91479 94.0776 6.85081C94.2055 6.69087 94.3015 6.49894 94.3335 6.27502C94.3335 6.21104 94.3335 6.11508 94.3335 6.0511V6.08309Z" fill="white"/>
<path d="M85.6646 5.09411C85.6646 5.09411 85.6006 4.90218 85.5686 4.80621C85.5366 4.71025 85.4727 4.64627 85.3767 4.55031C85.3767 4.55031 85.3447 4.55031 85.3127 4.51832C85.2808 4.51832 85.2168 4.48633 85.1848 4.48633C85.0888 4.48633 84.9928 4.48633 84.8969 4.48633C84.8329 4.48633 84.7689 4.48633 84.705 4.55031C84.673 4.55031 84.641 4.58229 84.609 4.61428C84.609 4.61428 84.577 4.67826 84.577 4.71025C84.577 4.74224 84.577 4.77422 84.577 4.8382C84.545 4.8382 84.513 4.90218 84.513 4.96615C84.513 5.09411 84.545 5.22206 84.609 5.35002C84.641 5.50996 84.7049 5.63791 84.8009 5.76586C84.8329 5.82984 84.9289 5.86183 84.9928 5.89382C85.0888 5.89382 85.2168 5.92581 85.3447 5.89382C85.4407 5.89382 85.5366 5.86183 85.6006 5.79785C85.6006 5.79785 85.6006 5.76586 85.6326 5.73388C85.6646 5.73388 85.6966 5.6699 85.6966 5.60592C85.7286 5.44598 85.7286 5.25405 85.6966 5.09411H85.6646Z" fill="white"/>
<path d="M90.015 6.14922C90.015 6.14922 89.7591 5.98928 89.6311 5.95729C89.5672 5.89332 89.4712 5.86133 89.3752 5.86133C89.2793 5.86133 89.1513 5.86133 89.0234 5.86133C88.8314 5.9253 88.6715 6.02127 88.5116 6.14922C88.3836 6.24519 88.1597 6.40513 88.2556 6.59706C88.2556 6.66104 88.3516 6.69303 88.4156 6.72501C88.4795 6.757 88.5755 6.78899 88.6715 6.78899C88.7674 6.78899 88.8634 6.78899 88.9594 6.78899C89.1833 6.78899 89.4072 6.72501 89.6311 6.62905C89.8231 6.53308 89.951 6.40513 90.079 6.27718C90.111 6.2132 90.079 6.14922 90.047 6.11723L90.015 6.14922Z" fill="white"/>
<path d="M43.0246 85.8321C42.8006 85.7042 42.1289 85.8641 42.4807 86.12C44.432 87.3036 45.7436 89.3829 46.0634 91.654C46.0954 91.9419 46.8631 91.9099 46.8312 91.654C46.5113 89.2549 45.0718 87.1117 43.0246 85.8641V85.8321Z" fill="#C14F6B"/>
<path d="M60.2983 87.2381C59.4027 82.8237 58.9228 78.3453 58.9228 73.8349C58.9228 72.5554 58.9548 71.3079 59.0508 70.0283C59.0508 69.7724 58.315 69.7404 58.283 70.0283C58.0271 74.5067 58.2191 79.0171 58.8588 83.4634C59.0508 84.711 59.2747 85.9585 59.5306 87.2061C59.5946 87.494 60.3303 87.43 60.2983 87.2061V87.2381Z" fill="#C14F6B"/>
<path d="M100.156 105.505C99.996 105.441 99.7721 105.505 99.6441 105.569C93.0865 110.08 86.5289 114.59 79.9393 119.1C79.0436 119.708 78.1799 120.316 77.2842 120.924C76.4845 121.468 75.6528 122.011 74.7572 122.427C71.2704 118.397 68.0076 114.11 65.6085 109.312C64.9367 107.969 64.329 106.561 63.8171 105.122C63.7212 104.898 62.9854 104.93 63.0814 105.218C64.9047 110.336 67.8797 114.942 71.2384 119.164C72.1981 120.348 73.1577 121.532 74.1494 122.683C74.2134 122.779 74.4053 122.779 74.5652 122.779C74.7252 122.843 74.9171 122.843 75.077 122.779C76.7724 122.011 78.3079 120.86 79.8433 119.804C81.5067 118.653 83.1701 117.533 84.8335 116.381C88.1283 114.11 91.3911 111.871 94.6859 109.6C96.5413 108.32 98.4286 107.041 100.284 105.761C100.444 105.665 100.252 105.537 100.156 105.505Z" fill="#C14F6B"/>
<path d="M136.783 151.214C134.383 146.639 131.6 142.289 128.721 137.971C125.874 133.684 122.932 129.494 120.149 125.175C118.581 122.744 117.046 120.249 115.638 117.69C115.51 117.466 114.775 117.562 114.902 117.786C117.43 122.296 120.276 126.615 123.187 130.901C126.066 135.156 129.009 139.378 131.728 143.729C133.264 146.192 134.735 148.719 136.111 151.278C136.239 151.502 136.974 151.438 136.846 151.182L136.783 151.214Z" fill="#C14F6B"/>
<path d="M122.612 105.632C121.94 104.992 121.364 104.288 120.852 103.52C120.756 103.392 120.532 103.36 120.373 103.392C120.277 103.392 120.021 103.488 120.117 103.616C120.66 104.416 121.268 105.152 121.94 105.824C122.068 105.951 122.292 105.951 122.452 105.887C122.58 105.855 122.708 105.728 122.58 105.632H122.612Z" fill="#C14F6B"/>
<path d="M141.613 173.51C139.406 169.416 137.166 165.321 134.959 161.259C132.752 157.196 130.545 153.134 128.338 149.039C126.226 145.169 124.147 141.266 121.972 137.395C119.893 133.621 117.717 129.91 115.446 126.264C113.175 122.649 110.744 119.098 108.121 115.739C107.801 115.323 107.449 114.876 107.097 114.46C107.001 114.332 106.809 114.3 106.617 114.332C106.554 114.332 106.234 114.428 106.362 114.556C109.049 117.915 111.544 121.433 113.847 125.048C116.15 128.663 118.325 132.341 120.436 136.084C122.58 139.891 124.659 143.761 126.738 147.6L133.392 159.851C135.599 163.914 137.806 167.976 140.013 172.071C140.301 172.583 140.557 173.095 140.845 173.606C140.973 173.83 141.709 173.766 141.581 173.51H141.613Z" fill="#C14F6B"/>
<path d="M137.614 157.675C135.823 156.715 134 155.788 132.208 154.828C132.048 154.764 131.825 154.732 131.665 154.828C131.537 154.892 131.537 155.02 131.665 155.116C133.456 156.076 135.279 157.003 137.071 157.963C137.231 158.027 137.454 158.059 137.614 157.963C137.742 157.899 137.742 157.771 137.614 157.675Z" fill="#C14F6B"/>
<path d="M70.2147 191.97C69.0631 187.076 68.0395 182.117 67.1118 177.191C66.1842 172.233 65.3845 167.275 64.7127 162.285C64.0409 157.294 63.4652 152.272 63.0173 147.282C62.5695 142.228 62.2496 137.174 62.0257 132.12C61.8017 127.097 61.7058 122.043 61.7378 117.021C61.7378 116.413 61.7378 115.773 61.7378 115.166C61.7378 114.846 60.8421 114.846 60.8421 115.166C60.7781 120.188 60.8421 125.242 61.034 130.264C61.226 135.286 61.5139 140.341 61.9297 145.363C62.3456 150.385 62.8894 155.407 63.5291 160.397C64.1689 165.419 64.9686 170.41 65.8323 175.4C66.728 180.358 67.7196 185.284 68.8392 190.21C68.9672 190.818 69.1271 191.426 69.255 192.034C69.319 192.354 70.2147 192.29 70.1507 192.034L70.2147 191.97Z" fill="#C14F6B"/>
<path d="M101.979 313.588C99.5161 307.574 97.1809 301.529 94.9737 295.419C92.7665 289.341 90.7192 283.231 88.7999 277.057C86.8486 270.852 85.0573 264.646 83.3939 258.376C81.6985 252.075 80.1631 245.709 78.7556 239.343C77.3481 233.041 76.1005 226.708 74.981 220.342C74.853 219.542 74.6931 218.743 74.5651 217.943C74.5011 217.623 73.6374 217.655 73.6694 217.943C74.757 224.373 76.0046 230.77 77.3801 237.136C78.7556 243.47 80.259 249.803 81.8905 256.073C83.5219 262.311 85.2812 268.517 87.1685 274.69C89.0878 280.928 91.1351 287.102 93.3103 293.244C95.4855 299.353 97.7887 305.431 100.22 311.445C100.54 312.213 100.828 312.948 101.147 313.716C101.243 314.004 102.139 313.908 102.011 313.588H101.979Z" fill="#C14F6B"/>
<path d="M147.69 296.314C143.18 286.558 138.894 276.705 134.767 266.757C130.641 256.841 126.738 246.828 123.027 236.72C119.317 226.644 115.798 216.471 112.471 206.267C109.144 196.031 106.042 185.762 103.099 175.398C100.156 164.97 97.4367 154.51 94.9096 143.986C94.5897 142.706 94.3018 141.395 93.9819 140.115C93.9179 139.795 93.0223 139.859 93.0862 140.115C95.5494 150.543 98.2044 160.939 101.051 171.272C103.93 181.668 107.001 192.032 110.296 202.3C113.559 212.537 117.046 222.709 120.692 232.817C124.371 242.958 128.241 253.034 132.336 263.046C136.43 273.059 140.685 282.975 145.163 292.796C145.707 294.011 146.251 295.195 146.827 296.41C146.955 296.666 147.818 296.602 147.69 296.282V296.314Z" fill="#C14F6B"/>
<path d="M169.73 269.123C167.683 264.58 165.732 259.974 163.845 255.368C161.957 250.761 160.166 246.123 158.438 241.485C157.447 238.862 156.519 236.239 155.591 233.584C155.496 233.296 154.632 233.36 154.728 233.712C156.391 238.414 158.119 243.116 159.91 247.755C161.701 252.393 163.589 256.999 165.54 261.573C166.627 264.165 167.747 266.724 168.899 269.283C169.027 269.539 169.89 269.475 169.762 269.155L169.73 269.123Z" fill="#C14F6B"/>
<path d="M187.036 307.735C186.109 305.592 185.149 303.448 184.221 301.273C184.093 301.017 183.23 301.081 183.358 301.401C184.285 303.544 185.245 305.688 186.173 307.863C186.301 308.119 187.164 308.055 187.036 307.735Z" fill="#C14F6B"/>
<path d="M50.7339 273.125C49.8382 261.865 49.1345 250.605 48.6546 239.313C48.3987 232.947 48.1748 226.581 48.0469 220.248C48.0469 219.928 47.1512 219.928 47.1512 220.248C47.3751 231.54 47.855 242.832 48.5267 254.091C49.1985 265.351 50.0941 276.611 51.1817 287.871C51.7895 294.205 52.4933 300.539 53.229 306.84C53.261 307.16 54.1567 307.128 54.1247 306.84C52.7812 295.612 51.6616 284.384 50.7339 273.125Z" fill="#C14F6B"/>
<path d="M68.7432 111.517C67.6556 106.943 66.568 102.368 65.6723 97.7621C64.7446 93.1558 64.0089 88.4855 63.625 83.8152C63.4011 81.1921 63.3052 78.5371 63.3052 75.914C63.3052 75.6901 62.6654 75.6901 62.6654 75.914C62.6334 80.5843 63.0173 85.2866 63.689 89.893C64.3608 94.5633 65.2884 99.2016 66.3121 103.776C66.8879 106.367 67.4956 108.926 68.1034 111.517C68.1674 111.741 68.7752 111.709 68.7432 111.517Z" fill="#C14F6B"/>
<path d="M92.4787 87.0116C91.2951 93.4413 89.8557 99.839 88.1603 106.141C87.6804 107.932 87.1686 109.691 86.6568 111.483C86.5928 111.739 87.2006 111.771 87.2646 111.579C89.1199 105.277 90.7193 98.8793 92.0309 92.4497C92.4147 90.6583 92.7666 88.835 93.0865 87.0116C93.1185 86.8197 92.5107 86.7877 92.4467 87.0116H92.4787Z" fill="#C14F6B"/>
</svg>
