<svg width="295" height="227" viewBox="0 0 295 227" fill="none" xmlns="http://www.w3.org/2000/svg">
<g clip-path="url(#clip0_126_187)">
<path d="M65.7316 88.4819C51.3692 88.4819 38.3656 95.3316 28.9543 106.403C19.5431 117.475 13.7207 132.773 13.7207 149.67C13.7207 166.567 19.5431 181.865 28.9543 192.937C38.3656 204.009 51.3692 210.858 65.7316 210.858C72.4754 210.858 78.9038 209.361 84.7835 206.64C90.8999 203.81 96.4535 199.647 101.186 194.459L105.201 190.056L109.733 193.734C116.513 199.234 124.02 203.574 132.048 206.51C139.785 209.34 148.045 210.863 156.653 210.863C165.261 210.863 173.479 209.348 181.194 206.535C189.239 203.599 196.74 199.285 203.487 193.831L208.488 189.786L212.493 195.151C216.146 200.052 220.685 204.038 225.823 206.775C230.745 209.399 236.227 210.863 242.021 210.863C252.863 210.863 262.676 205.696 269.781 197.336C276.884 188.98 281.279 177.432 281.279 164.677C281.279 152.677 277.4 141.753 271.036 133.55C264.604 125.257 255.656 119.732 245.624 118.661L226.709 139.125L239.246 106.796C238.654 80.5017 229.344 60.8424 214.39 43.7179C199.489 26.6568 179.125 16.1459 156.66 16.1459C138.526 16.1459 121.765 22.9957 108.145 34.6116C94.1482 46.5523 83.4534 63.508 77.9752 83.2307L71.8122 106.45L65.7352 88.4819M65.7352 72.3402C66.0364 72.3402 66.3734 72.3444 66.7427 72.3571C73.5223 51.8626 85.2102 34.2615 100.103 21.5574C116 7.99703 135.54 0 156.657 0C182.807 0 206.538 12.2655 223.926 32.1737C240.053 50.6394 250.704 75.6976 252.748 103.666C263.909 106.366 273.783 113.182 281.165 122.701C289.758 133.781 294.996 148.514 294.996 164.673C294.996 181.882 289.066 197.462 279.48 208.741C269.893 220.019 256.649 226.996 242.021 226.996C234.255 226.996 226.866 225.013 220.198 221.458C215.114 218.746 210.453 215.11 206.369 210.728C199.776 215.409 192.685 219.184 185.22 221.909C176.157 225.216 166.563 226.996 156.66 226.996C146.758 226.996 137.114 225.207 128.036 221.888C120.378 219.087 113.132 215.198 106.428 210.377C101.419 215.03 95.8153 218.847 89.7742 221.643C82.3097 225.098 74.1999 226.996 65.7352 226.996C47.5832 226.996 31.1521 218.341 19.2563 204.346C7.35689 190.355 0 171.025 0 149.67C0 128.315 7.35689 108.985 19.2527 94.99C31.1485 80.9952 47.5796 72.3402 65.7316 72.3402H65.7352Z" fill="#332C2B"/>
<path fill-rule="evenodd" clip-rule="evenodd" d="M108.141 34.6073C94.1446 46.548 83.4499 63.5037 77.9716 83.2264L71.8086 106.446L65.7317 88.4776C51.3692 88.4776 38.3656 95.3274 28.9544 106.399C19.5431 117.471 13.7207 132.769 13.7207 149.666C13.7207 166.562 19.5431 181.861 28.9544 192.932C38.3656 204.004 51.3692 210.854 65.7317 210.854C72.4755 210.854 78.9038 209.357 84.7836 206.636C90.9 203.806 96.4535 199.643 101.186 194.455L105.201 190.052L109.733 193.73C116.513 199.23 124.02 203.57 132.048 206.505C139.785 209.336 148.045 210.858 156.653 210.858C165.261 210.858 173.479 209.344 181.194 206.531C189.239 203.595 196.74 199.28 203.487 193.827L208.488 189.782L212.493 195.147C216.146 200.048 220.685 204.034 225.823 206.771C230.746 209.395 236.227 210.858 242.021 210.858C252.863 210.858 262.676 205.691 269.781 197.332C276.884 188.976 281.279 177.428 281.279 164.673C281.279 152.673 277.4 141.749 271.036 133.545C264.604 125.253 255.656 119.728 245.624 118.656L226.709 139.121L239.246 106.791C238.655 80.4974 229.344 60.8381 214.39 43.7136C199.489 26.6525 179.125 16.1416 156.66 16.1416C138.526 16.1416 121.765 22.9914 108.145 34.6073" fill="#556566"/>
<path fill-rule="evenodd" clip-rule="evenodd" d="M71.1274 189.87C56.7649 189.87 43.7613 183.021 34.3501 171.949C24.9388 160.877 19.1164 145.579 19.1164 128.682C19.1164 126.333 19.2276 124.013 19.4499 121.731C15.7893 130.108 13.7242 139.606 13.7242 149.67C13.7242 166.567 19.5467 181.865 28.9579 192.937C38.3691 204.009 51.3728 210.858 65.7352 210.858C72.479 210.858 78.9073 209.361 84.7871 206.641C90.9035 203.81 96.457 199.647 101.19 194.459L105.205 190.056L109.737 193.734C116.516 199.234 124.024 203.574 132.051 206.51C139.788 209.34 148.049 210.863 156.657 210.863C165.265 210.863 173.482 209.348 181.198 206.535C189.243 203.6 196.743 199.285 203.491 193.831L208.492 189.786L212.497 195.151C216.15 200.052 220.689 204.038 225.827 206.776C230.749 209.399 236.231 210.863 242.025 210.863C252.866 210.863 262.679 205.696 269.785 197.336C276.421 189.529 280.691 178.942 281.226 167.183C279.54 170.532 277.504 173.611 275.177 176.348C268.075 184.704 258.259 189.875 247.417 189.875C241.627 189.875 236.145 188.415 231.222 185.788C226.085 183.05 221.546 179.06 217.892 174.163L213.888 168.798L208.886 172.843C202.139 178.297 194.639 182.616 186.593 185.547C178.878 188.36 170.639 189.875 162.052 189.875C153.466 189.875 145.18 188.352 137.447 185.522C129.42 182.586 121.912 178.246 115.133 172.746L110.601 169.068L106.585 173.471C101.853 178.659 96.2993 182.822 90.1829 185.653C84.3031 188.377 77.8748 189.87 71.131 189.87" fill="#354546"/>
<path fill-rule="evenodd" clip-rule="evenodd" d="M77.9716 83.2264L71.8086 106.446L65.7316 88.4777C51.3692 88.4777 38.3656 95.3274 28.9543 106.399C25.1504 110.874 21.9309 116.045 19.4463 121.727C19.4463 121.727 39.5272 98.8493 61.5154 113.979L73.9633 141.8C73.9633 141.8 118.965 -7.78192 238.981 101.178C237.274 77.6589 228.261 59.5939 214.386 43.7095C199.486 26.6483 179.122 16.1375 156.657 16.1375C138.523 16.1375 121.762 22.9872 108.141 34.6032C94.1446 46.5439 83.4498 63.4996 77.9716 83.2222" fill="#758586"/>
<path fill-rule="evenodd" clip-rule="evenodd" d="M245.624 118.656L233.528 131.74C233.528 131.74 268.588 127.632 281.222 167.174C281.261 166.343 281.279 165.512 281.279 164.669C281.279 152.669 277.4 141.745 271.036 133.541C264.604 125.249 255.656 119.723 245.624 118.652" fill="#758586"/>
</g>
<defs>
<clipPath id="clip0_126_187">
<rect width="295" height="227" fill="white"/>
</clipPath>
</defs>
</svg>
