<svg width="200" height="200" viewBox="0 0 339 352" fill="none" xmlns="http://www.w3.org/2000/svg">
<g clip-path="url(#clip0_91_745)">
<path d="M134.039 311.206C124.725 314.17 102.27 319.785 102.27 319.785L101.428 324.074L83.6407 329.347C114.97 323.404 154.792 310.878 154.792 310.878L150.125 306.917C150.125 306.917 143.354 308.242 134.039 311.206Z" fill="#291717"/>
<path d="M221.276 137.738L289.462 193.143L316.564 193.798C316.564 193.798 303.864 190.506 282.691 174.674C261.518 158.842 249.239 129.174 249.239 129.174L221.295 137.753L221.276 137.738Z" fill="#291717"/>
<path d="M219.65 136.814L251.362 124.557L217.833 133.389L219.65 136.814Z" fill="#291717"/>
<path d="M195.55 78.2668L159.248 78.8775C159.248 78.8775 196.335 115.442 196.335 116.365C196.335 117.289 199.089 116.678 203.431 118.212C207.524 119.657 216.169 126.031 217.144 126.746L211.33 127.431L212.917 128.965C212.917 128.965 231.47 127.119 235.41 126.508C239.35 125.897 237.38 124.363 237.38 124.363L217.202 126.746C216.551 125.972 208.404 116.201 204.253 104.703C199.911 92.7138 195.57 78.2817 195.57 78.2817L195.55 78.2668Z" fill="#291717"/>
<path d="M26.1269 65.7708L106.784 55.6877L25.687 63.3283C25.687 63.3283 25.6488 63.3283 25.6297 63.3283C24.769 63.4325 24.176 64.073 24.3099 64.7432C24.4438 65.4134 25.2662 65.8751 26.1269 65.7708Z" fill="#291717"/>
<path d="M161.62 52.456C151.75 53.6921 147.026 55.2262 143.469 58.905C143.469 58.905 128.473 54.3028 121.76 53.99C115.047 53.6772 108.352 55.8368 107.549 58.5922C106.746 61.3475 106.765 64.4306 109.136 67.8115C111.508 71.1923 115.047 71.803 115.047 71.803L192.777 59.8135L178.968 59.2028C178.968 59.2028 171.47 51.2198 161.601 52.4411L161.62 52.456Z" fill="#291717"/>
<path d="M145.439 54.6156C147.81 51.8453 162.806 50.624 162.806 50.624C162.806 50.624 153.74 49.3878 147.81 49.7006C141.9 50.0134 132.815 52.4709 132.815 52.4709C140.313 54.6156 143.067 57.3858 143.067 57.3858L145.439 54.6156Z" fill="#291717"/>
<path d="M27.1789 171.8L12.0115 174.257V195.421C12.0115 195.421 16.4298 192.472 18.9545 190.506C21.4792 188.54 28.4413 185.591 28.4413 185.591L27.1789 171.815V171.8Z" fill="#291717"/>
<path d="M13.2739 149.176V165.41L26.5286 163.444L28.4413 146.704L13.2739 149.176Z" fill="#291717"/>
<path d="M112.809 36.0131C115.946 35.9684 119.58 35.8493 123.481 35.6854C125.432 35.5812 127.441 35.5216 129.487 35.3876C130.826 35.3131 132.203 35.2237 133.561 35.1493L134.403 49.0898L141.116 47.243L139.127 34.7769C140.045 34.7024 140.963 34.6429 141.862 34.5684C143.909 34.4343 145.898 34.2258 147.849 34.062C151.731 33.7195 155.346 33.3471 158.426 32.9748C164.623 32.2599 168.716 31.5747 168.716 31.5747C168.716 31.5747 166.88 31.5152 163.839 31.5152C163.839 31.5152 163.858 31.5003 163.877 31.4854C164.03 31.1577 163.819 30.8152 163.399 30.696C156.819 28.8343 150.622 25.0066 145.439 19.6448C140.925 14.9682 137.616 9.65107 134.632 4.52761C134.441 2.72546 134.058 0.714793 133.217 0.238191C131.648 -0.685224 131.247 1.47438 131.247 1.47438L132.031 9.45745L133.427 32.7216C132.031 32.8258 130.616 32.9301 129.238 33.0343C127.192 33.1684 125.203 33.3769 123.252 33.5407C119.369 33.8833 115.754 34.2556 112.675 34.628C106.478 35.328 102.385 36.028 102.385 36.028C102.385 36.028 106.573 36.162 112.828 36.028L112.809 36.0131ZM144.157 20.3746C149.245 25.647 155.327 29.4598 161.811 31.5152C160.721 31.5152 159.535 31.5301 158.273 31.5599C155.136 31.6045 151.502 31.7237 147.6 31.8875C145.649 31.9918 143.641 32.0513 141.594 32.1854C140.657 32.245 139.682 32.3045 138.725 32.3641L134.823 7.80424C137.444 12.1085 140.389 16.4575 144.176 20.3746H144.157Z" fill="#291717"/>
<path d="M53.4015 51.7558C56.5382 51.7111 60.1723 51.592 64.0741 51.4281C66.025 51.3239 68.0333 51.2643 70.0799 51.1303C70.9788 51.0707 71.8778 51.026 72.7767 50.9664L73.1019 56.4176L78.9738 55.7473L78.1513 50.6239C79.5858 50.5196 81.0394 50.4154 82.4548 50.3111C84.5014 50.1771 86.4905 49.9686 88.4414 49.8047C92.3241 49.4622 95.9391 49.0898 99.0184 48.7175C105.215 48.0026 109.309 47.3175 109.309 47.3175C109.309 47.3175 105.12 47.1834 98.8654 47.3175C95.7287 47.3621 92.0946 47.4813 88.1928 47.6451C86.2419 47.7494 84.2336 47.809 82.187 47.943C80.7334 48.0324 79.2415 48.1217 77.7688 48.2111L74.1156 25.3342C74.1156 25.3342 74.1156 18.8852 72.5281 17.9618C71.5144 17.366 70.998 18.0363 70.7493 18.6022C70.7111 18.6022 70.6728 18.5724 70.6346 18.5724C70.2138 18.5426 69.8121 18.7809 69.7739 19.1235C69.7547 19.3022 67.383 36.8322 61.2816 43.028C55.2568 49.1345 46.0951 50.1622 45.9995 50.1771C45.5596 50.2217 45.2536 50.5345 45.3109 50.8771C45.3492 51.0856 45.5213 51.2643 45.7508 51.3537C43.9529 51.6069 42.9201 51.7856 42.9201 51.7856C42.9201 51.7856 47.1088 51.9196 53.3632 51.7856L53.4015 51.7558ZM62.544 43.7578C67.4022 38.8429 69.9077 27.6725 70.8641 22.2661L71.3422 27.1662L72.6237 48.5536C71.6865 48.6281 70.7302 48.6877 69.793 48.7622C67.7464 48.8962 65.7573 49.1047 63.8064 49.2686C59.9237 49.6111 56.3087 49.9835 53.2293 50.3558C51.6801 50.5345 50.2838 50.7132 49.0215 50.8771C52.4069 50.0877 58.164 48.1962 62.5249 43.7727L62.544 43.7578Z" fill="#291717"/>
<path d="M336.475 210.196C336.475 210.196 314.977 229.573 299.771 243.484C297.132 242.113 286.249 236.022 253.466 213.83C250.233 211.641 246.982 209.302 243.749 206.845C253.657 205.668 274.658 203.613 288.2 205.579C306.408 208.215 325.898 218.105 325.898 218.105C325.898 218.105 285.675 193.038 256.45 169.298C227.224 145.557 183.615 104.986 183.615 104.986C187.307 110.199 191.132 120.014 194.613 130.916L169.137 133.359L200.141 168.24C183.654 151.842 172.178 138.616 172.178 138.616C172.178 138.721 172.216 138.84 172.235 138.959L166.153 133.27L191.228 130.276L190.444 128.429L164.355 131.572L149.226 117.423C174.301 112.91 186.886 116.737 186.886 116.737L184.132 105.984L179.637 102.052C178.7 101.069 177.495 99.7585 175.984 98.2393C174.282 96.5265 172.312 94.501 170.15 92.3712C167.989 90.2413 165.636 87.9924 163.265 85.7583C160.874 83.5391 158.483 81.32 156.169 79.2795C155.767 78.9221 155.346 78.5646 154.945 78.222C176.08 77.388 197.176 76.3752 197.176 76.3752L198.439 80.0093L215.385 71.7581C215.385 71.7581 197.597 73.739 174.722 75.0497C169.557 75.3475 161.562 75.6901 152.248 76.0624C151.272 75.3327 150.335 74.6178 149.494 73.9475C145.573 70.8496 142.952 68.7943 142.952 68.7943C142.952 68.7943 143.507 69.3751 144.521 70.373C145.553 71.356 146.988 72.7858 148.824 74.4241C149.436 74.9603 150.087 75.5412 150.775 76.122C118.891 77.3433 73.0636 78.6838 73.0636 78.6838C88.8431 80.2178 91.7503 83.1817 92.0755 83.5838L85.1899 141.133L81.9958 141.521L88.2119 97.4053L55.9836 101.918L82.1297 97.4946L36.6083 103.184C39.133 101.799 51.8522 95.0371 64.9348 91.4626C79.5284 87.4711 89.7994 87.1583 89.7994 87.1583C89.7994 87.1583 84.2718 81.9306 78.7442 80.3965C73.2167 78.8625 69.2766 78.5497 69.2766 78.5497L115.831 75.4816C115.831 75.4816 105.961 71.4901 105.961 64.7283C105.961 57.9665 107.931 55.8218 107.931 55.8218L35.3268 66.2623C35.3268 66.2623 40.0702 83.1668 38.8844 93.6073C38.1002 100.458 37.163 102.544 36.6083 103.169L24.9602 104.629C24.9602 104.629 24.9028 104.629 24.8837 104.629C24.023 104.778 23.4875 105.433 23.6787 106.103C23.87 106.773 24.7116 107.19 25.5723 107.042L33.3377 105.731L31.1381 141.446L7.26811 144.633C7.26811 144.633 7.21073 144.633 7.1916 144.633C6.33091 144.782 5.79536 145.438 5.98663 146.108C6.17789 146.778 7.01946 147.195 7.88016 147.046L31.0425 143.04L29.8375 162.506C29.8375 162.506 43.2453 155.134 53.1146 151.142C59.1586 148.7 68.6263 145.899 75.0337 144.097L155.193 134.535C136.889 136.844 98.7889 141.908 87.8294 145.602C87.8294 145.602 87.5234 149.802 87.0643 156.146L9.7737 167.749C9.7737 167.749 9.73544 167.749 9.71632 167.749C8.85562 167.898 8.32008 168.568 8.53047 169.223C8.72173 169.893 9.58243 170.31 10.424 170.147L87.0261 156.549C87.0261 156.638 87.0261 156.727 87.0261 156.802L30.6408 167.704C30.6408 167.704 33.0125 193.515 31.0425 220.249C29.0724 246.984 23.9465 256.814 23.9465 256.814C23.9465 256.814 29.4741 247.282 47.2236 237.452C64.9731 227.622 79.9684 225.462 79.9684 225.462L85.6298 176.104C84.3483 193.768 82.933 213.175 82.7226 216.556C82.3209 223.005 81.5367 232.224 81.5367 232.224C81.5367 232.224 86.6627 219.937 121.397 206.726C156.111 193.515 172.292 196.285 172.292 196.285L165.197 133.344L167.989 135.623C168.792 141.729 180.345 230.243 183.615 239.15C187.001 248.384 194.212 252.345 203.947 253.328C213.682 254.311 270.431 261.58 270.431 261.58L251.802 239.15C251.802 239.15 210.297 235.858 204.789 232.879C199.28 229.915 190.807 219.683 183.195 195.287C176.022 172.321 168.85 139.436 168.027 135.638L172.273 139.078C177.438 171.979 192.548 213.8 198.439 223.317C204.368 232.879 221.735 233.877 221.735 233.877L289.06 239.477L299.733 243.469C294.167 248.562 289.443 252.911 286.957 255.294C279.21 262.697 260.619 281.284 254.594 287.316C245.05 287.093 229.06 288.731 209.876 293.542C196.908 296.803 182.066 301.823 165.942 307.155C166.076 306.574 166.631 304.131 167.281 300.646C168.046 296.654 168.926 291.323 169.557 285.946C170.055 281.642 170.418 277.322 170.609 273.703C174.588 273.048 178.776 272.497 183.195 272.095C220.033 268.803 252.643 284.963 252.643 283.965C252.643 282.967 222.576 257.916 222.576 257.916C222.576 257.916 197.176 257.26 191.247 253.299C185.318 249.337 180.23 244.72 178.968 236.484C177.705 228.247 176.845 218.671 176.845 218.671C176.845 218.671 141.269 223.615 119.254 228.56C97.2397 233.505 82.4166 236.469 82.4166 236.469C82.4166 236.469 82.5313 237.109 82.7608 238.241L80.8673 261.356L62.0658 265.035L68.3011 246.239C75.7414 244.228 80.9056 243.26 80.9056 243.26L78.3808 236.871L72.1264 237.69C75.0528 237.05 79.0312 236.186 83.7554 235.188C93.969 233.028 107.625 230.258 121.358 227.741C135.072 225.239 148.882 222.93 159.229 221.247C164.412 220.413 168.716 219.743 171.738 219.296C174.741 218.864 176.462 218.611 176.462 218.611L175.563 214.977C175.563 214.977 173.823 215.29 170.781 215.826C167.759 216.377 163.456 217.196 158.33 218.209C148.04 220.234 134.384 223.005 120.765 225.954C107.147 228.918 93.6439 232.135 83.545 234.637C78.0366 235.992 73.5609 237.139 70.5963 237.884L63.2134 238.837L79.012 230.958V227.517C79.012 227.517 59.4264 230.466 43.6278 242.769C27.8292 255.071 21.5174 260.969 21.5174 260.969C21.5174 260.969 31.0042 231.941 29.7227 216.198C28.4604 200.455 28.4604 196.032 28.4604 196.032L11.3995 197.998C11.3995 197.998 12.0306 243.26 12.0306 253.105C12.0306 262.95 8.87475 274.761 8.87475 274.761C8.87475 274.761 23.411 263.933 41.7343 255.577C50.2839 251.675 59.3881 248.741 66.6562 246.716L60.8035 265.318L0 277.322C14.4788 275.118 39.8025 272.154 59.3307 269.965L38.8079 335.185L60.4783 269.831C68.588 268.922 75.6075 268.163 80.3126 267.656L75.0719 331.715C61.8172 334.574 53.6693 335.974 49.7674 336.153C42.9966 336.48 38.3297 336.48 38.3297 336.48C38.3297 336.48 37.0674 340.442 39.1713 341.753C41.2943 343.078 47.2236 343.734 48.486 346.042C49.7483 348.351 50.1882 351.985 50.1882 351.985C50.1882 351.985 95.9199 352.313 129.372 348.351C162.825 344.389 173 344.061 197.138 346.042C221.276 348.023 238.222 348.351 239.905 346.37C239.905 346.37 248.053 329.361 256.717 315.823C256.45 314.616 256.144 313.41 255.761 312.293C255.608 311.876 255.455 311.459 255.283 311.087C255.111 310.714 254.919 310.372 254.766 310.193C254.728 310.118 254.728 310.148 254.709 310.133C254.709 310.133 254.747 310.133 254.594 310.014L253.944 309.493L253.428 309.076C249.621 308.957 245.547 309.031 241.607 309.18C237.246 309.389 232.866 309.627 228.506 310.029C226.325 310.193 224.145 310.431 221.964 310.655C219.784 310.863 217.603 311.131 215.442 311.414C213.262 311.667 211.1 311.95 208.939 312.278C206.778 312.606 204.597 312.874 202.436 313.246L195.971 314.304L189.526 315.48C185.222 316.24 180.976 317.193 176.692 318.042C172.445 319.01 168.219 319.934 163.953 320.931L151.196 323.895C134.154 327.812 117.055 331.536 99.8983 335.095C91.3104 336.868 82.7226 338.61 74.1156 340.293L61.2051 342.81C59.063 343.242 56.8825 343.644 54.7021 343.942C52.5217 344.225 50.303 344.508 48.0843 344.404C50.303 344.464 52.5025 344.136 54.6638 343.808C56.8443 343.466 58.9673 343.019 61.1095 342.542L73.9243 339.742C82.4548 337.866 90.9853 335.944 99.4966 333.993C116.5 330.076 133.446 325.965 150.316 321.706L162.959 318.474C167.147 317.387 171.432 316.359 175.659 315.287C179.943 314.333 184.189 313.276 188.512 312.412L194.977 311.087L201.499 309.88C203.66 309.463 205.86 309.135 208.04 308.763C210.221 308.391 212.42 308.048 214.62 307.75C216.819 307.423 219.019 307.11 221.237 306.842C223.437 306.559 225.656 306.276 227.874 306.052C232.312 305.546 236.787 305.189 241.263 304.891C245.796 304.638 250.176 304.429 254.939 304.533L255.991 304.563L256.851 305.204L258.19 306.216L258.859 306.723C259.051 306.857 259.663 307.393 259.854 307.676C260.371 308.316 260.696 308.882 260.963 309.418C260.963 309.433 260.963 309.448 260.983 309.463C268.289 298.62 270.393 295.612 270.393 295.612L264.578 290.369C272.822 281.076 286.058 272.527 286.058 272.527V262.309C286.058 262.309 330.948 218.775 334.754 214.828C338.56 210.866 341.104 207.575 336.456 210.211L336.475 210.196ZM155.079 80.0242C157.297 82.1093 159.65 84.3434 162.021 86.5775C162.787 87.2775 163.533 87.9775 164.298 88.6775L152.477 78.3412C152.726 78.3412 152.994 78.3263 153.242 78.3114C153.835 78.8625 154.447 79.4433 155.079 80.0093V80.0242ZM92.5537 79.3838H105.273C97.8517 79.5178 92.5728 79.6072 92.5728 79.6072L92.3433 81.6029L92.5537 79.3838ZM87.4277 140.895C94.5811 136.77 117.15 124.512 141.9 118.927C143.392 118.584 144.808 118.301 146.223 118.018L163.131 131.735L87.4277 140.88V140.895ZM250.1 312.427L253.313 316.597L237.246 344.538L250.1 312.427ZM102.27 286.988L109.232 295.329C109.232 295.329 116.194 287.822 130.654 281.567C145.114 275.312 160.644 273.227 160.644 273.227C160.644 273.227 132.26 282.818 122.621 289.491C112.981 296.163 110.839 301.584 110.839 301.584L109.768 305.755C109.768 305.755 96.379 295.329 92.0946 267.805C92.0946 267.805 95.3079 278.648 102.27 286.988ZM112.885 322.987C97.3353 326.74 84.903 329.614 75.1867 331.715L81.4793 267.552C84.6926 267.209 86.5862 267.001 86.5862 267.001L85.3238 260.611L82.0914 261.252L83.8128 243.662C86.261 255.369 91.5399 278.752 97.2779 291.367C96.4937 298.263 95.8243 304.757 95.327 310.118C94.562 318.504 94.1603 324.104 94.1603 324.104C94.1603 324.104 94.6385 318.504 95.5757 310.133C96.1303 305.025 96.8763 298.874 97.737 292.335C98.1386 293.154 98.5212 293.944 98.9228 294.659C107.396 309.821 114.167 311.474 114.167 311.474C114.167 311.474 109.94 304.876 117.131 296.967C123.29 290.205 140.313 279.363 168.142 274.284C168.199 277.784 168.142 281.895 167.97 286.005C167.74 291.367 167.262 296.714 166.784 300.735C166.382 304.235 166 306.708 165.923 307.289C149.398 312.74 131.534 318.519 112.885 323.017V322.987ZM267.237 295.746L261.882 304.921L257.062 300.333C257.062 300.333 261.346 293.661 261.346 292.41L267.237 295.746Z" fill="#291717"/>
<path d="M22.9328 276.071C22.9328 276.071 26.3947 300.363 24.0804 312.949L21.7661 325.549L99.1715 309.359C99.1715 309.359 89.9333 293.17 87.619 285.976C85.3047 278.782 84.1571 270.68 84.1571 270.68L22.9328 276.071Z" fill="#291717"/>
</g>
<defs>
<clipPath id="clip0_91_745">
<rect width="339" height="352" fill="white"/>
</clipPath>
</defs>
</svg>
