<svg width="125" height="234" viewBox="0 0 125 234" fill="none" xmlns="http://www.w3.org/2000/svg">
<path d="M0.539267 61.0605C-3.67073 56.0205 17.7993 37.2605 29.1593 27.7905C27.3693 21.1905 30.5793 13.5705 36.5593 10.2305C36.8593 19.1205 34.0293 28.0805 28.6893 35.1805C26.9093 37.5505 24.8593 39.7105 22.8293 41.8705C19.4693 45.4205 16.1093 48.9805 12.7493 52.5305C20.2793 48.8205 27.8093 45.1205 35.3393 41.4105C35.4893 41.3305 35.3193 51.2705 34.8293 52.4305C33.1293 56.4305 32.1593 56.1805 27.8293 57.0805C18.8193 58.9505 9.71927 60.2905 0.54927 61.0505L0.539267 61.0605Z" fill="#DFB28B"/>
<path d="M71.3392 103.271C74.8992 108.041 78.5192 112.941 80.2492 118.631C81.9792 124.321 81.4692 131.071 77.4392 135.451C71.8392 141.551 62.1792 140.911 54.0192 139.501C56.6292 145.181 59.5392 150.721 62.7192 156.101C65.0692 160.081 67.6392 164.041 71.1792 167.011C75.9492 171.011 82.0792 172.911 87.9092 175.091C94.7192 177.631 101.349 180.651 107.719 184.141C114.249 187.711 120.859 192.171 123.789 199.011C124.619 200.941 124.959 203.541 123.299 204.831C114.089 199.561 102.679 204.371 92.0892 205.061C82.7492 205.671 73.2292 202.771 65.8092 197.071C66.7792 200.371 65.3592 203.961 63.1792 206.621C60.9992 209.281 58.1292 211.271 55.5592 213.541C50.1092 218.361 45.9392 224.621 43.5792 231.511C43.3392 232.211 43.0892 232.961 42.5192 233.431C40.9492 234.741 38.6692 233.001 37.6392 231.241C34.4292 225.771 34.1192 219.021 35.1792 212.761C37.2592 200.501 44.1592 189.601 51.7292 179.731C54.6292 175.951 57.8192 171.751 57.4592 166.991C57.1792 163.391 54.8992 160.301 52.5792 157.541C39.9092 142.411 23.3192 129.751 16.0292 111.401C15.3392 109.651 14.7692 107.531 15.8692 106.011C16.5192 105.101 17.6192 104.641 18.6892 104.301C24.4992 102.461 31.0792 103.181 36.3592 106.241C35.6192 98.9508 35.5492 90.1308 41.6492 86.0708C54.4092 77.5608 65.3092 95.1808 71.3392 103.261V103.271Z" fill="#CFA85E"/>
<path d="M45.6493 193.931C47.6193 189.481 50.2493 184.851 53.8293 181.311C53.9793 181.161 54.2893 181.361 54.1593 181.531C51.4293 185.241 48.7293 188.811 46.7393 192.941C44.6993 197.161 43.2793 201.621 42.4993 206.221C41.7593 210.631 41.6093 215.171 42.2193 219.661C42.4893 221.651 42.9593 223.651 43.8093 225.541C44.7993 227.711 46.2893 229.301 48.1793 230.891C48.4593 231.121 48.1393 231.511 47.8093 231.351C43.9993 229.451 42.3893 225.091 41.7193 221.541C40.8593 216.981 41.0893 212.221 41.6993 207.721C42.3493 202.961 43.6893 198.321 45.6393 193.931H45.6493Z" fill="#FFF197"/>
<path d="M48.6994 204.98C50.5394 200.76 52.7294 196.69 54.3094 192.37C55.0494 190.37 55.6594 188.32 56.0494 186.22C56.4994 183.74 56.3894 181.34 56.3694 178.82C56.3694 178.52 56.8894 178.42 56.9694 178.75C57.9394 182.75 56.9194 187.15 55.6694 190.9C54.3294 194.94 52.4094 198.79 50.5494 202.63C46.8894 210.18 43.6494 218.43 46.4194 226.96C46.4594 227.09 46.2394 227.15 46.1894 227.02C43.3094 219.57 45.7294 211.81 48.6994 204.99V204.98Z" fill="#FFF197"/>
<path d="M59.4292 194.03C60.2292 190.98 60.8792 187.87 61.1992 184.73C61.5492 181.31 61.3692 177.91 61.1692 174.46C61.1692 174.3 61.4492 174.25 61.4792 174.42C62.8592 180.75 61.8492 187.56 60.3492 193.65C59.5392 196.94 58.4992 200.17 57.3492 203.36C56.2292 206.46 55.1592 209.67 53.5792 212.6C53.4592 212.83 53.0292 212.67 53.0992 212.42C53.9492 209.35 55.3292 206.42 56.4192 203.43C57.5492 200.33 58.5892 197.2 59.4292 194.02V194.03Z" fill="#FFF197"/>
<path d="M64.7493 172.68C64.7493 172.41 65.1793 172.41 65.2193 172.68C65.6293 175.82 65.7493 179 65.9993 182.14C66.2193 184.91 66.5593 187.7 66.5093 190.47C66.4193 196.04 64.0693 201.25 61.4393 206.1C61.3693 206.24 61.1393 206.12 61.1993 205.98C63.6993 200.57 66.1993 195.45 65.9893 189.34C65.7893 183.79 64.8893 178.23 64.7393 172.68H64.7493Z" fill="#FFF197"/>
<path d="M67.0993 171.75C68.0693 177.59 68.4493 183.69 70.2493 189.42C72.0493 195.15 75.9193 199.8 82.4093 201.61C82.6693 201.68 82.6693 202.09 82.3693 202.06C76.3593 201.5 72.0893 196.16 70.2393 191.39C67.8193 185.14 67.5493 178.2 66.7893 171.75C66.7693 171.57 67.0693 171.58 67.0893 171.75H67.0993Z" fill="#FFF197"/>
<path d="M72.1893 174.761C75.9393 181.271 79.3093 187.921 83.2693 194.351C85.0893 197.311 87.0493 200.201 90.5993 201.681C94.3893 203.251 98.7493 203.731 102.719 204.761C102.899 204.811 102.839 205.041 102.659 205.011C98.6893 204.351 94.3393 203.771 90.5693 202.321C87.2293 201.041 85.1493 198.611 83.3693 195.851C79.0593 189.151 74.8293 182.121 71.6593 174.961C71.5293 174.681 72.0293 174.481 72.1893 174.761Z" fill="#FFF197"/>
<path d="M75.9393 175.27C81.8393 178.63 85.1893 184.12 88.8393 189.26C90.7793 191.99 92.8693 194.7 95.5693 196.9C99.1093 199.78 103.439 200.94 107.709 202.52C107.999 202.63 107.809 203 107.529 202.95C103.469 202.19 99.3693 200.69 96.0593 198.31C93.3693 196.37 91.2393 193.88 89.3493 191.31C85.3093 185.81 82.0793 179.33 75.7593 175.56C75.5593 175.44 75.7193 175.16 75.9293 175.28L75.9393 175.27Z" fill="#FFF197"/>
<path d="M82.0393 174.411C85.2993 177.351 88.6693 179.601 92.7893 181.451C96.7393 183.221 100.849 184.661 104.729 186.571C112.279 190.281 119.139 196.081 123.079 203.021C123.169 203.191 122.929 203.331 122.809 203.161C117.609 196.011 111.099 190.211 102.559 186.391C95.5693 183.261 86.1793 180.951 81.4793 174.811C81.2393 174.491 81.7293 174.141 82.0393 174.411Z" fill="#FFF197"/>
<path d="M84.4593 178.45C85.7693 179.5 86.7293 180.92 87.8893 182.11C89.0593 183.31 90.2993 184.47 91.5893 185.57C94.1693 187.77 96.9793 189.67 99.9093 191.46C104.149 194.05 108.999 196.91 110.349 201.61C110.419 201.86 110.019 201.97 109.919 201.72C107.929 196.47 102.249 193.73 97.4693 190.73C94.8693 189.1 92.4093 187.29 90.1393 185.3C88.0293 183.44 85.2493 181.14 84.0193 178.7C83.8993 178.46 84.2693 178.31 84.4593 178.46V178.45Z" fill="#FFF197"/>
<path d="M15.8792 106.021C16.5292 105.111 17.6292 104.651 18.6992 104.311C24.5092 102.471 31.0892 103.191 36.3692 106.251C35.6292 98.9606 35.5592 90.1406 41.6592 86.0806C54.4192 77.5706 65.3192 95.1906 71.3492 103.271C74.9092 108.041 78.5292 112.941 80.2592 118.631C81.9892 124.321 81.4792 131.071 77.4492 135.451C71.8492 141.551 62.1892 140.911 54.0292 139.501C56.6392 145.181 59.5492 150.721 62.7292 156.101C65.0792 160.081 67.6492 164.041 71.1892 167.011C75.9592 171.021 82.0892 172.911 87.9192 175.091C89.1992 175.571 90.4792 176.071 91.7492 176.581C88.6892 177.481 85.6292 178.421 82.4792 178.891C76.4592 179.791 69.3892 178.431 66.1892 173.251C63.9092 179.391 58.4292 183.791 52.7192 187.001C49.7192 188.681 46.5892 190.131 43.5192 191.671C46.0092 187.521 48.8292 183.551 51.7592 179.731C54.6592 175.951 57.8492 171.751 57.4892 166.991C57.2092 163.391 54.9292 160.301 52.6092 157.541C39.9392 142.401 23.3492 129.751 16.0592 111.401C15.3692 109.651 14.7992 107.531 15.8992 106.011L15.8792 106.021Z" fill="#F98F81"/>
<path d="M54.6692 51.3105C55.1092 55.0605 54.8092 58.8405 54.7792 62.6105C54.6692 74.1005 57.3592 86.1705 65.1192 94.6505C65.6292 95.2105 66.1992 95.8405 66.2092 96.6005C66.2092 97.5705 65.3092 98.2806 64.4492 98.7306C60.3192 100.851 55.3992 100.411 50.7892 99.8605C48.1692 99.5505 45.4092 99.1506 43.3392 97.5106C41.8292 96.3006 40.8592 94.5605 39.9692 92.8405C33.6692 80.7605 28.7592 67.2405 30.5292 53.7305C31.1792 48.7705 32.8692 43.7105 36.5192 40.2805C39.3592 37.6105 45.8292 35.0505 49.4492 37.8605C52.6992 40.3805 54.2092 47.4705 54.6592 51.3105H54.6692Z" fill="#DFB28B"/>
<path d="M32.2993 56.8809C35.6493 57.8309 38.4693 52.9609 41.8793 53.6309C43.7293 53.9909 44.8393 55.8409 45.8393 57.4409C47.3393 59.8709 49.2093 62.1609 51.4893 63.9009C52.5193 64.6909 53.6693 65.1009 54.8093 65.4809C55.1493 76.0909 57.9993 86.8909 65.1193 94.6709C65.6293 95.2309 66.1993 95.8609 66.2093 96.6209C66.2093 97.5909 65.3093 98.3009 64.4493 98.7509C60.3193 100.871 55.3993 100.431 50.7893 99.8809C48.1693 99.5709 45.4093 99.1709 43.3393 97.5309C41.8293 96.3209 40.8593 94.5809 39.9693 92.8609C34.0693 81.5409 29.3793 68.9509 30.2793 56.2909C30.9393 56.2809 31.6293 56.7009 32.2993 56.8909V56.8809Z" fill="#F9BEB6"/>
<path d="M46.1492 56.6706C44.3092 60.7606 45.6792 65.6406 44.3692 69.9306C44.2292 70.4006 44.0292 70.9006 43.6292 71.1906C42.6892 71.9006 41.3892 71.1406 40.4792 70.4006C39.0492 69.2506 37.5992 68.0706 36.5692 66.5506C35.1492 64.4706 34.6292 61.8706 34.6892 59.3506C34.7492 56.8306 35.3492 54.3606 35.9992 51.9206C36.2292 51.0606 36.5592 50.0906 37.3692 49.7206C38.1792 49.3506 39.3792 50.2806 38.8692 51.0106C39.2892 48.9606 39.8892 46.6506 41.7292 45.6506C42.0992 45.4506 42.5292 45.3106 42.9392 45.3806C43.6692 45.5006 44.1592 46.2406 44.2392 46.9706C44.3192 47.7006 44.0892 48.4306 43.8592 49.1306C44.4492 47.8806 45.7592 47.0106 47.1392 46.9606C48.0692 46.9306 49.2192 47.6206 48.9492 48.5106C48.8492 48.8306 48.5892 49.0706 48.3392 49.2906C47.2592 50.2406 46.1792 51.2006 45.0892 52.1506C49.1492 48.5706 46.7592 55.2506 46.1392 56.6406L46.1492 56.6706Z" fill="#E6715D"/>
<path d="M25.5293 55.6311C25.7493 54.1211 26.2893 52.6711 26.8393 51.2411C27.6193 49.2211 28.3993 47.1911 29.3493 45.2411C29.5893 44.7511 29.8793 44.2111 30.3993 44.0311C31.1693 43.7611 31.9993 44.4711 32.1793 45.2611C32.3493 46.0611 32.0693 46.8711 31.7893 47.6411C32.3593 46.2311 33.6993 45.1711 35.1993 44.9311C35.3593 44.9011 35.5393 44.8911 35.6793 44.9811C35.8293 45.0711 35.8893 45.2511 35.9293 45.4211C36.2493 46.9411 34.8793 48.2311 34.2093 49.6311C33.8493 50.3711 33.6793 51.1811 33.5693 51.9911C33.2193 54.4711 34.4993 66.0911 31.5193 66.6211C29.9693 66.9011 27.4493 63.2911 26.8393 62.2011C25.7293 60.2211 25.2193 57.8811 25.5393 55.6211L25.5293 55.6311Z" fill="#E6715D"/>
<path d="M21.9293 58.0407C20.7593 57.5307 20.2093 55.9407 20.8193 54.8207C21.2193 55.5107 21.8293 56.1607 22.6193 56.2807C23.4093 56.4007 24.2893 56.3107 24.1593 55.5207C24.6293 54.6307 24.3293 53.5507 24.1593 52.5507C23.7193 49.8907 24.4493 47.1107 25.8793 44.8207C27.2393 42.6407 29.2293 40.8607 31.5493 39.7507C32.2993 39.3907 33.1193 39.0707 33.5993 38.3907C34.0693 37.7207 34.0993 36.8607 34.1193 36.0407C34.1493 34.5707 34.1693 33.0207 33.4593 31.7407C33.0293 30.9607 32.3593 30.3407 31.8793 29.5907C31.1093 28.3907 30.8693 26.9307 30.7493 25.5107C30.4493 21.7907 31.0993 17.6807 33.8293 15.1307C35.2093 13.8407 37.0493 13.0107 38.0393 11.4107C39.5393 8.9907 38.5793 5.69069 39.8693 3.15069C40.8693 1.17069 43.1393 0.0306981 45.3493 0.000698077C47.5593 -0.0293019 49.7093 0.910694 51.4793 2.23069C53.2593 3.55069 54.7193 5.2407 56.1693 6.9107L47.3693 30.8907C45.6093 34.0307 44.9093 37.7407 42.6993 40.5807C41.1493 42.5807 38.9793 43.9907 37.1593 45.7507C35.3393 47.5107 33.8093 49.9107 34.1493 52.4107C34.4293 54.4807 35.8993 56.1507 37.2493 57.7407C37.5193 58.0607 37.7793 58.5707 37.4693 58.8407C37.3493 58.9507 37.1793 58.9707 37.0093 58.9807C35.3893 59.0707 33.8693 57.7007 33.6693 56.1107C33.6193 57.8007 32.2193 59.2707 30.7193 60.1507C29.0693 61.1207 27.1793 61.7207 25.7893 63.0407C23.6893 65.0507 23.2693 68.2607 23.5493 71.1507C21.6193 70.6607 20.1893 68.9107 19.6393 66.9907C19.0993 65.0707 19.3193 63.0207 19.7893 61.0807C20.0993 59.8207 20.6493 58.4307 21.8793 58.0007L21.9293 58.0407Z" fill="#1A1A1A"/>
<path d="M35.2692 18.8907C36.6692 15.5007 38.6092 12.2307 41.4792 9.94067C44.3492 7.65067 48.2692 6.47067 51.7892 7.52067C55.3092 8.57067 64.6292 23.8507 53.0392 28.3607C50.6092 29.3107 47.8192 30.6607 47.1992 33.2007C46.7992 34.8107 47.5792 36.4507 48.2192 37.9907C48.8292 39.4807 49.3292 41.0307 49.6892 42.6007C49.7792 42.9907 49.8592 43.4007 49.7692 43.7907C49.5492 44.7207 48.4892 45.1607 47.5592 45.3807C44.7892 46.0207 41.5992 45.8407 39.8492 43.5907C40.3692 39.9807 39.6592 36.3607 38.0692 33.0807C36.1892 32.8407 34.0292 32.4207 33.1192 30.7607C32.5092 29.6507 32.6592 28.2807 32.8792 27.0307C33.3792 24.2407 34.1892 21.5107 35.2692 18.9007V18.8907Z" fill="#DFB28B"/>
<path d="M54.6093 9.10095C54.2193 10.7109 53.0993 12.0609 51.8893 13.1909C50.6793 14.3209 49.3293 15.3309 48.2793 16.6109C47.4393 17.6209 46.7993 18.8009 46.3993 20.0509C46.0993 20.9809 45.9393 22.0009 46.2493 22.9309C46.5593 23.8609 47.4493 24.6409 48.4293 24.5609C46.5193 25.5609 45.4693 27.9609 46.0393 30.0409C46.2593 29.3009 46.4993 28.5409 46.9493 27.9109C47.4093 27.2809 48.1393 26.8009 48.9193 26.8509C49.6893 26.9009 50.4193 27.6409 50.2793 28.4109C50.2093 28.7909 49.9593 29.1109 49.6893 29.3809C48.6093 30.5009 47.1593 31.2709 45.6293 31.5209C44.9393 32.8009 45.5693 34.3909 46.4193 35.5809C47.2693 36.7709 48.3493 37.8609 48.6593 39.2809C48.8893 40.3209 48.8293 41.6809 49.8193 42.0909C50.2393 42.2609 50.7193 42.1809 51.1293 41.9809C51.9693 41.5709 52.5393 40.6509 52.5393 39.7209C52.5393 39.0309 52.2693 38.3009 52.5693 37.6809C52.8393 37.1209 53.4893 36.8609 54.0693 36.6409C55.5893 36.0609 57.1893 35.2509 57.8693 33.7609C58.3993 32.6109 58.2693 31.2409 58.7593 30.0709C59.5693 28.1609 61.7393 27.2909 63.2593 25.8809C64.2593 24.9509 64.9893 23.7509 65.3593 22.4409C65.5793 21.6609 65.6693 20.8209 65.4293 20.0409C65.1793 19.2109 64.5993 18.5309 64.0993 17.8209C63.3993 16.8209 62.8593 15.7009 62.5993 14.5009C62.2693 13.0209 62.3693 11.4709 62.1393 9.97094C61.6393 6.73094 59.3693 3.71093 56.2393 2.76093C55.0493 2.40093 51.8493 2.69094 52.8593 4.64094C53.1493 5.21094 53.9993 5.49094 54.3393 6.13094C54.8093 7.00094 54.8593 8.15094 54.6293 9.09094L54.6093 9.10095Z" fill="#1A1A1A"/>
<path d="M51.4093 43.1611C59.3493 52.0011 67.2893 60.8411 75.2293 69.6811C76.1693 70.7311 77.1793 71.9911 76.9093 73.3811C76.7193 74.3911 75.8793 75.1411 75.0893 75.8011C68.6993 81.1311 61.8493 85.9011 54.6393 90.0411C51.9293 91.6011 49.0693 93.0911 45.9593 93.3911C43.2693 93.6511 40.4993 93.0011 37.8893 93.6911C34.5093 94.5911 31.3393 97.6811 28.0493 96.4911C26.9893 92.3111 30.1693 87.8911 34.2493 86.4911C38.3293 85.0911 42.8893 86.1411 46.7193 88.1211C53.3193 82.3111 60.3793 76.4711 67.5593 71.3911C61.8193 67.4711 57.2993 62.9411 52.2493 58.1511C51.8593 57.7811 51.4693 57.4011 51.1993 56.9311C50.8893 56.3711 50.7793 55.7311 50.6893 55.1011C50.2993 52.4111 50.0693 49.7011 50.0093 46.9911C49.9693 45.4311 49.9793 43.7811 51.4093 43.1611Z" fill="#DFB28B"/>
<path d="M72.2192 115.181C74.8392 115.801 73.8692 119.871 71.2492 119.251C68.6292 118.631 69.5992 114.561 72.2192 115.181Z" fill="#E0735E"/>
<path d="M68.4292 120.831C69.6192 121.111 69.1792 122.971 67.9892 122.691C66.7992 122.411 67.2392 120.551 68.4292 120.831Z" fill="#E0735E"/>
<path d="M61.5491 112.751C63.4291 113.201 62.7391 116.131 60.8491 115.681C58.9691 115.231 59.6591 112.301 61.5491 112.751Z" fill="#E0735E"/>
<path d="M60.2391 122.371C61.3491 122.631 60.9391 124.361 59.8291 124.091C58.7191 123.831 59.1291 122.101 60.2391 122.371Z" fill="#E0735E"/>
<path d="M74.9892 127.401C77.8292 128.081 76.7791 132.501 73.9391 131.821C71.0991 131.141 72.1492 126.721 74.9892 127.401Z" fill="#E0735E"/>
<path d="M55.1793 129.221C56.5993 129.561 56.0793 131.771 54.6493 131.431C53.2293 131.091 53.7493 128.881 55.1793 129.221Z" fill="#E0735E"/>
<path d="M54.5092 113.581C55.7192 113.871 55.2792 115.761 54.0592 115.471C52.8492 115.181 53.2892 113.291 54.5092 113.581Z" fill="#E0735E"/>
<path d="M39.8693 11.7706C40.6093 11.3906 41.5393 11.5606 42.1893 12.0406C42.6393 12.3706 43.4293 13.2906 42.9693 13.8506C42.9193 13.9206 42.7893 13.9406 42.7193 13.8906C42.5193 13.7506 42.5093 13.6406 42.4193 13.4106C42.2993 13.1206 42.0893 12.8706 41.8393 12.6906C41.3193 12.3106 40.7793 12.2706 40.1793 12.4306C39.7893 12.5306 39.4893 11.9606 39.8793 11.7606L39.8693 11.7706Z" fill="#1A1A1A"/>
<path d="M39.6693 15.0511C40.9093 15.3511 40.4493 17.2811 39.2093 16.9811C37.9693 16.6811 38.4293 14.7511 39.6693 15.0511Z" fill="#1A1A1A"/>
<path d="M45.5891 19.7009C46.8491 20.0009 46.3891 21.971 45.1191 21.661C43.8591 21.361 44.3191 19.3909 45.5891 19.7009Z" fill="#1A1A1A"/>
<path d="M37.9494 19.4103C38.3494 19.5503 38.7293 19.7103 39.1593 19.7703C39.6093 19.8403 40.0393 19.6603 40.4093 19.4003C40.5293 19.3203 40.6493 19.4703 40.5993 19.5803C40.1193 20.6403 38.5294 21.3903 37.4794 20.6303C37.2094 20.4303 37.0593 20.1403 37.1893 19.8103C37.2993 19.5303 37.6493 19.2903 37.9593 19.4003L37.9494 19.4103Z" fill="#ED6A56"/>
<path d="M44.1693 23.2507C44.5393 23.2707 44.7993 23.6307 45.1393 23.7607C45.4993 23.9007 45.3993 24.4307 44.9993 24.3507C44.5393 24.2707 43.8993 23.9907 43.9493 23.4307C43.9493 23.3407 44.0793 23.2407 44.1693 23.2507Z" fill="#ED6A56"/>
<path d="M37.5393 16.691C37.8193 16.541 38.1193 16.591 38.3793 16.771C38.8893 17.131 38.4793 17.961 37.8993 17.651C37.6293 17.501 37.3992 17.271 37.4092 16.941C37.4092 16.841 37.4493 16.741 37.5393 16.691Z" fill="#ED6A56"/>
<path d="M36.6192 22.2403C37.1592 22.8403 37.5892 23.4303 38.3392 23.7903C38.9992 24.1103 39.7292 24.0903 40.3792 24.3803C40.4992 24.4303 40.4992 24.6303 40.3792 24.6903C38.9592 25.5103 36.6092 23.8603 36.2192 22.4703C36.1592 22.2603 36.4392 22.0503 36.6092 22.2303L36.6192 22.2403Z" fill="#ED6A56"/>
<path d="M47.9193 9.96093C49.3993 10.3109 48.8493 12.6109 47.3693 12.2609C45.8893 11.9109 46.4393 9.61093 47.9193 9.96093Z" fill="#FFF197"/>
<path d="M49.5593 10.9809C50.4793 11.2009 50.1393 12.6309 49.2193 12.4109C48.2993 12.1909 48.6393 10.7609 49.5593 10.9809Z" fill="#FFF197"/>
<path d="M51.3193 11.5111C52.1093 11.7011 51.8193 12.9311 51.0293 12.7411C50.2393 12.5511 50.5293 11.3211 51.3193 11.5111Z" fill="#FFF197"/>
<path d="M53.4692 11.871C54.2292 12.051 53.9492 13.241 53.1892 13.061C52.4292 12.881 52.7092 11.691 53.4692 11.871Z" fill="#FFF197"/>
<path d="M47.4093 8.4709C48.2493 8.6709 47.9393 9.9809 47.0993 9.7809C46.2593 9.5809 46.5693 8.2709 47.4093 8.4709Z" fill="#FFF197"/>
<path d="M38.1292 33.2312C39.9592 32.7212 41.7592 32.1312 43.5292 31.4312C43.8292 31.3112 44.1492 31.1912 44.4492 31.2912C45.1092 31.5012 45.0792 32.4812 44.7392 33.0812C43.9392 34.5012 41.8592 36.5412 39.7092 38.0412C39.3992 36.3912 38.8692 34.7712 38.1292 33.2312Z" fill="#CF9E76"/>
</svg>
