<svg width="104" height="231" viewBox="0 0 104 231" fill="none" xmlns="http://www.w3.org/2000/svg">
<path d="M75.7001 41.4167C75.5501 38.9567 76.4201 36.7667 77.1701 34.4167C83.6701 37.6467 90.2501 40.7167 96.9001 43.6467C95.7001 38.3667 94.6601 32.6667 92.6801 27.4867C91.8501 26.2667 90.7701 25.4267 89.9001 24.1367C88.6801 22.3267 88.9201 20.0367 87.1301 18.4867C86.0501 17.4167 88.5001 16.3967 89.6701 17.3667C89.2001 15.5167 87.9801 12.9367 87.9801 10.9367C87.4701 9.04666 87.2801 7.35666 87.9201 6.48666C88.1601 6.15666 88.4501 5.84666 88.8401 5.73666C89.6801 5.48666 90.4501 6.23666 90.9901 6.93666C95.1501 12.3367 95.5001 15.9767 96.4401 22.7267C97.7201 31.9267 102.53 40.9367 103.91 50.1267C103.99 50.6367 104 51.2967 103.54 51.5367C103.31 51.6567 103.04 51.6267 102.79 51.5967C96.8701 50.8167 91.2401 48.6467 85.6801 46.4867L76.8801 43.0767C76.5801 42.9567 76.2701 42.8367 76.0601 42.5967C75.7801 42.2767 75.7301 41.8267 75.7001 41.4067V41.4167Z" fill="#E0ADA6"/>
<path d="M88.02 158.036C93.25 157.396 95.65 150.446 93.59 145.606C91.52 140.766 86.67 137.786 81.95 135.436C67.03 127.996 49.55 122.866 40.28 109.006C37.92 105.466 36.19 101.386 36.09 97.1362C35.99 92.8862 37.71 88.4662 41.13 85.9362C46.85 85.3462 51.04 87.2962 55.9 90.3662C68.27 98.1862 79.35 108.026 88.57 119.386C94.43 126.616 99.65 134.696 101.51 143.816C102.93 150.796 101.14 159.736 94.37 161.946C94.04 162.056 93.71 162.166 93.38 162.276C90.15 166.906 94.83 171.796 96.83 177.076C99.24 183.426 99.04 190.726 96.28 196.936C93.22 203.806 87.3 209.156 84.59 216.166C82.77 220.866 82.36 226.336 78.95 230.046C76.84 226.226 74.73 222.396 72.62 218.576C69.67 213.236 66.68 207.796 65.45 201.826C63.96 194.606 65.2 186.856 68.88 180.466C61.65 184.326 52.92 183.236 44.76 182.606C36.59 181.976 27.44 182.266 21.54 187.956C18.55 185.406 19.83 180.546 21.77 177.126C29.75 163.096 45.32 153.706 61.45 153.176C70.77 152.876 78.77 159.176 88.03 158.046L88.02 158.036Z" fill="#CFA85E"/>
<path d="M88.9902 202.606C95.1002 193.746 95.9102 182.506 92.3002 172.556C92.2302 172.366 92.5101 172.286 92.5901 172.456C96.3701 180.836 95.8802 191.046 91.8202 199.226C89.4302 204.056 85.3202 207.686 82.7902 212.406C80.0602 217.506 79.6501 222.996 80.4401 228.626C80.4801 228.906 80.0201 228.996 79.9401 228.726C78.7701 224.386 79.2001 219.556 80.6901 215.346C82.4501 210.396 86.0602 206.846 88.9802 202.616L88.9902 202.606Z" fill="#FFF197"/>
<path d="M83.94 197.006C86.69 192.556 88.9 187.996 89.95 182.836C91.05 177.456 91 172.016 90.99 166.546C90.99 166.366 91.26 166.346 91.27 166.526C91.97 175.956 90.98 185.576 86.35 193.956C81.61 202.536 74.13 211.116 76.95 221.616C77.05 221.976 76.51 222.166 76.39 221.806C73.54 212.796 79.45 204.266 83.94 196.996V197.006Z" fill="#FFF197"/>
<path d="M77.44 191.226C80.08 186.956 83.13 182.946 85.57 178.556C86.82 176.306 87.93 173.956 88.71 171.486C89.47 169.086 89.64 166.716 89.96 164.236C90.01 163.876 90.54 163.946 90.57 164.286C90.96 168.226 89.34 172.516 87.68 176.016C85.76 180.056 83.2 183.716 80.7 187.416C74.9 196.016 69.02 206.546 74.28 216.866C74.36 217.026 74.14 217.186 74.04 217.026C68.97 208.776 72.81 198.706 77.44 191.236V191.226Z" fill="#FFF197"/>
<path d="M74.48 186.337C79.69 179.247 86.77 172.867 88.38 163.817C88.41 163.657 88.65 163.707 88.63 163.867C87.51 171.497 82.62 177.347 77.95 183.167C75.26 186.517 72.58 189.957 70.88 193.927C69 198.297 68.7601 202.557 69.7701 207.157C69.8401 207.457 69.44 207.597 69.31 207.307C66.06 200.277 70.35 191.957 74.48 186.327V186.337Z" fill="#FFF197"/>
<path d="M48.1502 182.896C55.6702 183.726 63.7702 179.496 70.0502 175.806C73.2102 173.956 76.2202 171.866 79.0602 169.566C82.0202 167.176 84.8802 164.656 86.6002 161.196C86.7102 160.966 87.0302 161.136 86.9402 161.366C85.7602 164.566 83.1902 166.886 80.6602 169.056C77.2702 171.976 73.5902 174.546 69.7102 176.766C66.1502 178.786 62.4202 180.516 58.5702 181.896C55.1902 183.106 51.6402 184.106 48.0602 183.266C47.8202 183.206 47.9002 182.866 48.1402 182.896H48.1502Z" fill="#FFF197"/>
<path d="M34.6001 182.446C39.2701 182.196 43.3401 181.216 47.7301 179.636C51.7901 178.176 55.8401 176.666 59.8001 174.926C67.9001 171.366 75.6801 166.856 81.6501 160.216C81.7701 160.086 81.9801 160.266 81.8601 160.396C76.0601 167.186 68.4701 171.856 60.3701 175.446C56.1901 177.296 51.9001 178.896 47.5901 180.436C43.6301 181.856 38.8301 183.896 34.5701 182.726C34.4101 182.686 34.4201 182.446 34.5901 182.436L34.6001 182.446Z" fill="#FFF197"/>
<path d="M41.97 168.686C50.36 163.566 60.08 161.236 68.17 155.536C68.37 155.396 68.55 155.686 68.37 155.836C61.13 161.956 51.46 164.046 43.37 168.756C36.27 172.896 30.66 178.466 25.72 184.856C32.77 179.596 41.49 176.606 49.5 173.216C58.72 169.316 67.04 164.876 74.18 157.776C74.33 157.626 74.55 157.826 74.42 157.986C68.81 165.226 59.97 169.466 51.77 173.026C42.54 177.036 33.42 180.756 24.83 186.066C24.81 186.076 24.8 186.066 24.78 186.066C24.52 186.416 24.26 186.756 24.01 187.106C23.84 187.346 23.43 187.076 23.58 186.816C27.87 179.356 34.66 173.116 41.96 168.666L41.97 168.686Z" fill="#FFF197"/>
<path d="M33.9801 166.426C38.0401 163.186 42.7601 160.816 47.6101 158.996C52.9501 156.996 58.9601 155.026 64.6701 154.546C64.9901 154.516 65.0801 155.006 64.7801 155.106C59.7801 156.766 54.4901 157.466 49.4701 159.186C44.5201 160.886 39.6901 163.126 35.4601 166.256C28.3401 171.516 23.3201 179.006 22.1101 187.846C22.0901 187.986 21.8601 187.966 21.8601 187.826C22.1501 179.256 27.4501 171.626 33.9701 166.426H33.9801Z" fill="#FFF197"/>
<path d="M96.6901 195.956C96.4301 192.286 95.5901 188.606 93.5301 184.706C90.3301 178.666 85.1001 172.626 86.6001 165.966C80.7601 166.386 75.1401 163.906 69.7601 161.596C63.4401 158.896 56.8501 156.356 50.1301 155.006C53.8101 153.936 57.6101 153.296 61.4401 153.166C70.7601 152.866 78.7601 159.166 88.0201 158.036C93.2501 157.396 95.6501 150.446 93.5901 145.606C91.5201 140.766 86.6701 137.786 81.9501 135.436C67.0301 127.996 49.5501 122.866 40.2801 109.006C37.9201 105.466 36.1901 101.386 36.0901 97.1362C35.9901 92.8862 37.7101 88.4662 41.1301 85.9362C46.8501 85.3462 51.0401 87.2962 55.9001 90.3662C68.2701 98.1862 79.3501 108.026 88.5701 119.386C94.4301 126.616 99.6501 134.696 101.51 143.816C102.93 150.796 101.14 159.736 94.3701 161.946C94.0401 162.056 93.7101 162.166 93.3801 162.276C90.1501 166.906 94.8301 171.796 96.8301 177.076C99.1201 183.096 99.0501 189.966 96.6801 195.956H96.6901Z" fill="#5F7F70"/>
<path d="M83.44 39.2962C86.52 42.3962 89.23 46.3562 89.06 50.7262C88.99 52.6262 88.37 54.4662 87.93 56.3162C87.5 58.1662 87.25 60.1562 87.91 61.9462C88.57 63.7362 90.38 65.2162 92.26 64.9362C91.7 66.4062 89.45 66.1862 88.2 65.2262C86.45 63.8862 85.41 61.6662 85.53 59.4562C85.61 57.8362 86.25 56.1262 85.55 54.6562C84.56 58.2662 84.2 62.2661 85.81 65.6461C86.62 67.3361 87.87 68.7762 88.71 70.4562C90.93 74.9162 89.59 80.8461 85.68 83.9261C84.63 82.1961 84.21 80.0862 84.51 78.0862C84.34 78.8262 84.14 79.6262 83.56 80.1262C82.98 80.6262 81.89 80.5562 81.64 79.8362C81.56 79.6062 81.58 79.3462 81.59 79.0962C81.81 75.1462 80.35 71.2662 78.39 67.8262C76.43 64.3862 73.95 61.2662 71.87 57.8962C69.52 54.0962 67.68 49.9762 66.42 45.6962C65.54 42.7262 64.94 39.6362 65.17 36.5462C65.38 33.8462 66.28 31.0862 68.05 28.9962C69.47 27.3262 72.87 24.8562 75.13 26.4662C76.6 27.5062 76.46 30.2062 77.09 31.7362C78.34 34.7862 81.17 36.9962 83.44 39.2862V39.2962Z" fill="#572000"/>
<path d="M72.3899 7.16695C73.8199 7.75695 74.8299 9.04695 75.7199 10.3069C79.4299 15.5569 82.7799 21.267 84.2399 27.527C85.0499 30.987 78.8799 32.857 76.3299 32.637C74.0499 37.667 75.5899 43.5169 76.9399 48.8769C78.2899 54.2369 79.5199 60.147 77.0199 65.077C75.2999 68.467 72.0399 70.8469 70.0799 74.1069C67.1899 78.9069 67.4599 84.897 67.8199 90.487C65.1399 91.587 62.0999 90.7269 59.3399 89.8669C57.5599 89.3169 55.7099 88.7069 54.4299 87.3569C53.4199 86.2869 52.8899 84.8669 52.3799 83.4969C51.5799 81.3369 50.7799 79.1669 49.9899 77.0069C49.7499 76.3469 49.4999 75.687 49.4199 74.987C49.2999 73.947 49.5499 72.8969 49.7999 71.8769C50.4399 69.2469 51.0899 66.617 51.7299 63.987C53.9999 54.707 56.6199 44.8269 63.7599 38.4869C65.5999 36.8569 67.9199 35.0369 67.6799 32.5869C67.4399 30.1269 64.7999 28.807 62.7699 27.417C58.2299 24.327 55.4599 18.027 57.9699 13.137C59.2499 10.637 61.7199 8.86695 64.3999 8.02695C67.0799 7.17695 69.8099 6.10694 72.4099 7.18694L72.3899 7.16695Z" fill="#E0ADA6"/>
<path d="M61.87 57.2666L57.01 65.8266L52.77 65.2266L61.87 57.2666Z" fill="#CC8176"/>
<path d="M59.0501 34.4966C58.9801 32.0966 57.5401 29.9866 56.0001 28.1366C54.4601 26.2866 52.74 24.4866 51.93 22.2366C51.12 19.9866 51.5101 17.0966 53.5901 15.6166C52.5001 12.5466 54.9201 10.7866 57.4401 9.3266C57.4401 9.3266 60.6301 7.48661 61.1001 7.08661C62.1501 6.19661 63.1901 5.18661 63.5601 3.86661C63.9301 2.54661 63.3801 0.866602 62.0701 0.466602C63.1901 -0.153398 64.8001 0.566614 65.0901 1.80661C66.9901 0.276614 69.5901 -0.333391 71.9801 0.176609C74.3601 0.686609 76.4801 2.32661 77.5801 4.50661C76.4301 5.03661 75.5701 2.29661 74.4801 2.94661C76.6901 5.28661 76.9501 9.1666 75.2301 11.8566C75.0201 12.7866 74.5301 13.6966 73.6601 14.1466C73.5601 13.6566 72.6701 10.2566 72.5601 9.76661C72.7601 11.2966 73.1101 15.8366 72.1501 17.1266C71.4601 18.0566 70.5201 18.7866 69.6501 19.5766C68.7801 20.3566 67.9401 21.2266 67.5201 22.2766C67.1001 23.3266 67.1901 24.6166 68.0201 25.3666C68.8501 26.1266 70.4701 26.0466 71.0801 25.0766C71.4601 26.0366 70.5301 27.2766 69.4201 27.2666C68.6701 27.2666 67.9801 26.7866 67.2401 26.9366C66.4701 27.0866 65.9801 27.9066 66.0501 28.6366C66.1101 29.3666 66.6101 29.9766 67.1901 30.4466C68.3101 31.3366 70.1901 31.7066 71.2501 30.6566C69.3101 35.7866 63.3201 38.5966 60.1101 43.1666C59.1201 41.5366 58.6201 39.7566 58.7401 37.8466C58.8101 36.7366 59.0801 35.6266 59.0401 34.5166L59.0501 34.4966Z" fill="#572000"/>
<path d="M72.7801 20.2166C73.2801 20.0466 73.9101 20.3266 74.0601 20.8566C74.2101 21.3866 73.9601 21.9566 73.4201 22.1366C72.9201 22.3066 72.2901 22.0266 72.1401 21.4966C71.9901 20.9666 72.2401 20.3966 72.7801 20.2166Z" fill="black"/>
<path d="M77.6101 15.117C78.6301 14.777 79.1601 16.357 78.1401 16.697C77.1201 17.037 76.5901 15.457 77.6101 15.117Z" fill="black"/>
<path d="M77.9999 19.3067C78.2799 19.2767 78.5399 19.3666 78.8199 19.2966C79.0699 19.2366 79.3199 19.1666 79.5199 18.9966C79.8299 18.7166 80.2999 18.6767 80.5599 19.0667C80.7799 19.3967 80.6499 19.9667 80.2199 20.0567C79.4999 20.2167 78.3599 20.2566 77.8499 19.6066C77.7599 19.4866 77.8599 19.3367 77.9899 19.3167L77.9999 19.3067Z" fill="#ED6A56"/>
<path d="M76.47 22.977C77.36 23.347 78.07 23.577 78.98 23.067C79.67 22.687 79.87 22.167 80.16 21.507C80.44 20.887 81.29 21.167 81.36 21.757C81.5 22.927 80.5899 23.887 79.6199 24.377C78.1799 25.107 77.25 24.857 75.89 24.137C75.14 23.747 75.7 22.657 76.47 22.977Z" fill="white"/>
<path d="M72.5301 22.847C72.6601 22.707 72.8101 22.697 72.9801 22.647C73.1301 22.607 73.2901 22.567 73.4401 22.487C73.6501 22.387 73.9301 22.617 73.7401 22.827C73.4901 23.097 73.0101 23.487 72.6301 23.287C72.4701 23.207 72.4201 22.987 72.5401 22.847H72.5301Z" fill="#ED6A56"/>
<path d="M79.0801 17.1568C79.0801 16.9268 79.2401 16.7368 79.2901 16.5268C79.3201 16.4068 79.4901 16.3968 79.5401 16.5168C79.6001 16.6668 79.6501 16.7668 79.6201 16.9368C79.6001 17.0968 79.5501 17.2268 79.4201 17.3268C79.2901 17.4268 79.0801 17.3268 79.0801 17.1568Z" fill="#ED6A56"/>
<path d="M74.88 11.6869C75.29 11.1869 76.22 10.7269 76.77 11.2769C76.87 11.3869 76.83 11.5869 76.66 11.5869C76.08 11.6069 75.61 11.7269 75.27 12.2369C75 12.6569 75.12 13.1169 74.91 13.5369C74.86 13.6369 74.75 13.6369 74.67 13.5869C74.07 13.1669 74.52 12.1269 74.88 11.6869Z" fill="#3A1300"/>
<path d="M73.0099 17.0568C73.1699 17.1368 73.1099 17.3668 72.9399 17.3868C72.0399 17.4868 71.4199 17.6568 70.8199 18.3868C70.3199 18.9868 70.2599 19.5668 70.1199 20.3068C70.0599 20.6168 69.6499 20.5468 69.6099 20.2668C69.3699 18.7168 71.2999 16.1668 73.0099 17.0568Z" fill="#3A1300"/>
<path d="M78.14 51.9761C77.25 50.4761 76.32 48.9361 74.96 47.8461C73.6 46.7561 71.68 46.1761 70.07 46.8561C67.05 48.1361 67.12 52.3161 66.86 55.5861C66.57 59.3061 65.04 63.1161 62.01 65.2961C58.98 67.4761 53.51 67.1661 51 64.4061C51.08 69.6661 46.72 74.0861 43.01 77.8061C39.3 81.5261 36.52 85.9961 36.22 91.2461C37.7 91.4961 39.31 90.8861 40.24 89.6961C40.46 93.6761 41.94 97.5761 44.41 100.696C44.84 101.236 45.42 101.796 46.09 101.696C46.6 101.616 46.97 101.176 47.27 100.756C48.18 99.4761 48.91 98.0761 49.44 96.6061C51.08 100.506 54.25 103.746 58.12 105.456C58.53 105.636 58.98 105.806 59.41 105.696C61.12 105.266 59.79 102.056 61.26 101.086C63.65 105.656 67.16 110.866 72.32 110.646C73.82 110.586 75.52 109.746 75.7 108.256C75.78 107.586 75.54 106.926 75.29 106.306C73.35 101.416 70.64 96.7461 69.76 91.5561C68.78 85.7261 70.31 79.5161 73.9 74.8061C76.56 71.3161 80.33 68.5361 81.82 64.4161C83.6 59.5161 82.79 48.3161 79.46 44.0361C77.95 46.2261 77.62 49.3761 78.13 51.9761H78.14Z" fill="#869D8D"/>
<path d="M51.27 63.4265C55.7 65.5565 61.04 65.8666 64.07 61.5066C65.99 58.7366 66.29 55.3966 66.86 52.0966C67.52 48.2366 69.85 43.9065 74.3 45.9365C75.54 46.5065 77.01 48.0265 77.94 49.7465C77.95 49.5765 77.96 49.4065 77.98 49.2465C78.12 47.4565 78.62 45.7466 79.38 44.1266C79.82 43.1866 81.25 43.9066 80.82 44.8466C80.09 46.4266 79.66 48.0765 79.63 49.8265C79.62 50.5765 79.79 51.3066 79.8 52.0566C79.82 53.4766 79.72 52.4566 80 51.9766C80.16 51.6966 80.4599 51.6666 80.7099 51.8366C82.4999 53.0366 80.16 55.8066 78.69 53.9466C78.55 54.4066 78.32 54.8266 77.95 55.1966C75.91 57.2466 73.0499 54.0166 75.4599 52.6566C75.8699 52.4266 76.39 52.9466 76.04 53.3466C78.72 50.2266 73.62 46.2565 70.65 47.4965C68.8199 48.2565 68.51 51.6166 68.25 53.3466C67.78 56.5366 67.26 59.7466 65.53 62.4466C62.12 67.7566 55.76 67.6265 50.49 65.1465C49.41 64.6365 50.2 62.9366 51.27 63.4566V63.4265Z" fill="#5F7F70"/>
<path d="M0.0100098 92.2263C5.69001 91.4063 11.7 93.1463 16.06 96.8863C21.23 93.9463 23.46 86.9563 27.08 82.2363C31.42 76.5863 38.12 73.2763 43.23 68.3063C46.11 65.5063 48.48 57.6663 50.8 54.3863C54.3 49.4363 59.32 42.1163 63.72 41.9463L61.87 57.2763C47.93 72.1463 33.73 86.7663 19.26 101.116C18.58 101.796 17.86 102.486 16.96 102.826C16.18 103.116 15.33 103.116 14.5 103.046C11.86 102.816 9.27999 101.836 7.14999 100.266C8.16999 99.9363 9.2 99.5963 10.22 99.2663C6.19 98.0663 2.56 95.5663 0 92.2363L0.0100098 92.2263Z" fill="#E0ADA6"/>
<path d="M16.7701 92.7065C16.7101 91.3665 18.7901 90.8765 19.1601 92.2465C19.5101 93.5665 19.82 94.7765 20.59 95.9265C21.18 96.8065 22.2501 98.2765 23.4801 97.8365C24.4601 97.4865 25.42 98.8165 24.65 99.5865C23.19 101.036 21.1601 100.177 19.8501 98.9565C18.1501 97.3765 16.8801 95.0465 16.7701 92.7065Z" fill="#FFEC5F"/>
<path d="M93.86 27.8561C94.22 28.7561 95.62 29.2961 96.54 29.0961C97.73 28.8461 97.07 27.4361 97.15 26.6161C97.19 26.2261 97.7 26.1261 97.96 26.3461C99.5 27.6461 99.15 30.3461 97.17 30.9261C95.2 31.5061 92.72 30.4061 91.98 28.4861C91.52 27.2961 93.38 26.6861 93.85 27.8561H93.86Z" fill="#FFEC5F"/>
<path d="M73.27 116.177C73.27 116.177 73.28 116.097 73.29 116.047C73.51 114.737 75.28 114.147 76.24 115.057C76.27 115.087 76.3 115.117 76.33 115.147C77.35 116.107 77.08 117.867 75.69 118.337C74.3 118.797 73.03 117.567 73.26 116.177H73.27Z" fill="#76AD92"/>
<path d="M66.4801 112.057C66.4801 112.057 66.5601 112.007 66.6001 111.977C67.2901 111.537 68.2301 111.837 68.5001 112.627C68.7601 113.417 68.1901 114.217 67.3701 114.287C67.3201 114.287 67.2701 114.287 67.2301 114.297C66.0301 114.397 65.4601 112.697 66.4801 112.057Z" fill="#76AD92"/>
<path d="M81.7501 122.257C81.7501 122.257 81.8202 122.197 81.8602 122.167C82.7402 121.447 84.1202 122.067 84.4502 123.047C84.7802 124.027 84.0502 125.347 82.9202 125.307C82.8702 125.307 82.8201 125.307 82.7801 125.307C82.0701 125.277 81.3302 124.917 81.1102 124.177C80.8902 123.427 81.1702 122.757 81.7602 122.267L81.7501 122.257Z" fill="#76AD92"/>
<path d="M76.7401 124.237C77.6201 123.947 78.0701 125.307 77.2001 125.597C76.3201 125.887 75.8701 124.527 76.7401 124.237Z" fill="#76AD92"/>
<path d="M55.4701 112.517C57.0101 111.997 57.8101 114.387 56.2701 114.907C54.7301 115.427 53.9301 113.037 55.4701 112.517Z" fill="#76AD92"/>
<path d="M91.4301 130.457C91.5201 130.417 91.6101 130.377 91.7001 130.327C92.8101 129.817 93.5001 131.857 92.3001 132.117C92.2001 132.137 92.1001 132.157 92.0101 132.177C90.8601 132.427 90.3601 130.937 91.4301 130.447V130.457Z" fill="#76AD92"/>
<path d="M91.3501 135.866C94.2601 134.896 95.7702 139.406 92.8602 140.386C89.9502 141.356 88.4401 136.846 91.3501 135.866Z" fill="#76AD92"/>
<path d="M97.56 149.186C97.56 149.186 97.5701 149.096 97.5801 149.056C97.7201 147.996 99.2401 147.486 99.9901 148.246C100.02 148.276 100.05 148.306 100.08 148.336C100.88 149.146 100.72 150.556 99.56 150.946C98.39 151.336 97.42 150.306 97.57 149.176L97.56 149.186Z" fill="#4A705E"/>
<path d="M98.8499 141.337C99.4499 141.137 99.7599 142.067 99.1599 142.267C98.5599 142.467 98.2499 141.537 98.8499 141.337Z" fill="#4A705E"/>
<path d="M67.54 122.206C69.23 121.636 70.11 124.266 68.42 124.826C66.73 125.396 65.85 122.766 67.54 122.206Z" fill="#4A705E"/>
<path d="M56.1 20.757C54.2 20.377 52.5 19.137 51.54 17.457C50.79 17.467 50.24 18.267 50.27 19.017C50.3 19.767 50.76 20.427 51.3 20.957C52.38 22.027 53.8299 22.717 55.3399 22.887C53.8899 23.107 52.74 24.537 52.82 25.997C54.75 26.667 56.93 26.577 58.79 25.737C58.09 26.467 58.43 27.817 59.29 28.347C60.15 28.877 61.31 28.727 62.19 28.217C64.38 26.967 66.86 24.007 64.72 21.857C62.67 19.797 58.6099 21.257 56.0899 20.747L56.1 20.757Z" fill="#FFEC5F"/>
</svg>
