<svg width="126" height="224" viewBox="0 0 126 224" fill="none" xmlns="http://www.w3.org/2000/svg">
<path d="M26.8355 43.189C26.1955 40.809 24.6755 39.009 23.2155 37.029C18.0755 42.159 12.8155 47.1689 7.44552 52.0489C6.90552 46.6689 6.07554 40.9289 6.30554 35.3889C6.70554 33.9689 7.45554 32.829 7.87554 31.339C8.45554 29.239 7.49553 27.1389 8.70553 25.1089C9.39553 23.7489 6.74552 23.5589 5.94552 24.8489C5.80552 22.9489 6.13552 20.109 5.50552 18.219C5.39552 16.259 5.03554 14.6089 4.15554 13.9789C3.82554 13.7489 3.44553 13.549 3.04553 13.559C2.17553 13.589 1.67553 14.549 1.39553 15.379C-0.834468 21.829 -0.014462 25.3789 1.24554 32.0789C2.95554 41.2089 1.25553 51.2889 2.86553 60.4289C2.95553 60.9389 3.15552 61.5589 3.66552 61.6489C3.91552 61.6889 4.16553 61.579 4.39553 61.469C9.75553 58.849 14.4055 54.999 18.9955 51.189L26.2555 45.159C26.5055 44.959 26.7555 44.739 26.8855 44.439C27.0455 44.049 26.9555 43.6089 26.8455 43.1989L26.8355 43.189Z" fill="#E0ADA6"/>
<path d="M52.2155 157.678C47.0555 158.728 42.5655 152.908 42.9855 147.658C43.4055 142.408 47.0655 138.038 50.7855 134.318C62.5755 122.528 77.5155 112.108 81.8955 96.0182C83.0155 91.9182 83.3455 87.4882 82.0855 83.4282C80.8255 79.3682 77.7955 75.7182 73.7555 74.4082C68.1455 75.6682 64.7955 78.8482 61.1655 83.2982C51.9255 94.6382 44.5455 107.498 39.4155 121.198C36.1555 129.908 33.7756 139.238 34.9056 148.468C35.7756 155.538 40.3155 163.448 47.4355 163.388C47.7855 163.388 48.1255 163.388 48.4755 163.388C53.0055 166.748 50.1256 172.878 49.9056 178.518C49.6355 185.308 52.1555 192.168 56.7455 197.178C61.8255 202.718 69.1355 205.908 73.9455 211.698C77.1655 215.578 79.2955 220.628 83.7055 223.068C84.4955 218.768 85.2755 214.478 86.0655 210.178C87.1655 204.178 88.2655 198.068 87.5455 192.018C86.6655 184.698 83.0255 177.738 77.5055 172.848C85.5855 174.208 93.5155 170.408 101.066 167.218C108.616 164.028 117.376 161.388 124.776 164.908C126.796 161.538 124.036 157.338 121.116 154.718C109.086 143.958 91.3455 139.988 75.8855 144.618C66.9555 147.288 61.3655 155.818 52.2255 157.678H52.2155Z" fill="#CFA85E"/>
<path d="M65.4655 200.249C56.8555 193.789 52.5155 183.399 52.7755 172.809C52.7755 172.609 52.4955 172.619 52.4755 172.809C51.5555 181.949 55.2655 191.479 61.7055 197.949C65.5155 201.769 70.5555 203.899 74.4555 207.569C78.6655 211.539 80.7955 216.619 81.8355 222.199C81.8855 222.479 82.3555 222.419 82.3355 222.129C82.0655 217.639 80.1255 213.199 77.3655 209.679C74.1255 205.549 69.5755 203.329 65.4555 200.239L65.4655 200.249Z" fill="#FFF197"/>
<path d="M68.4754 193.329C64.4554 189.989 60.9155 186.359 58.2755 181.809C55.5255 177.059 53.8354 171.879 52.1054 166.699C52.0454 166.529 51.7854 166.599 51.8354 166.769C54.1754 175.929 58.1654 184.739 65.2254 191.219C72.4454 197.839 82.2655 203.609 82.9355 214.459C82.9555 214.829 83.5255 214.839 83.5255 214.459C83.3655 205.009 75.0554 198.799 68.4754 193.329Z" fill="#FFF197"/>
<path d="M72.7955 185.789C68.9355 182.579 64.7755 179.749 61.0655 176.359C59.1555 174.619 57.3655 172.739 55.8455 170.659C54.3655 168.619 53.4455 166.429 52.3555 164.179C52.1955 163.849 51.7155 164.089 51.7955 164.419C52.6755 168.279 55.5755 171.829 58.2655 174.619C61.3655 177.839 64.9655 180.499 68.5055 183.209C76.7455 189.519 85.6555 197.629 83.9555 209.089C83.9255 209.269 84.1855 209.349 84.2355 209.169C86.4155 199.739 79.5755 191.409 72.8155 185.789H72.7955Z" fill="#FFF197"/>
<path d="M74.0555 180.209C66.8555 175.139 58.1255 171.339 53.7155 163.269C53.6355 163.129 53.4255 163.249 53.4955 163.399C56.9755 170.279 63.4755 174.269 69.7555 178.299C73.3655 180.619 76.9955 183.029 79.8755 186.259C83.0455 189.809 84.6255 193.769 85.1355 198.449C85.1655 198.759 85.5855 198.759 85.6155 198.449C86.4655 190.759 79.7555 184.219 74.0455 180.199L74.0555 180.209Z" fill="#FFF197"/>
<path d="M97.9154 168.579C91.0554 171.759 82.0255 170.319 74.8955 168.819C71.3155 168.069 67.7955 167.049 64.3655 165.769C60.8055 164.439 57.2855 162.959 54.5555 160.229C54.3755 160.049 54.1354 160.309 54.2854 160.499C56.4254 163.159 59.5955 164.539 62.6755 165.799C66.8155 167.489 71.1255 168.759 75.5155 169.629C79.5355 170.419 83.6155 170.869 87.7155 170.949C91.3055 171.019 94.9855 170.839 98.1155 168.909C98.3255 168.779 98.1455 168.479 97.9255 168.579H97.9154Z" fill="#FFF197"/>
<path d="M110.636 163.839C106.126 165.089 101.956 165.449 97.2955 165.349C92.9755 165.259 88.6555 165.109 84.3555 164.719C75.5455 163.919 66.7355 162.109 58.9655 157.719C58.8055 157.629 58.6655 157.869 58.8255 157.959C66.4855 162.549 75.1655 164.569 83.9855 165.399C88.5355 165.829 93.1156 165.979 97.6856 166.079C101.886 166.169 107.096 166.579 110.766 164.119C110.896 164.029 110.816 163.799 110.656 163.849L110.636 163.839Z" fill="#FFF197"/>
<path d="M99.2756 153.139C89.6856 150.959 79.7356 151.829 70.2556 148.999C70.0256 148.929 69.9456 149.269 70.1556 149.349C78.9656 152.859 88.8056 151.749 97.9656 153.649C106.016 155.319 113.096 158.809 119.816 163.309C111.466 160.569 102.246 160.499 93.5756 159.829C83.5956 159.059 74.2956 157.489 65.2656 153.029C65.0756 152.939 64.9256 153.189 65.1056 153.309C72.7156 158.389 82.4456 159.599 91.3556 160.369C101.386 161.239 111.216 161.859 121.046 164.179C121.066 164.179 121.076 164.179 121.096 164.179C121.456 164.429 121.806 164.669 122.156 164.919C122.396 165.089 122.696 164.699 122.476 164.509C116.036 158.799 107.616 155.039 99.2756 153.139Z" fill="#FFF197"/>
<path d="M106.126 148.459C101.246 146.679 96.0155 145.929 90.8455 145.749C85.1455 145.549 78.8155 145.599 73.2555 146.949C72.9355 147.029 73.0056 147.519 73.3356 147.509C78.6056 147.489 83.8456 146.479 89.1456 146.519C94.3856 146.559 99.6756 147.149 104.676 148.769C113.096 151.499 120.236 156.999 124.186 164.999C124.246 165.129 124.466 165.039 124.416 164.899C121.416 156.869 113.976 151.319 106.136 148.459H106.126Z" fill="#FFF197"/>
<path d="M56.0455 196.389C55.1255 192.829 54.7555 189.069 55.4655 184.719C56.5755 177.979 59.6255 170.589 56.0755 164.749C61.7555 163.289 66.2855 159.149 70.6555 155.259C75.7855 150.689 81.2355 146.189 87.1655 142.779C83.3355 142.929 79.5355 143.529 75.8555 144.629C66.9255 147.299 61.3355 155.829 52.1955 157.689C47.0355 158.739 42.5455 152.919 42.9655 147.669C43.3855 142.419 47.0455 138.049 50.7655 134.329C62.5555 122.539 77.4955 112.119 81.8755 96.0289C82.9955 91.9289 83.3255 87.499 82.0655 83.439C80.8055 79.379 77.7755 75.7289 73.7355 74.4189C68.1255 75.6789 64.7755 78.859 61.1455 83.309C51.9055 94.649 44.5255 107.509 39.3955 121.209C36.1355 129.919 33.7555 139.249 34.8855 148.479C35.7555 155.549 40.2955 163.459 47.4155 163.399C47.7655 163.399 48.1055 163.399 48.4555 163.399C52.9855 166.759 50.1055 172.889 49.8855 178.529C49.6355 184.969 51.8755 191.459 56.0255 196.379L56.0455 196.389Z" fill="#DE8126"/>
<path d="M18.8255 43.6389C16.8955 47.5589 15.5756 52.1789 17.1256 56.2689C17.7956 58.0489 18.9655 59.5889 19.9755 61.2089C20.9755 62.8289 21.8355 64.6389 21.7755 66.5389C21.7155 68.4389 20.4755 70.4189 18.6055 70.7589C19.6055 71.9789 21.6655 71.0489 22.5455 69.7389C23.7855 67.9189 24.0555 65.4789 23.2455 63.4189C22.6555 61.9089 21.4955 60.4889 21.6955 58.8789C23.7855 61.9889 25.3955 65.6689 24.9455 69.3889C24.7155 71.2489 23.9855 73.0189 23.7255 74.8689C23.0355 79.7989 26.1955 84.9989 30.8855 86.6789C31.3255 84.6989 31.0555 82.5689 30.1455 80.7689C30.5355 81.4189 30.9855 82.1189 31.6955 82.3989C32.4055 82.6789 33.4155 82.2789 33.4255 81.5089C33.4255 81.2589 33.3255 81.0289 33.2355 80.7889C31.7755 77.1089 31.9256 72.9689 32.6856 69.0889C33.4556 65.2089 34.8055 61.4589 35.7055 57.6089C36.7255 53.2589 37.1555 48.7689 36.9955 44.3089C36.8855 41.2189 36.4755 38.0889 35.2655 35.2389C34.2055 32.7389 32.4755 30.4189 30.1355 28.9989C28.2655 27.8689 24.2555 26.6089 22.6155 28.8489C21.5555 30.2989 22.5456 32.8189 22.4356 34.4689C22.2156 37.7589 20.2355 40.7489 18.8155 43.6389H18.8255Z" fill="#572000"/>
<path d="M19.0854 9.66901C17.9154 10.689 17.3754 12.219 16.9254 13.709C15.0754 19.869 13.7154 26.339 14.3254 32.749C14.6654 36.289 21.1054 36.099 23.4554 35.079C27.2154 39.119 27.6154 45.169 28.0354 50.669C28.4654 56.179 29.1754 62.179 33.1054 66.049C35.8154 68.719 39.6554 69.939 42.5554 72.399C46.8254 76.029 48.4654 81.799 49.8954 87.209C52.7854 87.399 55.3954 85.619 57.7454 83.919C59.2554 82.829 60.8254 81.669 61.6054 79.979C62.2254 78.649 62.2754 77.129 62.3254 75.669C62.3954 73.369 62.4654 71.059 62.5354 68.759C62.5554 68.059 62.5754 67.349 62.4354 66.669C62.2154 65.639 61.6454 64.729 61.0854 63.839C59.6454 61.549 58.1954 59.259 56.7554 56.969C51.6554 48.889 46.0354 40.349 37.2354 36.619C34.9654 35.659 32.1954 34.669 31.6454 32.269C31.0954 29.859 33.1654 27.769 34.6654 25.799C37.9854 21.429 38.6054 14.569 34.6754 10.739C32.6654 8.77902 29.7654 7.88902 26.9554 7.92902C24.1454 7.97902 21.2154 7.82901 19.0954 9.66901H19.0854Z" fill="#E0ADA6"/>
<path d="M44.9956 53.8184L52.3156 60.3984L56.1456 58.4784L44.9956 53.8184Z" fill="#CC8176"/>
<path d="M40.4257 31.3387C39.7257 29.0387 40.4257 26.5887 41.2957 24.3387C42.1657 22.0887 43.2257 19.8387 43.2757 17.4487C43.3257 15.0587 42.0356 12.4487 39.5956 11.6987C39.6556 8.44868 36.8056 7.53869 33.9456 6.95869C33.9456 6.95869 30.3357 6.2287 29.7657 5.9987C28.4957 5.4887 27.1857 4.85868 26.4057 3.72868C25.6357 2.59868 25.6257 0.828697 26.7357 0.0286965C25.4857 -0.201303 24.1857 0.988677 24.2957 2.25868C22.0057 1.41868 19.3457 1.6587 17.2457 2.9087C15.1457 4.1587 13.6557 6.37868 13.3057 8.78868C14.5657 8.92868 14.5157 6.04867 15.7457 6.31867C14.3957 9.23867 15.3757 12.9987 17.8657 15.0087C18.3657 15.8187 19.1057 16.5287 20.0857 16.6787C20.0257 16.1887 19.7957 12.6687 19.7357 12.1787C20.0257 13.6887 21.1357 18.1087 22.4657 19.0187C23.4157 19.6787 24.5357 20.0787 25.6157 20.5487C26.6857 21.0087 27.7657 21.5687 28.4957 22.4287C29.2257 23.2987 29.5456 24.5387 29.0056 25.5187C28.4656 26.4987 26.9057 26.9387 26.0157 26.2187C25.9557 27.2487 27.2456 28.1287 28.2856 27.7687C28.9956 27.5287 29.4957 26.8587 30.2457 26.7587C31.0157 26.6587 31.7456 27.2787 31.9156 27.9887C32.0856 28.6987 31.8156 29.4387 31.4156 30.0587C30.6356 31.2587 28.9657 32.1987 27.6357 31.5487C31.1057 35.7987 37.6757 36.5587 42.1757 39.8687C42.5957 38.0087 42.5057 36.1687 41.7757 34.3887C41.3557 33.3587 40.7457 32.3887 40.4257 31.3287V31.3387Z" fill="#572000"/>
<path d="M22.8655 22.1582C22.3355 22.1582 21.8255 22.6282 21.8555 23.1682C21.8755 23.7182 22.3055 24.1782 22.8655 24.1782C23.3955 24.1782 23.9055 23.7082 23.8755 23.1682C23.8555 22.6182 23.4255 22.1582 22.8655 22.1582Z" fill="black"/>
<path d="M16.6656 18.8584C15.5956 18.8584 15.5856 20.5284 16.6656 20.5284C17.7456 20.5284 17.7456 18.8584 16.6656 18.8584Z" fill="black"/>
<path d="M17.6255 22.9587C17.3555 23.0187 17.1255 23.1887 16.8355 23.2087C16.5755 23.2287 16.3255 23.2487 16.0755 23.1487C15.6955 22.9887 15.2355 23.0987 15.1155 23.5387C15.0155 23.9187 15.3155 24.4187 15.7455 24.3687C16.4755 24.2887 17.5655 23.9688 17.8455 23.1888C17.8955 23.0488 17.7455 22.9287 17.6155 22.9587H17.6255Z" fill="#ED6A56"/>
<path d="M20.2454 25.9483C19.5154 26.5883 18.9154 27.0284 17.8954 26.8384C17.1254 26.6984 16.7654 26.2683 16.2754 25.7283C15.8154 25.2283 15.0954 25.7583 15.2154 26.3483C15.4554 27.5083 16.6154 28.1184 17.7054 28.2784C19.3054 28.5084 20.1054 27.9784 21.1654 26.8684C21.7454 26.2584 20.8754 25.3983 20.2454 25.9483Z" fill="white"/>
<path d="M23.9456 24.5785C23.7756 24.4885 23.6356 24.5185 23.4556 24.5285C23.2956 24.5385 23.1356 24.5485 22.9756 24.5285C22.7456 24.4985 22.5557 24.8085 22.8057 24.9385C23.1257 25.1085 23.7056 25.3285 24.0056 25.0185C24.1356 24.8885 24.1056 24.6585 23.9456 24.5685V24.5785Z" fill="#ED6A56"/>
<path d="M15.9254 21.259C15.8554 21.039 15.6454 20.909 15.5254 20.729C15.4554 20.619 15.2954 20.669 15.2854 20.789C15.2854 20.959 15.2654 21.059 15.3454 21.219C15.4154 21.369 15.5055 21.469 15.6555 21.529C15.8055 21.589 15.9754 21.409 15.9254 21.259Z" fill="#ED6A56"/>
<path d="M18.1656 14.7485C17.6156 14.4085 16.5856 14.2685 16.2456 14.9585C16.1756 15.0885 16.2856 15.2685 16.4456 15.2185C16.9956 15.0485 17.4856 15.0185 17.9656 15.3985C18.3556 15.7085 18.3856 16.1885 18.7256 16.5085C18.8056 16.5885 18.9056 16.5585 18.9656 16.4785C19.3956 15.8885 18.6456 15.0385 18.1656 14.7385V14.7485Z" fill="#3A1300"/>
<path d="M21.6455 19.2384C21.5255 19.3684 21.6454 19.5584 21.8154 19.5284C22.7054 19.3384 23.3455 19.3084 24.1455 19.7984C24.8155 20.2084 25.0554 20.7384 25.4154 21.3984C25.5654 21.6684 25.9354 21.4784 25.8854 21.1984C25.6154 19.6484 22.9854 17.8484 21.6354 19.2384H21.6455Z" fill="#3A1300"/>
<path d="M27.8855 53.9788C28.2555 52.2688 28.6455 50.5189 29.5855 49.0489C30.5355 47.5789 32.1655 46.4289 33.9155 46.5589C37.1855 46.8089 38.4455 50.7988 39.7355 53.8188C41.1955 57.2588 43.8455 60.3788 47.4155 61.4788C50.9855 62.5788 56.0655 60.5488 57.5755 57.1388C59.1755 62.1488 64.7055 64.9589 69.4155 67.3089C74.1155 69.6589 78.1655 73.0189 80.1255 77.8989C78.7955 78.6089 77.0855 78.5389 75.8255 77.7089C76.8855 81.5489 76.7255 85.7189 75.3655 89.4589C75.1355 90.0989 74.7655 90.8189 74.0855 90.9389C73.5755 91.0289 73.0855 90.7289 72.6655 90.4289C71.3955 89.5089 70.2555 88.4089 69.2855 87.1789C68.9755 91.3989 66.9955 95.4789 63.8655 98.3289C63.5355 98.6289 63.1655 98.9288 62.7155 98.9688C60.9555 99.0988 61.2055 95.6389 59.4955 95.1789C58.6755 100.279 57.0055 106.329 52.0455 107.759C50.6055 108.179 48.7255 107.919 48.0755 106.569C47.7855 105.959 47.8055 105.259 47.8355 104.589C48.1255 99.3288 49.2055 94.0488 48.3855 88.8488C47.4655 83.0088 44.0355 77.6089 39.1455 74.2789C35.5155 71.8189 31.0555 70.3689 28.3355 66.9389C25.0955 62.8589 22.2955 51.9789 24.0955 46.8689C26.2255 48.4589 27.5355 51.3488 27.8855 53.9788Z" fill="#EDBD4F"/>
<path d="M57.0055 56.2991C53.4855 59.7291 48.5155 61.7191 44.2655 58.5491C41.5655 56.5291 40.2156 53.4591 38.6256 50.5191C36.7656 47.0691 33.1855 43.7091 29.6155 47.0391C28.6155 47.9691 27.7056 49.8791 27.3756 51.8091C27.3056 51.6491 27.2456 51.4891 27.1856 51.3491C26.4856 49.6991 25.4655 48.2392 24.2255 46.9392C23.5055 46.1892 22.3755 47.3191 23.0855 48.0791C24.2855 49.3491 25.2155 50.7691 25.7955 52.4191C26.0455 53.1291 26.1155 53.8791 26.3455 54.5791C26.7755 55.9291 26.5455 54.9291 26.1355 54.5791C25.8955 54.3691 25.6055 54.4291 25.4155 54.6691C24.1055 56.3691 27.1956 58.2591 27.9956 56.0291C28.2756 56.4191 28.6255 56.7491 29.0955 56.9791C31.6855 58.2691 33.3655 54.3091 30.6455 53.7791C30.1855 53.6891 29.8555 54.3491 30.3155 54.6191C26.7855 52.5191 30.3555 47.1291 33.5655 47.3591C35.5455 47.4991 36.9055 50.5791 37.6955 52.1391C39.1455 55.0091 40.6655 57.8891 43.1655 59.8991C48.0955 63.8491 54.0755 61.7091 58.2855 57.6791C59.1555 56.8491 57.8655 55.4891 57.0055 56.3291V56.2991Z" fill="#DE8126"/>
<path d="M114.745 67.3087C109.095 68.3387 103.955 71.8987 101.005 76.8287C95.1755 75.6887 90.8355 69.7587 85.8955 66.4487C79.9855 62.4687 72.5755 61.4687 66.1555 58.3687C62.5355 56.6287 57.7955 49.9487 54.5555 47.5787C49.6655 43.9987 42.5755 38.6487 38.3555 39.8887L44.9855 53.8287C62.9255 63.4987 81.0455 72.8387 99.3255 81.8487C100.185 82.2787 101.085 82.7087 102.045 82.7387C102.875 82.7687 103.685 82.4987 104.445 82.1687C106.875 81.1087 109.005 79.3687 110.525 77.1887C109.445 77.1887 108.365 77.2087 107.295 77.2187C110.735 74.7987 113.375 71.2787 114.755 67.3087H114.745Z" fill="#E0ADA6"/>
<path d="M99.0055 73.0885C98.6355 71.7985 96.5055 71.9985 96.5955 73.4185C96.6755 74.7785 96.7755 76.0285 96.4055 77.3685C96.1255 78.3885 95.5755 80.1185 94.2755 80.0885C93.2355 80.0685 92.7455 81.6285 93.7255 82.1185C95.5655 83.0285 97.2255 81.5685 98.0755 79.9985C99.1755 77.9585 99.6455 75.3485 99.0055 73.0985V73.0885Z" fill="#FFEC5F"/>
<path d="M5.3156 36.1087C5.2656 37.0787 4.10561 38.0287 3.16561 38.1387C1.95561 38.2787 2.13561 36.7287 1.79561 35.9887C1.63561 35.6287 1.11563 35.6987 0.935626 35.9887C-0.104373 37.7087 1.07562 40.1587 3.14562 40.0787C5.20562 39.9987 7.1956 38.1687 7.2856 36.1187C7.3356 34.8487 5.3856 34.8587 5.3156 36.1187V36.1087Z" fill="#FFEC5F"/>
<path d="M52.8957 113.299C52.8957 113.299 52.8557 113.219 52.8357 113.189C52.2057 112.019 50.3456 112.019 49.7256 113.189C49.7056 113.229 49.6856 113.269 49.6656 113.299C49.0056 114.539 49.8256 116.119 51.2856 116.119C52.7456 116.119 53.5657 114.539 52.9057 113.299H52.8957Z" fill="#B25538"/>
<path d="M58.0354 107.239C58.0354 107.239 57.9454 107.219 57.8954 107.209C57.1054 107.019 56.2954 107.589 56.2954 108.429C56.2954 109.269 57.0954 109.839 57.8954 109.649C57.9454 109.639 57.9854 109.629 58.0354 109.619C59.2054 109.329 59.2054 107.539 58.0354 107.259V107.239Z" fill="#B25538"/>
<path d="M46.7956 121.759C46.7956 121.759 46.7056 121.729 46.6556 121.709C45.5956 121.309 44.4856 122.329 44.4856 123.359C44.4856 124.389 45.5956 125.419 46.6556 125.009C46.7056 124.989 46.7456 124.979 46.7956 124.959C47.4656 124.709 48.0556 124.129 48.0156 123.359C47.9756 122.579 47.5156 122.029 46.7956 121.759Z" fill="#B25538"/>
<path d="M52.1754 122.049C51.2554 122.049 51.2454 123.489 52.1754 123.489C53.1054 123.489 53.1054 122.049 52.1754 122.049Z" fill="#B25538"/>
<path d="M68.6155 104.169C66.9955 104.169 66.9855 106.689 68.6155 106.689C70.2455 106.689 70.2355 104.169 68.6155 104.169Z" fill="#B25538"/>
<path d="M40.2255 132.609C40.1255 132.599 40.0255 132.589 39.9255 132.579C38.7055 132.449 38.7055 134.599 39.9255 134.469C40.0255 134.459 40.1255 134.449 40.2255 134.439C41.3955 134.309 41.3955 132.739 40.2255 132.609Z" fill="#B25538"/>
<path d="M42.0155 137.719C38.9555 137.719 38.9455 142.479 42.0155 142.479C45.0855 142.479 45.0855 137.719 42.0155 137.719Z" fill="#B25538"/>
<path d="M40.3555 152.319C40.3555 152.319 40.3155 152.239 40.2955 152.199C39.8255 151.239 38.2255 151.239 37.7555 152.199C37.7355 152.239 37.7155 152.279 37.6955 152.319C37.1955 153.339 37.7955 154.629 39.0255 154.629C40.2555 154.629 40.8555 153.339 40.3555 152.319Z" fill="#FFF197"/>
<path d="M36.6356 145.289C36.0056 145.289 36.0056 146.269 36.6356 146.269C37.2656 146.269 37.2656 145.289 36.6356 145.289Z" fill="#FFF197"/>
<path d="M60.2456 117.198C58.4656 117.198 58.4656 119.968 60.2456 119.968C62.0256 119.968 62.0256 117.198 60.2456 117.198Z" fill="#FFF197"/>
<path d="M38.8455 17.3688C40.5255 16.4088 41.7455 14.6888 42.1155 12.7888C42.8255 12.5588 43.6055 13.1488 43.8155 13.8688C44.0255 14.5888 43.7955 15.3588 43.4555 16.0288C42.7655 17.3888 41.6155 18.4988 40.2455 19.1488C41.6855 18.8988 43.2355 19.8888 43.6155 21.2988C41.9955 22.5488 39.9055 23.1488 37.8655 22.9588C38.7655 23.4288 38.8655 24.8188 38.2155 25.5988C37.5655 26.3788 36.4255 26.5988 35.4255 26.3988C32.9555 25.9088 29.6555 23.8888 31.0055 21.1688C32.2955 18.5688 36.6055 18.6588 38.8355 17.3788L38.8455 17.3688Z" fill="#FFEC5F"/>
</svg>
