<svg width="125" height="234" viewBox="0 0 125 234" fill="none" xmlns="http://www.w3.org/2000/svg">
<path d="M123.94 61.0605C128.15 56.0205 106.68 37.2605 95.3196 27.7905C97.1096 21.1905 93.8996 13.5705 87.9196 10.2305C87.6196 19.1205 90.4496 28.0805 95.7896 35.1805C97.5696 37.5505 99.6196 39.7105 101.65 41.8705C105.01 45.4205 108.37 48.9805 111.73 52.5305C104.2 48.8205 96.6696 45.1205 89.1396 41.4105C88.9896 41.3305 89.1596 51.2705 89.6496 52.4305C91.3496 56.4305 92.3196 56.1805 96.6496 57.0805C105.66 58.9505 114.76 60.2905 123.93 61.0505L123.94 61.0605Z" fill="#DFB28B"/>
<path d="M53.1396 103.271C49.5796 108.041 45.9596 112.941 44.2296 118.631C42.4996 124.321 43.0096 131.071 47.0396 135.451C52.6396 141.551 62.2996 140.911 70.4596 139.501C67.8496 145.181 64.9396 150.721 61.7596 156.101C59.4096 160.081 56.8396 164.041 53.2996 167.011C48.5296 171.011 42.3996 172.911 36.5696 175.091C29.7596 177.631 23.1296 180.651 16.7596 184.141C10.2296 187.711 3.61961 192.171 0.689607 199.011C-0.140393 200.941 -0.480403 203.541 1.1796 204.831C10.3896 199.561 21.7996 204.371 32.3896 205.061C41.7296 205.671 51.2496 202.771 58.6696 197.071C57.6996 200.371 59.1196 203.961 61.2996 206.621C63.4796 209.281 66.3496 211.271 68.9196 213.541C74.3696 218.361 78.5396 224.621 80.8996 231.511C81.1396 232.211 81.3896 232.961 81.9596 233.431C83.5296 234.741 85.8096 233.001 86.8396 231.241C90.0496 225.771 90.3596 219.021 89.2996 212.761C87.2196 200.501 80.3196 189.601 72.7496 179.731C69.8496 175.951 66.6596 171.751 67.0196 166.991C67.2996 163.391 69.5796 160.301 71.8996 157.541C84.5696 142.401 101.16 129.751 108.45 111.401C109.14 109.651 109.71 107.531 108.61 106.011C107.96 105.101 106.86 104.641 105.79 104.301C99.9796 102.461 93.3996 103.181 88.1196 106.241C88.8596 98.9508 88.9296 90.1308 82.8296 86.0708C70.0696 77.5608 59.1696 95.1808 53.1396 103.261V103.271Z" fill="#CFA85E"/>
<path d="M78.8297 193.931C76.8597 189.481 74.2297 184.851 70.6497 181.311C70.4997 181.161 70.1897 181.361 70.3197 181.531C73.0497 185.241 75.7497 188.811 77.7397 192.941C79.7797 197.161 81.1997 201.621 81.9797 206.221C82.7197 210.631 82.8697 215.171 82.2597 219.661C81.9897 221.651 81.5197 223.651 80.6697 225.541C79.6797 227.711 78.1897 229.301 76.2997 230.891C76.0197 231.121 76.3397 231.511 76.6697 231.351C80.4797 229.451 82.0897 225.091 82.7597 221.541C83.6197 216.981 83.3897 212.221 82.7797 207.721C82.1297 202.961 80.7897 198.321 78.8397 193.931H78.8297Z" fill="#FFF197"/>
<path d="M75.7797 204.98C73.9397 200.76 71.7497 196.69 70.1697 192.37C69.4297 190.37 68.8197 188.32 68.4297 186.22C67.9797 183.74 68.0897 181.34 68.1097 178.82C68.1097 178.52 67.5897 178.42 67.5097 178.75C66.5397 182.75 67.5597 187.15 68.8097 190.9C70.1497 194.94 72.0697 198.79 73.9297 202.63C77.5897 210.18 80.8297 218.43 78.0597 226.96C78.0197 227.09 78.2397 227.15 78.2897 227.02C81.1697 219.57 78.7497 211.81 75.7797 204.99V204.98Z" fill="#FFF197"/>
<path d="M65.0497 194.03C64.2497 190.98 63.5997 187.87 63.2797 184.73C62.9297 181.31 63.1096 177.91 63.3096 174.46C63.3096 174.3 63.0297 174.25 62.9997 174.42C61.6197 180.75 62.6297 187.56 64.1297 193.65C64.9397 196.94 65.9797 200.17 67.1297 203.36C68.2497 206.46 69.3197 209.67 70.8997 212.6C71.0197 212.83 71.4497 212.67 71.3797 212.42C70.5297 209.35 69.1496 206.42 68.0596 203.43C66.9296 200.33 65.8897 197.2 65.0497 194.02V194.03Z" fill="#FFF197"/>
<path d="M59.7295 172.68C59.7295 172.41 59.2995 172.41 59.2595 172.68C58.8495 175.82 58.7295 179 58.4795 182.14C58.2595 184.91 57.9196 187.7 57.9696 190.47C58.0596 196.04 60.4095 201.25 63.0395 206.1C63.1095 206.24 63.3395 206.12 63.2795 205.98C60.7795 200.57 58.2795 195.45 58.4895 189.34C58.6895 183.79 59.5895 178.23 59.7395 172.68H59.7295Z" fill="#FFF197"/>
<path d="M57.3797 171.75C56.4097 177.59 56.0297 183.69 54.2297 189.42C52.4297 195.15 48.5597 199.8 42.0697 201.61C41.8097 201.68 41.8097 202.09 42.1097 202.06C48.1197 201.5 52.3897 196.16 54.2397 191.39C56.6597 185.14 56.9297 178.2 57.6897 171.75C57.7097 171.57 57.4097 171.58 57.3897 171.75H57.3797Z" fill="#FFF197"/>
<path d="M52.2896 174.771C48.5396 181.281 45.1696 187.931 41.2096 194.361C39.3896 197.321 37.4296 200.211 33.8796 201.691C30.0896 203.261 25.7296 203.741 21.7596 204.771C21.5796 204.821 21.6396 205.051 21.8196 205.021C25.7896 204.361 30.1396 203.781 33.9096 202.331C37.2496 201.051 39.3296 198.621 41.1096 195.861C45.4196 189.161 49.6496 182.131 52.8196 174.971C52.9496 174.691 52.4496 174.491 52.2896 174.771Z" fill="#FFF197"/>
<path d="M48.5396 175.28C42.6396 178.64 39.2896 184.13 35.6396 189.27C33.6996 192 31.5996 194.71 28.9096 196.91C25.3696 199.79 21.0396 200.95 16.7696 202.53C16.4796 202.64 16.6696 203.01 16.9496 202.96C21.0096 202.2 25.1096 200.7 28.4196 198.32C31.1096 196.38 33.2396 193.89 35.1296 191.32C39.1696 185.82 42.3996 179.34 48.7196 175.57C48.9196 175.45 48.7596 175.17 48.5496 175.29L48.5396 175.28Z" fill="#FFF197"/>
<path d="M42.4396 174.411C39.1796 177.351 35.8096 179.601 31.6896 181.451C27.7396 183.221 23.6296 184.661 19.7496 186.571C12.1996 190.281 5.33963 196.081 1.39963 203.021C1.30963 203.191 1.54963 203.331 1.66963 203.161C6.86963 196.011 13.3796 190.211 21.9196 186.391C28.9096 183.261 38.2996 180.951 42.9996 174.811C43.2396 174.491 42.7496 174.141 42.4396 174.411Z" fill="#FFF197"/>
<path d="M40.0198 178.46C38.7098 179.51 37.7498 180.93 36.5898 182.12C35.4198 183.32 34.1798 184.48 32.8898 185.58C30.3098 187.78 27.4998 189.68 24.5698 191.47C20.3298 194.06 15.4798 196.92 14.1298 201.62C14.0598 201.87 14.4598 201.98 14.5598 201.73C16.5498 196.48 22.2298 193.74 27.0098 190.74C29.6098 189.11 32.0698 187.3 34.3398 185.31C36.4498 183.45 39.2298 181.15 40.4598 178.71C40.5798 178.47 40.2098 178.32 40.0198 178.47V178.46Z" fill="#FFF197"/>
<path d="M108.599 106.03C107.949 105.12 106.849 104.66 105.779 104.32C99.9695 102.48 93.3895 103.2 88.1095 106.26C88.8495 98.9704 88.9195 90.1504 82.8195 86.0904C70.0595 77.5804 59.1595 95.2004 53.1295 103.28C49.5695 108.05 45.9495 112.95 44.2195 118.64C42.4895 124.33 42.9995 131.08 47.0295 135.46C52.6295 141.56 62.2895 140.92 70.4495 139.51C67.8395 145.19 64.9295 150.73 61.7495 156.11C59.3995 160.09 56.8295 164.05 53.2895 167.02C48.5195 171.02 42.3895 172.92 36.5595 175.1C35.2795 175.58 33.9995 176.08 32.7295 176.59C35.7895 177.49 38.8495 178.43 41.9995 178.9C48.0195 179.8 55.0895 178.44 58.2895 173.26C60.5695 179.4 66.0495 183.8 71.7595 187.01C74.7595 188.69 77.8895 190.14 80.9595 191.68C78.4695 187.53 75.6495 183.56 72.7195 179.74C69.8195 175.96 66.6295 171.76 66.9895 167C67.2695 163.4 69.5495 160.31 71.8695 157.55C84.5395 142.41 101.129 129.76 108.419 111.41C109.109 109.66 109.679 107.54 108.579 106.02L108.599 106.03Z" fill="#3E769B"/>
<path d="M69.8095 51.3203C69.3695 55.0703 69.6695 58.8503 69.6995 62.6203C69.8095 74.1103 67.1195 86.1803 59.3595 94.6603C58.8495 95.2203 58.2795 95.8503 58.2695 96.6103C58.2695 97.5803 59.1695 98.2903 60.0295 98.7403C64.1595 100.86 69.0795 100.42 73.6895 99.8703C76.3095 99.5603 79.0695 99.1603 81.1395 97.5203C82.6495 96.3103 83.6195 94.5703 84.5095 92.8503C90.8095 80.7703 95.7195 67.2503 93.9495 53.7403C93.2995 48.7803 91.6095 43.7203 87.9595 40.2903C85.1195 37.6203 78.6495 35.0603 75.0295 37.8703C71.7795 40.3903 70.2695 47.4803 69.8195 51.3203H69.8095Z" fill="#DFB28B"/>
<path d="M92.1796 56.8809C88.8296 57.8309 86.0095 52.9609 82.5995 53.6309C80.7495 53.9909 79.6395 55.841 78.6395 57.441C77.1395 59.871 75.2695 62.161 72.9895 63.901C71.9595 64.691 70.8095 65.1009 69.6695 65.4809C69.3295 76.0909 66.4795 86.8909 59.3595 94.6709C58.8495 95.2309 58.2795 95.861 58.2695 96.621C58.2695 97.591 59.1695 98.301 60.0295 98.751C64.1595 100.871 69.0795 100.431 73.6895 99.8809C76.3095 99.5709 79.0695 99.171 81.1395 97.531C82.6495 96.321 83.6195 94.5809 84.5095 92.8609C90.4095 81.5409 95.0995 68.9509 94.1995 56.2909C93.5395 56.2809 92.8496 56.7009 92.1796 56.8909V56.8809Z" fill="#74BDED"/>
<path d="M78.3296 56.6706C80.1696 60.7606 78.7996 65.6406 80.1096 69.9306C80.2496 70.4006 80.4496 70.9006 80.8496 71.1906C81.7896 71.9006 83.0895 71.1406 83.9995 70.4006C85.4295 69.2506 86.8796 68.0706 87.9096 66.5506C89.3296 64.4706 89.8496 61.8706 89.7896 59.3506C89.7296 56.8306 89.1296 54.3606 88.4796 51.9206C88.2496 51.0606 87.9196 50.0906 87.1096 49.7206C86.2996 49.3506 85.0996 50.2806 85.6096 51.0106C85.1896 48.9606 84.5895 46.6506 82.7495 45.6506C82.3795 45.4506 81.9496 45.3106 81.5396 45.3806C80.8096 45.5006 80.3196 46.2406 80.2396 46.9706C80.1596 47.7006 80.3896 48.4306 80.6196 49.1306C80.0296 47.8806 78.7195 47.0106 77.3395 46.9606C76.4095 46.9306 75.2595 47.6206 75.5295 48.5106C75.6295 48.8306 75.8896 49.0706 76.1396 49.2906C77.2196 50.2406 78.2996 51.2006 79.3896 52.1506C75.3296 48.5706 77.7195 55.2506 78.3395 56.6406L78.3296 56.6706Z" fill="#3E769B"/>
<path d="M98.9497 55.631C98.7297 54.121 98.1897 52.671 97.6397 51.241C96.8597 49.221 96.0796 47.191 95.1296 45.241C94.8896 44.751 94.5997 44.2111 94.0797 44.0311C93.3097 43.7611 92.4797 44.471 92.2997 45.261C92.1297 46.061 92.4096 46.871 92.6896 47.641C92.1196 46.231 90.7796 45.1711 89.2796 44.9311C89.1196 44.9011 88.9397 44.891 88.7997 44.981C88.6497 45.071 88.5897 45.251 88.5497 45.421C88.2297 46.941 89.5997 48.231 90.2697 49.631C90.6297 50.371 90.7996 51.181 90.9096 51.991C91.2596 54.471 89.9797 66.0911 92.9597 66.6211C94.5097 66.9011 97.0297 63.291 97.6397 62.201C98.7497 60.221 99.2596 57.8811 98.9396 55.6211L98.9497 55.631Z" fill="#3E769B"/>
<path d="M102.55 58.0407C103.72 57.5307 104.27 55.9407 103.66 54.8207C103.26 55.5107 102.65 56.1607 101.86 56.2807C101.07 56.4007 100.19 56.3107 100.32 55.5207C99.8496 54.6307 100.15 53.5507 100.32 52.5507C100.76 49.8907 100.03 47.1107 98.5996 44.8207C97.2396 42.6407 95.2496 40.8607 92.9296 39.7507C92.1796 39.3907 91.3596 39.0707 90.8796 38.3907C90.4096 37.7207 90.3796 36.8607 90.3596 36.0407C90.3296 34.5707 90.3096 33.0207 91.0196 31.7407C91.4496 30.9607 92.1196 30.3407 92.5996 29.5907C93.3696 28.3907 93.6096 26.9307 93.7296 25.5107C94.0296 21.7907 93.3796 17.6807 90.6496 15.1307C89.2696 13.8407 87.4296 13.0107 86.4396 11.4107C84.9396 8.9907 85.8996 5.69069 84.6096 3.15069C83.6096 1.17069 81.3396 0.0306981 79.1296 0.000698088C76.9196 -0.0293019 74.7696 0.910679 72.9996 2.23068C71.2196 3.55068 69.7596 5.2407 68.3096 6.9107L77.1096 30.8907C78.8696 34.0307 79.5696 37.7407 81.7796 40.5807C83.3296 42.5807 85.4996 43.9907 87.3196 45.7507C89.1396 47.5107 90.6696 49.9107 90.3296 52.4107C90.0496 54.4807 88.5796 56.1507 87.2296 57.7407C86.9596 58.0607 86.6996 58.5707 87.0096 58.8407C87.1296 58.9507 87.2996 58.9707 87.4696 58.9807C89.0896 59.0707 90.6096 57.7007 90.8096 56.1107C90.8596 57.8007 92.2596 59.2707 93.7596 60.1507C95.4096 61.1207 97.2996 61.7207 98.6896 63.0407C100.79 65.0507 101.21 68.2607 100.93 71.1507C102.86 70.6607 104.29 68.9107 104.84 66.9907C105.38 65.0707 105.16 63.0207 104.69 61.0807C104.38 59.8207 103.83 58.4307 102.6 58.0007L102.55 58.0407Z" fill="#1A1A1A"/>
<path d="M89.2095 18.9004C87.8095 15.5104 85.8695 12.2404 82.9995 9.95042C80.1295 7.66042 76.2095 6.48044 72.6895 7.53044C69.1695 8.58044 59.8495 23.8604 71.4395 28.3704C73.8695 29.3204 76.6595 30.6704 77.2795 33.2104C77.6795 34.8204 76.8995 36.4604 76.2595 38.0004C75.6495 39.4904 75.1495 41.0404 74.7895 42.6104C74.6995 43.0004 74.6195 43.4104 74.7095 43.8004C74.9295 44.7304 75.9895 45.1704 76.9195 45.3904C79.6895 46.0304 82.8795 45.8504 84.6295 43.6004C84.1095 39.9904 84.8195 36.3704 86.4095 33.0904C88.2895 32.8504 90.4495 32.4304 91.3595 30.7704C91.9695 29.6604 91.8195 28.2904 91.5995 27.0404C91.0995 24.2504 90.2895 21.5204 89.2095 18.9104V18.9004Z" fill="#DFB28B"/>
<path d="M69.8696 9.10093C70.2596 10.7109 71.3796 12.061 72.5896 13.191C73.7996 14.331 75.1496 15.3309 76.1996 16.6109C77.0396 17.6209 77.6796 18.8009 78.0796 20.0509C78.3796 20.9809 78.5396 22.0009 78.2296 22.9309C77.9196 23.8609 77.0296 24.641 76.0496 24.561C77.9596 25.561 79.0096 27.9609 78.4396 30.0409C78.2196 29.3009 77.9796 28.541 77.5296 27.911C77.0696 27.281 76.3396 26.8009 75.5596 26.8509C74.7796 26.9009 74.0596 27.641 74.1996 28.411C74.2696 28.791 74.5196 29.1109 74.7896 29.3809C75.8696 30.5009 77.3196 31.2709 78.8496 31.5209C79.5396 32.8009 78.9096 34.3909 78.0596 35.5809C77.2196 36.7609 76.1296 37.861 75.8196 39.281C75.5896 40.321 75.6496 41.681 74.6596 42.091C74.2396 42.261 73.7596 42.1809 73.3496 41.9809C72.5096 41.5709 71.9396 40.651 71.9396 39.721C71.9396 39.031 72.2096 38.3009 71.9096 37.6809C71.6396 37.1209 70.9896 36.8609 70.4096 36.6409C68.8896 36.0609 67.2896 35.2509 66.6096 33.7609C66.0796 32.6109 66.2096 31.2409 65.7196 30.0709C64.9096 28.1609 62.7396 27.2909 61.2196 25.8809C60.2196 24.9509 59.4896 23.751 59.1196 22.441C58.8996 21.661 58.8096 20.8209 59.0496 20.0409C59.2996 19.2109 59.8796 18.5309 60.3796 17.8209C61.0796 16.8209 61.6196 15.701 61.8796 14.501C62.2096 13.021 62.1096 11.471 62.3396 9.97096C62.8396 6.73096 65.1096 3.71093 68.2396 2.76093C69.4296 2.40093 72.6296 2.69094 71.6196 4.64094C71.3296 5.21094 70.4796 5.49093 70.1396 6.13093C69.6696 7.00093 69.6196 8.15095 69.8396 9.09095L69.8696 9.10093Z" fill="#1A1A1A"/>
<path d="M73.0696 43.1611C65.1296 52.0011 57.1896 60.8411 49.2496 69.6811C48.3096 70.7311 47.2996 71.9911 47.5696 73.3811C47.7596 74.3911 48.5996 75.1411 49.3896 75.8011C55.7796 81.1311 62.6296 85.9011 69.8396 90.0411C72.5496 91.6011 75.4096 93.0911 78.5196 93.3911C81.2096 93.6511 83.9796 93.0011 86.5896 93.6911C89.9696 94.5911 93.1396 97.6811 96.4296 96.4911C97.4896 92.3111 94.3096 87.8911 90.2296 86.4911C86.1496 85.0911 81.5896 86.1411 77.7596 88.1211C71.1596 82.3111 64.0996 76.4711 56.9196 71.3911C62.6596 67.4711 67.1796 62.9411 72.2296 58.1511C72.6196 57.7811 73.0096 57.4011 73.2796 56.9311C73.5896 56.3711 73.6996 55.7311 73.7896 55.1011C74.1796 52.4111 74.4096 49.7011 74.4696 46.9911C74.5096 45.4311 74.4996 43.7811 73.0696 43.1611Z" fill="#DFB28B"/>
<path d="M52.2597 115.191C49.6397 115.811 50.6097 119.881 53.2297 119.261C55.8497 118.641 54.8797 114.571 52.2597 115.191Z" fill="#C9B4DF"/>
<path d="M56.0498 120.831C54.8598 121.111 55.2997 122.971 56.4897 122.691C57.6797 122.411 57.2398 120.551 56.0498 120.831Z" fill="#C9B4DF"/>
<path d="M62.9296 112.751C61.0496 113.201 61.7396 116.131 63.6296 115.681C65.5096 115.231 64.8196 112.301 62.9296 112.751Z" fill="#C9B4DF"/>
<path d="M64.2398 122.371C63.1298 122.631 63.5398 124.361 64.6498 124.091C65.7598 123.831 65.3498 122.101 64.2398 122.371Z" fill="#C9B4DF"/>
<path d="M49.4897 127.401C46.6497 128.081 47.6997 132.501 50.5397 131.821C53.3797 131.141 52.3297 126.721 49.4897 127.401Z" fill="#C9B4DF"/>
<path d="M69.2997 129.221C67.8797 129.561 68.3997 131.771 69.8297 131.431C71.2497 131.091 70.7297 128.881 69.2997 129.221Z" fill="#C9B4DF"/>
<path d="M69.9696 113.581C68.7596 113.871 69.1996 115.761 70.4196 115.471C71.6296 115.181 71.1896 113.291 69.9696 113.581Z" fill="#C9B4DF"/>
<path d="M84.6095 11.7706C83.8695 11.3906 82.9395 11.5606 82.2895 12.0406C81.8395 12.3706 81.0495 13.2906 81.5095 13.8506C81.5595 13.9206 81.6895 13.9406 81.7595 13.8906C81.9595 13.7506 81.9695 13.6406 82.0595 13.4106C82.1795 13.1206 82.3895 12.8706 82.6395 12.6906C83.1595 12.3106 83.6995 12.2706 84.2995 12.4306C84.6895 12.5306 84.9895 11.9606 84.5995 11.7606L84.6095 11.7706Z" fill="#1A1A1A"/>
<path d="M84.8097 15.0511C83.5697 15.3511 84.0297 17.2811 85.2697 16.9811C86.5097 16.6811 86.0497 14.7511 84.8097 15.0511Z" fill="#1A1A1A"/>
<path d="M78.8897 19.7107C77.6297 20.0107 78.0897 21.9807 79.3597 21.6707C80.6197 21.3707 80.1597 19.4007 78.8897 19.7107Z" fill="#1A1A1A"/>
<path d="M86.5296 19.4103C86.1296 19.5503 85.7496 19.7103 85.3196 19.7703C84.8696 19.8403 84.4396 19.6603 84.0696 19.4003C83.9496 19.3203 83.8296 19.4703 83.8796 19.5803C84.3596 20.6403 85.9496 21.3903 86.9996 20.6303C87.2696 20.4303 87.4196 20.1403 87.2896 19.8103C87.1796 19.5303 86.8296 19.2903 86.5196 19.4003L86.5296 19.4103Z" fill="#ED6A56"/>
<path d="M80.3097 23.2605C79.9397 23.2805 79.6797 23.6405 79.3397 23.7705C78.9797 23.9105 79.0797 24.4405 79.4797 24.3605C79.9397 24.2805 80.5797 24.0005 80.5297 23.4405C80.5297 23.3505 80.3997 23.2505 80.3097 23.2605Z" fill="#ED6A56"/>
<path d="M86.9395 16.691C86.6595 16.541 86.3595 16.591 86.0995 16.771C85.5895 17.131 85.9995 17.961 86.5795 17.651C86.8495 17.501 87.0795 17.271 87.0695 16.941C87.0695 16.841 87.0295 16.741 86.9395 16.691Z" fill="#ED6A56"/>
<path d="M87.8595 22.2403C87.3195 22.8403 86.8895 23.4303 86.1395 23.7903C85.4795 24.1103 84.7495 24.0903 84.0995 24.3803C83.9795 24.4303 83.9795 24.6303 84.0995 24.6903C85.5195 25.5103 87.8695 23.8603 88.2595 22.4703C88.3195 22.2603 88.0395 22.0503 87.8695 22.2303L87.8595 22.2403Z" fill="#ED6A56"/>
<path d="M76.5595 9.96093C75.0795 10.3109 75.6295 12.6109 77.1095 12.2609C78.5895 11.9109 78.0395 9.61093 76.5595 9.96093Z" fill="#FFF197"/>
<path d="M74.9195 10.9907C73.9995 11.2107 74.3395 12.6407 75.2595 12.4207C76.1795 12.2007 75.8395 10.7707 74.9195 10.9907Z" fill="#FFF197"/>
<path d="M73.1597 11.5111C72.3697 11.7011 72.6597 12.9311 73.4497 12.7411C74.2397 12.5511 73.9497 11.3211 73.1597 11.5111Z" fill="#FFF197"/>
<path d="M71.0097 11.871C70.2497 12.051 70.5297 13.241 71.2897 13.061C72.0497 12.881 71.7697 11.691 71.0097 11.871Z" fill="#FFF197"/>
<path d="M77.0695 8.48066C76.2295 8.68066 76.5395 9.99066 77.3795 9.79066C78.2195 9.59066 77.9095 8.28066 77.0695 8.48066Z" fill="#FFF197"/>
<path d="M86.3496 33.2312C84.5196 32.7212 82.7196 32.1312 80.9496 31.4312C80.6496 31.3112 80.3296 31.1912 80.0296 31.2912C79.3696 31.5012 79.3996 32.4812 79.7396 33.0812C80.5396 34.5012 82.6196 36.5412 84.7696 38.0412C85.0796 36.3912 85.6096 34.7712 86.3396 33.2312H86.3496Z" fill="#CF9E76"/>
</svg>
