<svg width="70" height="70" viewBox="0 0 70 70" fill="none" xmlns="http://www.w3.org/2000/svg">
<path d="M6.68281 45.9374C7.95738 45.9374 8.99063 44.9042 8.99063 43.6296C8.99063 42.355 7.95738 41.3218 6.68281 41.3218C5.40824 41.3218 4.375 42.355 4.375 43.6296C4.375 44.9042 5.40824 45.9374 6.68281 45.9374Z" fill="url(#paint0_radial_113_37)"/>
<path d="M6.68281 41.5624C7.95738 41.5624 8.99063 40.5292 8.99063 39.2546C8.99063 37.98 7.95738 36.9468 6.68281 36.9468C5.40824 36.9468 4.375 37.98 4.375 39.2546C4.375 40.5292 5.40824 41.5624 6.68281 41.5624Z" fill="url(#paint1_radial_113_37)"/>
<g filter="url(#filter0_ii_113_37)">
<path d="M35.7525 23.38H25.4975C15.04 23.38 6.5625 31.8575 6.5625 42.315V42.3172C6.5625 52.7747 15.04 61.2522 25.4975 61.2522H35.7525C46.21 61.2522 54.6875 52.7747 54.6875 42.3172V42.315C54.6875 31.8575 46.21 23.38 35.7525 23.38Z" fill="url(#paint2_radial_113_37)"/>
<path d="M35.7525 23.38H25.4975C15.04 23.38 6.5625 31.8575 6.5625 42.315V42.3172C6.5625 52.7747 15.04 61.2522 25.4975 61.2522H35.7525C46.21 61.2522 54.6875 52.7747 54.6875 42.3172V42.315C54.6875 31.8575 46.21 23.38 35.7525 23.38Z" fill="url(#paint3_linear_113_37)"/>
</g>
<path d="M35.7525 23.38H25.4975C15.04 23.38 6.5625 31.8575 6.5625 42.315V42.3172C6.5625 52.7747 15.04 61.2522 25.4975 61.2522H35.7525C46.21 61.2522 54.6875 52.7747 54.6875 42.3172V42.315C54.6875 31.8575 46.21 23.38 35.7525 23.38Z" fill="url(#paint4_radial_113_37)"/>
<path d="M35.7525 23.38H25.4975C15.04 23.38 6.5625 31.8575 6.5625 42.315V42.3172C6.5625 52.7747 15.04 61.2522 25.4975 61.2522H35.7525C46.21 61.2522 54.6875 52.7747 54.6875 42.3172V42.315C54.6875 31.8575 46.21 23.38 35.7525 23.38Z" fill="url(#paint5_radial_113_37)"/>
<g filter="url(#filter1_f_113_37)">
<path d="M27.1907 30.8984C27.0814 30.8006 26.9536 30.7257 26.8149 30.6782C26.6761 30.6308 26.5292 30.6117 26.3829 30.6222C26.2366 30.6326 26.0939 30.6724 25.9633 30.7391C25.8327 30.8059 25.7169 30.8982 25.6227 31.0106C25.5285 31.123 25.4578 31.2532 25.415 31.3934C25.3721 31.5337 25.3579 31.6811 25.3731 31.827C25.3884 31.9728 25.4328 32.1141 25.5038 32.2425C25.5748 32.3708 25.6709 32.4836 25.7863 32.574L27.1907 30.8984ZM25.6944 52.1412C25.5055 52.3536 25.4068 52.6312 25.419 52.9151C25.4312 53.1991 25.5535 53.4672 25.76 53.6625C25.9664 53.8579 26.2408 53.9652 26.525 53.9617C26.8092 53.9583 27.0809 53.8443 27.2825 53.644L25.6944 52.1412ZM25.7863 32.574C31.3535 37.2378 31.8894 45.5918 25.6944 52.1412L27.2825 53.644C34.2147 46.3159 33.8604 36.4875 27.1907 30.8984L25.7863 32.574Z" fill="#3A94E7"/>
</g>
<g filter="url(#filter2_i_113_37)">
<path d="M27.1907 30.8984C27.0814 30.8006 26.9536 30.7257 26.8149 30.6782C26.6761 30.6308 26.5292 30.6117 26.3829 30.6222C26.2366 30.6326 26.0939 30.6724 25.9633 30.7391C25.8327 30.8059 25.7169 30.8982 25.6227 31.0106C25.5285 31.123 25.4578 31.2532 25.415 31.3934C25.3721 31.5337 25.3579 31.6811 25.3731 31.827C25.3884 31.9728 25.4328 32.1141 25.5038 32.2425C25.5748 32.3708 25.6709 32.4836 25.7863 32.574L27.1907 30.8984ZM25.6944 52.1412C25.5055 52.3536 25.4068 52.6312 25.419 52.9151C25.4312 53.1991 25.5535 53.4672 25.76 53.6625C25.9664 53.8579 26.2408 53.9652 26.525 53.9617C26.8092 53.9583 27.0809 53.8443 27.2825 53.644L25.6944 52.1412ZM25.7863 32.574C31.3535 37.2378 31.8894 45.5918 25.6944 52.1412L27.2825 53.644C34.2147 46.3159 33.8604 36.4875 27.1907 30.8984L25.7863 32.574Z" fill="#3F61E7"/>
<path d="M27.1907 30.8984C27.0814 30.8006 26.9536 30.7257 26.8149 30.6782C26.6761 30.6308 26.5292 30.6117 26.3829 30.6222C26.2366 30.6326 26.0939 30.6724 25.9633 30.7391C25.8327 30.8059 25.7169 30.8982 25.6227 31.0106C25.5285 31.123 25.4578 31.2532 25.415 31.3934C25.3721 31.5337 25.3579 31.6811 25.3731 31.827C25.3884 31.9728 25.4328 32.1141 25.5038 32.2425C25.5748 32.3708 25.6709 32.4836 25.7863 32.574L27.1907 30.8984ZM25.6944 52.1412C25.5055 52.3536 25.4068 52.6312 25.419 52.9151C25.4312 53.1991 25.5535 53.4672 25.76 53.6625C25.9664 53.8579 26.2408 53.9652 26.525 53.9617C26.8092 53.9583 27.0809 53.8443 27.2825 53.644L25.6944 52.1412ZM25.7863 32.574C31.3535 37.2378 31.8894 45.5918 25.6944 52.1412L27.2825 53.644C34.2147 46.3159 33.8604 36.4875 27.1907 30.8984L25.7863 32.574Z" fill="url(#paint6_radial_113_37)"/>
<path d="M27.1907 30.8984C27.0814 30.8006 26.9536 30.7257 26.8149 30.6782C26.6761 30.6308 26.5292 30.6117 26.3829 30.6222C26.2366 30.6326 26.0939 30.6724 25.9633 30.7391C25.8327 30.8059 25.7169 30.8982 25.6227 31.0106C25.5285 31.123 25.4578 31.2532 25.415 31.3934C25.3721 31.5337 25.3579 31.6811 25.3731 31.827C25.3884 31.9728 25.4328 32.1141 25.5038 32.2425C25.5748 32.3708 25.6709 32.4836 25.7863 32.574L27.1907 30.8984ZM25.6944 52.1412C25.5055 52.3536 25.4068 52.6312 25.419 52.9151C25.4312 53.1991 25.5535 53.4672 25.76 53.6625C25.9664 53.8579 26.2408 53.9652 26.525 53.9617C26.8092 53.9583 27.0809 53.8443 27.2825 53.644L25.6944 52.1412ZM25.7863 32.574C31.3535 37.2378 31.8894 45.5918 25.6944 52.1412L27.2825 53.644C34.2147 46.3159 33.8604 36.4875 27.1907 30.8984L25.7863 32.574Z" fill="url(#paint7_radial_113_37)"/>
<path d="M27.1907 30.8984C27.0814 30.8006 26.9536 30.7257 26.8149 30.6782C26.6761 30.6308 26.5292 30.6117 26.3829 30.6222C26.2366 30.6326 26.0939 30.6724 25.9633 30.7391C25.8327 30.8059 25.7169 30.8982 25.6227 31.0106C25.5285 31.123 25.4578 31.2532 25.415 31.3934C25.3721 31.5337 25.3579 31.6811 25.3731 31.827C25.3884 31.9728 25.4328 32.1141 25.5038 32.2425C25.5748 32.3708 25.6709 32.4836 25.7863 32.574L27.1907 30.8984ZM25.6944 52.1412C25.5055 52.3536 25.4068 52.6312 25.419 52.9151C25.4312 53.1991 25.5535 53.4672 25.76 53.6625C25.9664 53.8579 26.2408 53.9652 26.525 53.9617C26.8092 53.9583 27.0809 53.8443 27.2825 53.644L25.6944 52.1412ZM25.7863 32.574C31.3535 37.2378 31.8894 45.5918 25.6944 52.1412L27.2825 53.644C34.2147 46.3159 33.8604 36.4875 27.1907 30.8984L25.7863 32.574Z" fill="url(#paint8_radial_113_37)"/>
</g>
<path d="M18.9875 39.3312C19.5916 39.3312 20.0813 38.8415 20.0813 38.2374C20.0813 37.6334 19.5916 37.1437 18.9875 37.1437C18.3835 37.1437 17.8938 37.6334 17.8938 38.2374C17.8938 38.8415 18.3835 39.3312 18.9875 39.3312Z" fill="url(#paint9_radial_113_37)"/>
<path d="M18.9875 39.3312C19.5916 39.3312 20.0813 38.8415 20.0813 38.2374C20.0813 37.6334 19.5916 37.1437 18.9875 37.1437C18.3835 37.1437 17.8938 37.6334 17.8938 38.2374C17.8938 38.8415 18.3835 39.3312 18.9875 39.3312Z" fill="url(#paint10_radial_113_37)"/>
<path d="M18.9875 39.3312C19.5916 39.3312 20.0813 38.8415 20.0813 38.2374C20.0813 37.6334 19.5916 37.1437 18.9875 37.1437C18.3835 37.1437 17.8938 37.6334 17.8938 38.2374C17.8938 38.8415 18.3835 39.3312 18.9875 39.3312Z" fill="url(#paint11_linear_113_37)"/>
<path d="M54.6875 52.7734C54.6875 55.0941 55.6094 57.3197 57.2503 58.9606C58.8913 60.6016 61.1169 61.5234 63.4375 61.5234H63.9166C64.2066 61.5234 64.4848 61.4082 64.69 61.2031C64.8951 60.998 65.0103 60.7198 65.0103 60.4297V51.1328C65.0103 48.8122 64.0884 46.5866 62.4475 44.9456C60.8066 43.3047 58.581 42.3828 56.2603 42.3828H54.6875V52.7734Z" fill="url(#paint12_radial_113_37)"/>
<path d="M54.6875 52.7734C54.6875 55.0941 55.6094 57.3197 57.2503 58.9606C58.8913 60.6016 61.1169 61.5234 63.4375 61.5234H63.9166C64.2066 61.5234 64.4848 61.4082 64.69 61.2031C64.8951 60.998 65.0103 60.7198 65.0103 60.4297V51.1328C65.0103 48.8122 64.0884 46.5866 62.4475 44.9456C60.8066 43.3047 58.581 42.3828 56.2603 42.3828H54.6875V52.7734Z" fill="url(#paint13_radial_113_37)"/>
<path d="M54.6875 52.7734C54.6875 55.0941 55.6094 57.3197 57.2503 58.9606C58.8913 60.6016 61.1169 61.5234 63.4375 61.5234H63.9166C64.2066 61.5234 64.4848 61.4082 64.69 61.2031C64.8951 60.998 65.0103 60.7198 65.0103 60.4297V51.1328C65.0103 48.8122 64.0884 46.5866 62.4475 44.9456C60.8066 43.3047 58.581 42.3828 56.2603 42.3828H54.6875V52.7734Z" fill="url(#paint14_linear_113_37)"/>
<path d="M54.6875 52.7734C54.6875 55.0941 55.6094 57.3197 57.2503 58.9606C58.8913 60.6016 61.1169 61.5234 63.4375 61.5234H63.9166C64.2066 61.5234 64.4848 61.4082 64.69 61.2031C64.8951 60.998 65.0103 60.7198 65.0103 60.4297V51.1328C65.0103 48.8122 64.0884 46.5866 62.4475 44.9456C60.8066 43.3047 58.581 42.3828 56.2603 42.3828H54.6875V52.7734Z" fill="url(#paint15_radial_113_37)"/>
<path d="M54.6875 31.9922C54.6875 29.6715 55.6094 27.4459 57.2503 25.805C58.8913 24.1641 61.1169 23.2422 63.4375 23.2422H63.9166C64.2066 23.2422 64.4848 23.3574 64.69 23.5625C64.8951 23.7677 65.0103 24.0459 65.0103 24.3359V33.6328C65.0103 35.9535 64.0884 38.1791 62.4475 39.82C60.8066 41.4609 58.581 42.3828 56.2603 42.3828H54.6875V31.9922Z" fill="url(#paint16_radial_113_37)"/>
<path d="M54.6875 31.9922C54.6875 29.6715 55.6094 27.4459 57.2503 25.805C58.8913 24.1641 61.1169 23.2422 63.4375 23.2422H63.9166C64.2066 23.2422 64.4848 23.3574 64.69 23.5625C64.8951 23.7677 65.0103 24.0459 65.0103 24.3359V33.6328C65.0103 35.9535 64.0884 38.1791 62.4475 39.82C60.8066 41.4609 58.581 42.3828 56.2603 42.3828H54.6875V31.9922Z" fill="url(#paint17_radial_113_37)"/>
<path d="M54.6875 31.9922C54.6875 29.6715 55.6094 27.4459 57.2503 25.805C58.8913 24.1641 61.1169 23.2422 63.4375 23.2422H63.9166C64.2066 23.2422 64.4848 23.3574 64.69 23.5625C64.8951 23.7677 65.0103 24.0459 65.0103 24.3359V33.6328C65.0103 35.9535 64.0884 38.1791 62.4475 39.82C60.8066 41.4609 58.581 42.3828 56.2603 42.3828H54.6875V31.9922Z" fill="url(#paint18_radial_113_37)"/>
<path d="M33.1843 61.25C35.3215 61.25 37.0518 62.9803 37.0518 65.1153C37.0518 65.1787 37.0393 65.2415 37.015 65.3C36.9906 65.3585 36.955 65.4117 36.9101 65.4564C36.8652 65.5011 36.8118 65.5365 36.7532 65.5606C36.6946 65.5846 36.6317 65.5969 36.5684 65.5966H32.7184C32.1473 65.5968 31.5817 65.4847 31.054 65.2664C30.5263 65.0481 30.0467 64.728 29.6427 64.3244C29.2387 63.9208 28.9181 63.4415 28.6993 62.914C28.4805 62.3865 28.3677 61.8211 28.3674 61.25H33.1843Z" fill="url(#paint19_radial_113_37)"/>
<path d="M33.1843 61.25C35.3215 61.25 37.0518 62.9803 37.0518 65.1153C37.0518 65.1787 37.0393 65.2415 37.015 65.3C36.9906 65.3585 36.955 65.4117 36.9101 65.4564C36.8652 65.5011 36.8118 65.5365 36.7532 65.5606C36.6946 65.5846 36.6317 65.5969 36.5684 65.5966H32.7184C32.1473 65.5968 31.5817 65.4847 31.054 65.2664C30.5263 65.0481 30.0467 64.728 29.6427 64.3244C29.2387 63.9208 28.9181 63.4415 28.6993 62.914C28.4805 62.3865 28.3677 61.8211 28.3674 61.25H33.1843Z" fill="url(#paint20_linear_113_37)"/>
<path d="M33.1843 61.25C35.3215 61.25 37.0518 62.9803 37.0518 65.1153C37.0518 65.1787 37.0393 65.2415 37.015 65.3C36.9906 65.3585 36.955 65.4117 36.9101 65.4564C36.8652 65.5011 36.8118 65.5365 36.7532 65.5606C36.6946 65.5846 36.6317 65.5969 36.5684 65.5966H32.7184C32.1473 65.5968 31.5817 65.4847 31.054 65.2664C30.5263 65.0481 30.0467 64.728 29.6427 64.3244C29.2387 63.9208 28.9181 63.4415 28.6993 62.914C28.4805 62.3865 28.3677 61.8211 28.3674 61.25H33.1843Z" fill="url(#paint21_radial_113_37)"/>
<path d="M38.8282 23.38C41.1489 23.38 43.3745 22.4581 45.0154 20.8171C46.6563 19.1762 47.5782 16.9506 47.5782 14.63V13.9103C47.5782 13.6202 47.463 13.342 47.2579 13.1369C47.0528 12.9318 46.7746 12.8165 46.4845 12.8165H35.2407C32.9201 12.8165 30.6945 13.7384 29.0535 15.3793C27.4126 17.0203 26.4907 19.2459 26.4907 21.5665V23.38H38.8282Z" fill="url(#paint22_radial_113_37)"/>
<path d="M38.8282 23.38C41.1489 23.38 43.3745 22.4581 45.0154 20.8171C46.6563 19.1762 47.5782 16.9506 47.5782 14.63V13.9103C47.5782 13.6202 47.463 13.342 47.2579 13.1369C47.0528 12.9318 46.7746 12.8165 46.4845 12.8165H35.2407C32.9201 12.8165 30.6945 13.7384 29.0535 15.3793C27.4126 17.0203 26.4907 19.2459 26.4907 21.5665V23.38H38.8282Z" fill="url(#paint23_linear_113_37)"/>
<path d="M38.8282 23.38C41.1489 23.38 43.3745 22.4581 45.0154 20.8171C46.6563 19.1762 47.5782 16.9506 47.5782 14.63V13.9103C47.5782 13.6202 47.463 13.342 47.2579 13.1369C47.0528 12.9318 46.7746 12.8165 46.4845 12.8165H35.2407C32.9201 12.8165 30.6945 13.7384 29.0535 15.3793C27.4126 17.0203 26.4907 19.2459 26.4907 21.5665V23.38H38.8282Z" fill="url(#paint24_radial_113_37)"/>
<defs>
<filter id="filter0_ii_113_37" x="6.0625" y="22.88" width="48.625" height="38.3722" filterUnits="userSpaceOnUse" color-interpolation-filters="sRGB">
<feFlood flood-opacity="0" result="BackgroundImageFix"/>
<feBlend mode="normal" in="SourceGraphic" in2="BackgroundImageFix" result="shape"/>
<feColorMatrix in="SourceAlpha" type="matrix" values="0 0 0 0 0 0 0 0 0 0 0 0 0 0 0 0 0 0 127 0" result="hardAlpha"/>
<feOffset dx="-0.5" dy="-0.5"/>
<feGaussianBlur stdDeviation="1"/>
<feComposite in2="hardAlpha" operator="arithmetic" k2="-1" k3="1"/>
<feColorMatrix type="matrix" values="0 0 0 0 0.364706 0 0 0 0 0.407843 0 0 0 0 1 0 0 0 1 0"/>
<feBlend mode="normal" in2="shape" result="effect1_innerShadow_113_37"/>
<feColorMatrix in="SourceAlpha" type="matrix" values="0 0 0 0 0 0 0 0 0 0 0 0 0 0 0 0 0 0 127 0" result="hardAlpha"/>
<feOffset dx="-0.25"/>
<feGaussianBlur stdDeviation="0.25"/>
<feComposite in2="hardAlpha" operator="arithmetic" k2="-1" k3="1"/>
<feColorMatrix type="matrix" values="0 0 0 0 0.164706 0 0 0 0 0.411765 0 0 0 0 0.823529 0 0 0 1 0"/>
<feBlend mode="normal" in2="effect1_innerShadow_113_37" result="effect2_innerShadow_113_37"/>
</filter>
<filter id="filter1_f_113_37" x="23.3672" y="28.6194" width="10.9714" height="27.3424" filterUnits="userSpaceOnUse" color-interpolation-filters="sRGB">
<feFlood flood-opacity="0" result="BackgroundImageFix"/>
<feBlend mode="normal" in="SourceGraphic" in2="BackgroundImageFix" result="shape"/>
<feGaussianBlur stdDeviation="1" result="effect1_foregroundBlur_113_37"/>
</filter>
<filter id="filter2_i_113_37" x="25.3672" y="30.6194" width="6.97144" height="23.3424" filterUnits="userSpaceOnUse" color-interpolation-filters="sRGB">
<feFlood flood-opacity="0" result="BackgroundImageFix"/>
<feBlend mode="normal" in="SourceGraphic" in2="BackgroundImageFix" result="shape"/>
<feColorMatrix in="SourceAlpha" type="matrix" values="0 0 0 0 0 0 0 0 0 0 0 0 0 0 0 0 0 0 127 0" result="hardAlpha"/>
<feOffset/>
<feGaussianBlur stdDeviation="0.3"/>
<feComposite in2="hardAlpha" operator="arithmetic" k2="-1" k3="1"/>
<feColorMatrix type="matrix" values="0 0 0 0 0.133333 0 0 0 0 0.439216 0 0 0 0 0.941176 0 0 0 1 0"/>
<feBlend mode="normal" in2="shape" result="effect1_innerShadow_113_37"/>
</filter>
<radialGradient id="paint0_radial_113_37" cx="0" cy="0" r="1" gradientUnits="userSpaceOnUse" gradientTransform="translate(7.04185 42.8793) rotate(150.684) scale(2.548 3.48666)">
<stop stop-color="#3AAEE7"/>
<stop offset="1" stop-color="#45A5E8"/>
</radialGradient>
<radialGradient id="paint1_radial_113_37" cx="0" cy="0" r="1" gradientUnits="userSpaceOnUse" gradientTransform="translate(7.03955 38.5049) rotate(150.684) scale(2.548 3.48666)">
<stop stop-color="#3AAEE7"/>
<stop offset="1" stop-color="#45A5E8"/>
</radialGradient>
<radialGradient id="paint2_radial_113_37" cx="0" cy="0" r="1" gradientUnits="userSpaceOnUse" gradientTransform="translate(24.0625 35) rotate(52.125) scale(40.5298 53.2521)">
<stop stop-color="#50CAFF"/>
<stop offset="1" stop-color="#4D7FFF"/>
</radialGradient>
<linearGradient id="paint3_linear_113_37" x1="30.625" y1="64.2578" x2="30.625" y2="53.4581" gradientUnits="userSpaceOnUse">
<stop stop-color="#508BFF"/>
<stop offset="1" stop-color="#508BFF" stop-opacity="0"/>
</linearGradient>
<radialGradient id="paint4_radial_113_37" cx="0" cy="0" r="1" gradientUnits="userSpaceOnUse" gradientTransform="translate(12.5781 25.1563) rotate(54.3004) scale(28.1153 32.177)">
<stop stop-color="#50CAFF"/>
<stop offset="1" stop-color="#50CAFF" stop-opacity="0"/>
</radialGradient>
<radialGradient id="paint5_radial_113_37" cx="0" cy="0" r="1" gradientUnits="userSpaceOnUse" gradientTransform="translate(56.8752 63.8471) rotate(-144.29) scale(58.0899 49.0343)">
<stop offset="0.935" stop-color="#59C0E7" stop-opacity="0"/>
<stop offset="1" stop-color="#59C0E7"/>
</radialGradient>
<radialGradient id="paint6_radial_113_37" cx="0" cy="0" r="1" gradientUnits="userSpaceOnUse" gradientTransform="translate(26.0444 53.609) rotate(-51.9941) scale(3.27506 1.84607)">
<stop stop-color="#4A8CFF"/>
<stop offset="0.609" stop-color="#4A8CFF" stop-opacity="0"/>
</radialGradient>
<radialGradient id="paint7_radial_113_37" cx="0" cy="0" r="1" gradientUnits="userSpaceOnUse" gradientTransform="translate(26.3529 31.5656) rotate(46.7358) scale(2.79277 1.66468)">
<stop stop-color="#4A8CFF"/>
<stop offset="0.609" stop-color="#4A8CFF" stop-opacity="0"/>
</radialGradient>
<radialGradient id="paint8_radial_113_37" cx="0" cy="0" r="1" gradientUnits="userSpaceOnUse" gradientTransform="translate(28.8663 42.315) scale(3.60349 7.31445)">
<stop offset="0.203" stop-color="#4F7FE6"/>
<stop offset="1" stop-color="#4F7FE6" stop-opacity="0"/>
</radialGradient>
<radialGradient id="paint9_radial_113_37" cx="0" cy="0" r="1" gradientUnits="userSpaceOnUse" gradientTransform="translate(19.3113 37.8874) rotate(125.838) scale(1.51782 1.35323)">
<stop offset="0.006" stop-color="#433437"/>
<stop offset="1" stop-color="#3B2838"/>
</radialGradient>
<radialGradient id="paint10_radial_113_37" cx="0" cy="0" r="1" gradientUnits="userSpaceOnUse" gradientTransform="translate(19.3945 37.9638) rotate(137.643) scale(0.786319 0.691775)">
<stop stop-color="#5C5051"/>
<stop offset="1" stop-color="#5C5051" stop-opacity="0"/>
</radialGradient>
<linearGradient id="paint11_linear_113_37" x1="18.771" y1="37.3799" x2="18.0207" y2="36.9009" gradientUnits="userSpaceOnUse">
<stop stop-color="#5C5051" stop-opacity="0"/>
<stop offset="1" stop-color="#5C5051"/>
</linearGradient>
<radialGradient id="paint12_radial_113_37" cx="0" cy="0" r="1" gradientUnits="userSpaceOnUse" gradientTransform="translate(62.0703 45.3906) rotate(89.029) scale(16.1351 16.341)">
<stop stop-color="#46AAFF"/>
<stop offset="1" stop-color="#368AFF"/>
</radialGradient>
<radialGradient id="paint13_radial_113_37" cx="0" cy="0" r="1" gradientUnits="userSpaceOnUse" gradientTransform="translate(71.7782 45.2541) rotate(135.266) scale(20.7853 34.1537)">
<stop offset="0.801" stop-color="#3184E6" stop-opacity="0"/>
<stop offset="1" stop-color="#3184E6"/>
</radialGradient>
<linearGradient id="paint14_linear_113_37" x1="84.0831" y1="55.9191" x2="54.6875" y2="55.9191" gradientUnits="userSpaceOnUse">
<stop offset="0.849" stop-color="#3184E6" stop-opacity="0"/>
<stop offset="1" stop-color="#3184E6"/>
</linearGradient>
<radialGradient id="paint15_radial_113_37" cx="0" cy="0" r="1" gradientUnits="userSpaceOnUse" gradientTransform="translate(65.0103 46.2109) rotate(90) scale(15.3125 6.48141)">
<stop stop-color="#54BDFF"/>
<stop offset="0.923" stop-color="#54BDFF" stop-opacity="0"/>
</radialGradient>
<radialGradient id="paint16_radial_113_37" cx="0" cy="0" r="1" gradientUnits="userSpaceOnUse" gradientTransform="translate(62.8381 25.3531) rotate(109.396) scale(18.7803 13.7232)">
<stop stop-color="#46AAFF"/>
<stop offset="1" stop-color="#368AFF"/>
</radialGradient>
<radialGradient id="paint17_radial_113_37" cx="0" cy="0" r="1" gradientUnits="userSpaceOnUse" gradientTransform="translate(72.5987 35) rotate(-165.196) scale(19.7978 32.531)">
<stop offset="0.726" stop-color="#3184E6" stop-opacity="0"/>
<stop offset="1" stop-color="#3184E6"/>
</radialGradient>
<radialGradient id="paint18_radial_113_37" cx="0" cy="0" r="1" gradientUnits="userSpaceOnUse" gradientTransform="translate(65.0103 24.2681) rotate(90) scale(13.8086 2.54929)">
<stop stop-color="#54BDFF"/>
<stop offset="0.923" stop-color="#54BDFF" stop-opacity="0"/>
</radialGradient>
<radialGradient id="paint19_radial_113_37" cx="0" cy="0" r="1" gradientUnits="userSpaceOnUse" gradientTransform="translate(34.3174 64.5312) rotate(-156.615) scale(5.51131 3.9107)">
<stop stop-color="#4286FF"/>
<stop offset="1" stop-color="#3170FF"/>
</radialGradient>
<linearGradient id="paint20_linear_113_37" x1="33.2237" y1="60.2241" x2="33.2915" y2="62.3787" gradientUnits="userSpaceOnUse">
<stop stop-color="#0E66FD"/>
<stop offset="1" stop-color="#0E66FD" stop-opacity="0"/>
</linearGradient>
<radialGradient id="paint21_radial_113_37" cx="0" cy="0" r="1" gradientUnits="userSpaceOnUse" gradientTransform="translate(37.6998 65.2166) rotate(-153.997) scale(6.23682 2.46555)">
<stop stop-color="#519DFF"/>
<stop offset="0.969" stop-color="#519DFF" stop-opacity="0"/>
</radialGradient>
<radialGradient id="paint22_radial_113_37" cx="0" cy="0" r="1" gradientUnits="userSpaceOnUse" gradientTransform="translate(45.2551 15.039) rotate(156.038) scale(20.5349 10.1839)">
<stop stop-color="#46AAFF"/>
<stop offset="1" stop-color="#2B86D9"/>
</radialGradient>
<linearGradient id="paint23_linear_113_37" x1="26.4885" y1="25.0884" x2="26.4885" y2="20.7134" gradientUnits="userSpaceOnUse">
<stop offset="0.109" stop-color="#0A75CC"/>
<stop offset="1" stop-color="#0A75CC" stop-opacity="0"/>
</linearGradient>
<radialGradient id="paint24_radial_113_37" cx="0" cy="0" r="1" gradientUnits="userSpaceOnUse" gradientTransform="translate(48.672 12.0312) rotate(143.267) scale(11.4297 3.59957)">
<stop stop-color="#54BDFF"/>
<stop offset="0.644" stop-color="#54BDFF" stop-opacity="0"/>
</radialGradient>
</defs>
</svg>
