<svg width="70" height="70" viewBox="0 0 70 70" fill="none" xmlns="http://www.w3.org/2000/svg">
<path d="M52.9867 30.6578L53.7031 23.7289L51.5977 14.1805C51.5977 14.1805 53.1398 12.4852 54.0094 12.075C54.8789 11.6648 55.8578 11.4352 55.8578 11.4352C55.8578 11.4352 58.1164 11.0523 59.6039 10.9977C61.0914 10.9484 62.7867 11.2055 62.7375 10.4836C62.6883 9.76719 56.0164 8.63516 52.3688 8.53125C48.7266 8.42735 36.5586 8.99063 27.7812 13.2508C19.0039 17.5109 16.6961 21.3172 16.6961 21.3172L13.7703 27.1195L10.8445 28.3008C10.8445 28.3008 8.17578 32.7688 7.30078 35.3336C6.42578 37.8984 5.50703 39.9 5.04219 40.4141C4.58281 40.9281 2.26953 42.7219 2.26953 43.0828C2.26953 43.4438 4.63203 44.7781 4.63203 45.1336C4.63203 45.4945 2.73437 45.9539 2.73437 46.3641C2.73437 46.7742 6.07031 50.5203 11.1016 54.3211C16.1328 58.1219 22.3398 60.8891 26.9117 62.0211C31.4781 63.1477 37.5867 63.6617 37.8437 63.4594C38.1008 63.2516 33.0695 59.3031 33.0695 59.3031C33.0695 59.3031 37.893 61.3539 40.9227 61.7148C43.9523 62.0758 44.4281 62.0977 47.3922 61.9828C50.3563 61.868 55.1414 57.657 55.1414 57.657L57.7062 49.1859L56.5523 43.657C56.5523 43.657 54.9992 41.1688 54.9336 40.6547C54.868 40.1406 55.5734 40.5344 56.2023 40.693C56.9734 40.8844 58.7672 42.1313 59.8992 43.3125C60.5937 44.0398 62.732 46.3203 63.618 47.2773C64.0391 47.7367 64.7937 47.5617 64.9797 46.9711L65.8164 42.1586L65.357 26.9664L63.618 20.9891C63.4211 20.475 62.7266 20.382 62.4039 20.8359C61.1734 22.5695 58.4937 26.6766 57.7062 27.6883C56.6289 29.0719 54.7859 31.1664 53.7414 31.5383C53.1234 31.757 52.8937 31.6531 52.8937 31.6531L52.9867 30.6578Z" fill="#FFB800"/>
<path d="M46.6211 61.868C46.6211 61.868 54.5179 60.3094 55.8961 52.7079C56.9734 46.7797 54.7422 40.6219 54.7422 40.6219C54.7422 40.6219 54.8242 39.7797 55.7429 40.9282C57.4382 43.0446 60.5937 50.0501 56.5523 57.1704C53.1343 63.1915 46.8507 62.0977 46.4679 62.0977C46.0851 62.0977 46.6211 61.868 46.6211 61.868ZM55.8578 11.4352C55.8578 11.4352 51.0453 11.0907 50.8539 15.5149C50.7007 19.0204 52.6257 21.4813 52.5492 25.2547C52.4726 29.0282 52.057 31.7571 52.8937 31.6422C53.4734 31.5657 54.7422 29.7555 54.7804 25.8672C54.8187 21.979 52.2046 17.9594 52.2757 15.4711C52.3578 12.9008 55.8578 11.4352 55.8578 11.4352Z" fill="#B5D219"/>
<path d="M62.8688 20.5242C62.0649 20.8414 62.9071 23.2969 63.1751 24.068C63.4431 24.8391 64.236 29.0336 64.2907 35.1914C64.329 39.6156 63.9079 43.9305 63.711 44.893C63.5142 45.8555 63.0931 47.3156 64.1321 47.5508C65.1712 47.7859 66.2048 45.6258 66.7899 41.9672C67.2493 39.0797 67.211 36.4602 67.2493 33.7313C67.3313 27.9891 65.9423 24.2977 65.4392 23.0672C64.947 21.8313 63.9462 20.0977 62.8688 20.5242ZM42.5142 21.4703C41.5899 21.5742 43.1267 24.9813 43.5423 27.475C44.2095 31.4781 44.2095 34.043 44.122 37.3406C44.0399 40.3977 43.2852 45.6914 40.8899 50.1977C40.3649 51.1875 40.0423 52.0461 40.7751 52.1227C42.2352 52.2758 44.986 48.7211 46.397 44.8875C47.9829 40.5727 48.2837 36.7281 47.704 32.1453C47.2392 28.4594 46.3806 26.0258 45.8063 24.757C45.2813 23.6086 44.1056 21.2953 42.5142 21.4703ZM29.7228 14.4813C28.3009 14.8805 30.3024 17.8281 31.172 20.0867C32.5337 23.6141 35.3556 29.9906 35.4321 36.7281C35.5087 43.4656 33.4306 48.4203 32.8126 49.957C32.1728 51.5594 31.1829 53.8563 30.8767 54.5125C30.5704 55.1688 30.5813 55.9234 30.9149 56.0164C31.686 56.2242 32.9821 55.3383 34.3001 54.0148C35.1751 53.1398 36.8157 51.3953 38.7024 45.9703C39.736 42.9953 40.7149 37.7945 39.9985 32.0469C39.1454 25.2219 36.1157 20.6281 35.0329 18.982C33.4306 16.543 31.3798 14.0164 29.7228 14.4813Z" fill="#2C2F30"/>
<path d="M20.7923 21.0218C19.6384 21.339 22.9087 24.7297 24.4509 28.6562C25.9931 32.5828 26.4634 35.8531 26.6603 39.282C26.8517 42.7054 26.3759 46.364 26.0423 48.6226C25.7743 50.4547 24.7954 53.7797 24.9923 54.3976C25.1837 55.0156 26.3267 55.0375 27.1743 53.6539C28.022 52.2703 29.8431 49.2406 30.9587 42.6945C31.4782 39.6539 31.2267 32.5226 27.9181 27.4148C25.0634 23.0125 22.1376 20.65 20.7923 21.0218ZM10.8501 28.3008C10.8501 28.3008 13.0048 25.2218 13.929 24.0898C14.8532 22.9633 17.3689 20.3929 17.3689 20.3929C17.3689 20.3929 17.4728 27.732 17.7298 29.6843C17.9868 31.6367 18.8564 35.9461 19.8353 38.2047C20.3439 39.3804 21.3173 42.2515 21.1696 43.4383C20.9126 45.5437 18.5446 48.7047 17.5275 48.825C15.3728 49.082 13.2673 44.9859 12.2939 42.3062C10.8993 38.5109 9.82199 31.582 10.8501 28.3008Z" fill="#2C2F30"/>
<path d="M18.6757 41.311C18.7304 42.7821 17.5327 43.7227 16.264 43.7227C14.9952 43.7227 14.0327 42.5086 14.0327 41.2344C14.0327 39.9602 15.1101 39.0032 16.3788 39.0032C17.6476 39.0032 18.621 39.9219 18.6757 41.311Z" fill="#FFB805"/>
<path d="M16.4446 41.2563C16.111 41.6391 15.1758 41.6336 14.8422 41.2399C14.5086 40.8461 14.5524 40.0477 15.0336 39.643C15.5149 39.2328 16.1875 39.1563 16.5868 39.7633C16.8657 40.1953 16.8547 40.7805 16.4446 41.2563Z" fill="#FFEDC7"/>
</svg>
