<svg width="70" height="70" viewBox="0 0 70 70" fill="none" xmlns="http://www.w3.org/2000/svg">
<path d="M69.7375 35.5797C69.2234 33.0969 68.3922 31.2922 68.8187 28.7438C69.0484 27.3656 69.2125 25.8781 69.1359 24.4398C69.0211 22.5641 67.8289 20.8469 66.6914 19.7203C65.882 18.9164 64.9906 18.2711 64.0063 17.8391C62.918 17.3523 61.8406 16.8 60.6922 16.6086C59.4234 16.3953 58.1383 16.4445 56.8695 16.5922C51.4336 17.2266 47.6438 20.4313 43.5586 23.718C43.1102 24.0844 42.6672 24.4344 42.2352 24.7898C40.9445 25.8617 39.7086 26.9391 38.4289 28.1531C37.882 28.6727 37.3133 29.2742 36.6242 29.4547C36.5148 29.482 36.4164 29.5258 36.3016 29.5313C36.1922 29.5367 36.0773 29.5203 35.9625 29.5094C37.2203 28.8422 38.1227 27.6555 37.9148 26.1133C37.8656 25.725 37.8273 25.3203 37.7508 24.932C37.7016 24.6969 37.6414 24.4672 37.5484 24.243C37.357 23.7891 37.0234 23.3078 36.9633 22.8375C36.8266 21.7273 37.7617 20.918 37.2859 19.7859C36.8047 18.6594 36.1156 17.757 35.3172 16.8273C34.9727 16.4172 34.732 16.0891 34.475 15.6188C34.2781 15.2688 34.1633 14.7984 33.9445 14.4813C33.2773 13.5242 32.0633 13.125 30.9586 12.95C30.2586 12.8406 29.5203 12.9281 28.8313 13.0977C22.75 14.6289 16.6086 19.2938 15.9195 25.8727C14.6508 25.9328 13.4313 26.1461 12.1734 26.4359C11.2 26.6602 10.232 27.0922 9.25859 27.3656C7.34453 27.907 5.50703 28.7875 3.75156 29.8648C2.32969 30.7398 -0.0546875 31.6094 0.175 33.9938C0.229688 34.5188 0.339063 35.0109 0.48125 35.4922C1.00625 37.2531 2.08359 38.6969 3.31406 39.8125C7.01641 43.1594 11.7797 45.1445 16.5977 45.8719C16.6414 46.3313 16.7508 46.8234 16.7836 47.0586C16.8766 47.7367 16.9367 48.4805 17.1555 49.1313C17.8883 51.275 20.0484 53.8891 22.5969 53.1125C24.6203 52.5 24.7844 49.6891 24.6367 47.9555C24.5766 47.2336 24.2156 46.5719 23.7617 46.0031C24.4836 45.9211 25.2 45.8336 25.8945 45.6859C26.4469 45.5766 26.9992 45.4344 27.5461 45.2758C27.7977 45.6094 28.0109 45.8828 28.0875 45.9648C29.7227 47.6328 35.1477 49.782 35.875 46.1234C36.0445 45.2648 35.8531 44.5211 35.2898 43.8375C34.9836 43.4656 34.5133 43.0609 34.0594 42.7766C34.6828 42.5031 35.3117 42.2461 35.9516 42.0602C36.7172 41.8469 37.5102 41.7867 38.1828 42.35C39.5281 43.4875 40.2391 45.5273 41.0977 47.0313C42.1367 48.8414 43.2414 50.6242 44.4938 52.2922C47.1297 55.7867 50.5203 58.4391 54.6711 59.8555C58.6305 61.2063 64.4602 62.4859 65.5867 56.9352C65.8492 55.6227 66.1281 54.2609 66.8008 53.0633C68.2336 50.5094 69.4203 47.775 69.5789 44.8164C69.6609 43.3836 69.3383 41.9891 69.3766 40.5617C69.4313 38.8938 70.0875 37.2641 69.7375 35.5797" fill="#F79329"/>
<mask id="mask0_113_29" style="mask-type:luminance" maskUnits="userSpaceOnUse" x="0" y="12" width="70" height="50">
<path d="M69.7375 35.5797C69.2234 33.0969 68.3922 31.2922 68.8187 28.7438C69.0484 27.3656 69.2125 25.8781 69.1359 24.4398C69.0211 22.5641 67.8289 20.8469 66.6914 19.7203C65.882 18.9164 64.9906 18.2711 64.0063 17.8391C62.918 17.3523 61.8406 16.8 60.6922 16.6086C59.4234 16.3953 58.1383 16.4445 56.8695 16.5922C51.4336 17.2266 47.6438 20.4313 43.5586 23.718C43.1102 24.0844 42.6672 24.4344 42.2352 24.7898C40.9445 25.8617 39.7086 26.9391 38.4289 28.1531C37.882 28.6727 37.3133 29.2742 36.6242 29.4547C36.5148 29.482 36.4164 29.5258 36.3016 29.5313C36.1922 29.5367 36.0773 29.5203 35.9625 29.5094C37.2203 28.8422 38.1227 27.6555 37.9148 26.1133C37.8656 25.725 37.8273 25.3203 37.7508 24.932C37.7016 24.6969 37.6414 24.4672 37.5484 24.243C37.357 23.7891 37.0234 23.3078 36.9633 22.8375C36.8266 21.7273 37.7617 20.918 37.2859 19.7859C36.8047 18.6594 36.1156 17.757 35.3172 16.8273C34.9727 16.4172 34.732 16.0891 34.475 15.6188C34.2781 15.2688 34.1633 14.7984 33.9445 14.4813C33.2773 13.5242 32.0633 13.125 30.9586 12.95C30.2586 12.8406 29.5203 12.9281 28.8313 13.0977C22.75 14.6289 16.6086 19.2938 15.9195 25.8727C14.6508 25.9328 13.4313 26.1461 12.1734 26.4359C11.2 26.6602 10.232 27.0922 9.25859 27.3656C7.34453 27.907 5.50703 28.7875 3.75156 29.8648C2.32969 30.7398 -0.0546875 31.6094 0.175 33.9938C0.229688 34.5188 0.339063 35.0109 0.48125 35.4922C1.00625 37.2531 2.08359 38.6969 3.31406 39.8125C7.01641 43.1594 11.7797 45.1445 16.5977 45.8719C16.6414 46.3313 16.7508 46.8234 16.7836 47.0586C16.8766 47.7367 16.9367 48.4805 17.1555 49.1313C17.8883 51.275 20.0484 53.8891 22.5969 53.1125C24.6203 52.5 24.7844 49.6891 24.6367 47.9555C24.5766 47.2336 24.2156 46.5719 23.7617 46.0031C24.4836 45.9211 25.2 45.8336 25.8945 45.6859C26.4469 45.5766 26.9992 45.4344 27.5461 45.2758C27.7977 45.6094 28.0109 45.8828 28.0875 45.9648C29.7227 47.6328 35.1477 49.782 35.875 46.1234C36.0445 45.2648 35.8531 44.5211 35.2898 43.8375C34.9836 43.4656 34.5133 43.0609 34.0594 42.7766C34.6828 42.5031 35.3117 42.2461 35.9516 42.0602C36.7172 41.8469 37.5102 41.7867 38.1828 42.35C39.5281 43.4875 40.2391 45.5273 41.0977 47.0313C42.1367 48.8414 43.2414 50.6242 44.4938 52.2922C47.1297 55.7867 50.5203 58.4391 54.6711 59.8555C58.6305 61.2063 64.4602 62.4859 65.5867 56.9352C65.8492 55.6227 66.1281 54.2609 66.8008 53.0633C68.2336 50.5094 69.4203 47.775 69.5789 44.8164C69.6609 43.3836 69.3383 41.9891 69.3766 40.5617C69.4313 38.8938 70.0875 37.2641 69.7375 35.5797" fill="white"/>
</mask>
<g mask="url(#mask0_113_29)">
<path d="M59.1938 18.6375C60.6758 20.207 61.0039 22.318 60.7414 24.5055C60.4899 26.518 59.4782 28.8203 59.7352 30.8547C59.9704 32.7469 61.2391 34.5461 61.5016 36.5094C61.7969 38.7242 60.6594 40.6711 59.768 42.618C58.6305 45.0844 58.3899 47.0969 58.893 49.7711C59.5657 53.3859 58.1274 57.3344 54.4688 58.7125C53.6704 59.0133 52.6641 58.7617 51.7891 58.8711C51.2914 60.6156 55.3219 61.4414 56.443 61.693C58.4118 62.125 60.4954 62.6773 62.5133 62.2234C63.875 61.9172 65.018 61.0477 65.8438 59.9758C67.0961 58.3461 68.2719 56.7602 69.2125 54.8789C69.8743 53.5609 70.3829 52.3195 70.6672 50.8703C70.9461 49.432 71.4165 48.0812 71.4821 46.6156C71.575 44.5648 72.1383 42.5578 72.1985 40.4961C72.2641 38.2922 72.3352 36.0937 72.3352 33.8898C72.3352 31.3141 72.1821 28.7437 72.193 26.1844C72.1985 24.582 72.0836 23.0891 71.6625 21.5359C71.2414 19.9773 70.2461 17.9812 68.7914 17.1445C68.0258 16.7016 67.2055 16.4391 66.4836 15.9031C65.8711 15.4437 65.0125 15.0172 64.2141 14.9078C61.2391 14.4977 57.1539 14.3555 54.7586 16.4062C56.1641 16.6687 57.0993 17.0023 58.2914 17.8555C58.6305 18.0906 58.9313 18.3531 59.1938 18.6375ZM26.4579 14.8039C26.9391 14.8859 27.3383 14.968 27.4586 15.0227C29.2579 15.8867 29.493 17.6422 29.7336 19.4086C29.8375 20.1687 30.0235 20.7484 30.3735 21.4211C31.511 23.6195 33.5672 25.3094 32.0907 27.9617C31.8008 28.4703 31.593 28.6234 32.1891 28.9516C32.9711 29.3781 34.2946 29.5477 35.1805 29.5695C36.6899 29.6078 37.4008 29.0008 38.15 27.7812C39.375 25.7687 39.9 22.4766 39.2985 20.1797C39.0305 19.1406 38.593 18.1672 38.3469 17.1117C38.0407 15.7937 37.6907 14.5305 36.8758 13.4258C36.061 12.3156 35.2133 11.5117 33.8899 11.0086C32.6704 10.5492 31.0625 10.3961 29.8102 10.7898C28.6235 11.1617 27.5133 11.8398 26.3704 12.4305C25.8289 12.7094 23.9258 13.5734 24.1172 14.4266C24.1282 14.4539 25.468 14.6344 26.4579 14.8039Z" fill="#ED6C30"/>
</g>
<path d="M50.2523 27.9288C49.7 28.8257 49.5141 29.8757 51.007 29.7882C51.7562 29.7445 52.5 29.4109 53.1891 29.1538C54.0641 28.8312 54.9445 28.4921 55.7266 27.9671C57.2469 26.939 56.5195 25.2765 54.8406 25.1781C53.3312 25.0851 51.4117 26.3812 50.5312 27.5242C50.4273 27.6554 50.3398 27.7921 50.2523 27.9288ZM50.6351 35.8804C50.3891 35.9953 50.143 36.1156 49.8859 36.2468C49.4539 36.471 48.9289 36.6078 49.0437 37.1984C49.2789 38.4288 52.1008 38.571 52.9977 38.6421C54.3758 38.7515 57.1047 38.921 56.9352 36.7554C56.8914 36.1429 56.5742 35.5523 55.9781 35.2734C55.3437 34.9781 54.6109 34.9015 53.9109 34.9671C52.6859 35.0874 51.6851 35.3992 50.6351 35.8804ZM49.9461 45.1718C49.6727 45.2867 49.4812 45.5163 49.4375 45.9538C49.268 47.7203 52.6203 50.0937 54.2336 49.9187C55.1195 49.8203 55.2453 48.7156 55.1633 48.0156C55.0977 47.4687 54.8461 47.1515 54.4851 46.7304C53.8398 45.9703 52.932 45.5163 51.9586 45.3249C51.3844 45.2101 50.4984 44.9421 49.9461 45.1718Z" fill="white"/>
<path d="M8.82651 36.7828C7.64526 36.8485 6.63901 35.8367 6.57886 34.5133C6.54604 33.7477 6.84682 33.0532 7.32261 32.5828C7.67261 32.2438 8.12104 32.025 8.6187 31.9977C8.66245 31.9977 8.7062 31.9977 8.75542 32.0032C9.88198 32.0141 10.8171 32.9985 10.8828 34.2617C10.932 35.5907 10.0132 36.7117 8.82651 36.7828Z" fill="#2F2F2F"/>
</svg>
