<svg width="70" height="70" viewBox="0 0 70 70" fill="none" xmlns="http://www.w3.org/2000/svg">
<g clip-path="url(#clip0_113_2)">
<path d="M16.0047 19.4444C27.6714 3.88889 43.227 0 51.0047 0C52.9492 0 52.9492 1.94444 51.0047 1.94444C49.0603 1.94444 39.3381 5.83333 37.3936 19.4444C35.4492 33.0556 16.0047 19.4444 16.0047 19.4444ZM14.0603 54.4444C21.8381 60.2778 39.3381 70 49.0603 70C54.8936 70 52.9492 68.0556 51.0047 68.0556C49.0603 68.0556 33.5047 62.2222 31.5603 54.4444C29.6159 46.6667 14.0603 54.4444 14.0603 54.4444Z" fill="#FFAC33"/>
<path d="M68.0556 17.5C64.9231 17.5 60.1631 23.2789 57.8122 29.7383C54.9442 18.8105 45.8228 8.85693 32.6414 8.85693C16.555 8.85693 9.18946 28.7214 4.4003 37.0105C3.17724 39.1319 -3.55443 39.0211 2.47724 43.0442C-3.55637 47.0653 3.3503 47.4055 4.85335 49.0778C9.95752 54.7555 22.3475 61.143 32.6414 61.143C43.6372 61.143 54.2636 53.7814 57.6528 43.7247C59.9434 50.3533 64.8531 56.3889 68.0556 56.3889C72.3509 56.3889 64.1667 45.535 64.1667 36.9444C64.1667 28.3539 72.3509 17.5 68.0556 17.5Z" fill="#FFCC4D"/>
<path d="M35.002 34.9359C34.9932 35.1911 35.0348 35.4455 35.1245 35.6846C35.2142 35.9237 35.3502 36.1427 35.5247 36.3291C35.6992 36.5155 35.9087 36.6657 36.1414 36.7709C36.374 36.8762 36.6251 36.9345 36.8803 36.9426L36.9465 36.9445C37.4506 36.9438 37.9347 36.7473 38.2967 36.3965C38.6587 36.0457 38.8704 35.5681 38.887 35.0642C39.2778 23.2712 50.0831 17.922 51.2342 17.3853C50.3298 16.361 49.3482 15.4073 48.2981 14.5328C44.6329 16.5881 35.3987 22.9387 35.002 34.9359ZM44.7592 30.7301C44.6582 31.236 44.7622 31.7613 45.0484 32.1905C45.3347 32.6197 45.7797 32.9176 46.2856 33.0187C46.7915 33.1197 47.3169 33.0157 47.7461 32.7295C48.1753 32.4432 48.4732 31.9982 48.5742 31.4923C49.5776 26.4737 53.0387 24.5428 55.5587 23.8001C54.9679 22.6118 54.3002 21.4635 53.5598 20.3623C49.9101 21.7059 45.9609 24.7295 44.7592 30.7301Z" fill="#F4900C"/>
<path d="M25.2778 38.8889C25.2778 39.4046 25.4827 39.8992 25.8473 40.2639C26.212 40.6285 26.7066 40.8334 27.2223 40.8334C27.738 40.8334 28.2326 40.6285 28.5972 40.2639C28.9619 39.8992 29.1667 39.4046 29.1667 38.8889C29.1667 21.4473 40.5242 14.4978 45.2395 12.3648C43.8823 11.5334 42.4461 10.8384 40.952 10.29C34.7823 13.9398 25.2778 22.2562 25.2778 38.8889Z" fill="#F4900C"/>
<path d="M18.4722 33.0555C20.083 33.0555 21.3889 31.7497 21.3889 30.1388C21.3889 28.528 20.083 27.2222 18.4722 27.2222C16.8614 27.2222 15.5555 28.528 15.5555 30.1388C15.5555 31.7497 16.8614 33.0555 18.4722 33.0555Z" fill="#292F33"/>
</g>
<defs>
<clipPath id="clip0_113_2">
<rect width="70" height="70" fill="white"/>
</clipPath>
</defs>
</svg>
